STARTFONT 2.1
COMMENT
COMMENT Converted from OpenType font "gulim.ttc" by "otf2bdf 3.0".
COMMENT
FONT -FreeType-Gulim-Medium-R-Normal--11-80-100-100-P-92-ISO10646-1
SIZE 8 100 100
FONTBOUNDINGBOX 11 12 0 -2
STARTPROPERTIES 19
FOUNDRY "FreeType"
FAMILY_NAME "Gulim"
WEIGHT_NAME "Medium"
SLANT "R"
SETWIDTH_NAME "Normal"
ADD_STYLE_NAME ""
PIXEL_SIZE 11
POINT_SIZE 80
RESOLUTION_X 100
RESOLUTION_Y 100
SPACING "P"
AVERAGE_WIDTH 92
CHARSET_REGISTRY "ISO10646"
CHARSET_ENCODING "1"
FONT_ASCENT 9
FONT_DESCENT 1
COPYRIGHT "© 2009 HanYang I&C Co., LTD."
_OTF_FONTFILE "gulim.ttc"
_OTF_PSNAME "Gulim"
ENDPROPERTIES
CHARS 20606
STARTCHAR 0000
ENCODING 0
SWIDTH 540 0
DWIDTH 6 0
BBX 0 0 0 0
BITMAP
ENDCHAR
STARTCHAR 0001
ENCODING 1
SWIDTH 540 0
DWIDTH 6 0
BBX 3 5 3 -2
BITMAP
E0
80
80
80
80
ENDCHAR
STARTCHAR 0002
ENCODING 2
SWIDTH 540 0
DWIDTH 6 0
BBX 3 5 0 -2
BITMAP
E0
20
20
20
20
ENDCHAR
STARTCHAR 0003
ENCODING 3
SWIDTH 540 0
DWIDTH 6 0
BBX 3 5 3 4
BITMAP
80
80
80
80
E0
ENDCHAR
STARTCHAR 0004
ENCODING 4
SWIDTH 540 0
DWIDTH 6 0
BBX 3 5 0 4
BITMAP
20
20
20
20
E0
ENDCHAR
STARTCHAR 0005
ENCODING 5
SWIDTH 540 0
DWIDTH 6 0
BBX 1 9 2 -1
BITMAP
80
80
80
80
80
80
80
80
80
ENDCHAR
STARTCHAR 0006
ENCODING 6
SWIDTH 540 0
DWIDTH 6 0
BBX 6 1 0 3
BITMAP
FC
ENDCHAR
STARTCHAR 0007
ENCODING 7
SWIDTH 540 0
DWIDTH 6 0
BBX 4 4 1 2
BITMAP
E0
F0
F0
E0
ENDCHAR
STARTCHAR 0008
ENCODING 8
SWIDTH 540 0
DWIDTH 6 0
BBX 5 8 0 0
BITMAP
F8
F8
88
88
88
88
F8
F8
ENDCHAR
STARTCHAR 000B
ENCODING 11
SWIDTH 540 0
DWIDTH 6 0
BBX 5 7 0 1
BITMAP
08
10
20
60
A0
A0
60
ENDCHAR
STARTCHAR 000C
ENCODING 12
SWIDTH 540 0
DWIDTH 6 0
BBX 5 11 0 -2
BITMAP
70
48
88
48
30
20
F8
20
20
20
20
ENDCHAR
STARTCHAR 000E
ENCODING 14
SWIDTH 540 0
DWIDTH 6 0
BBX 5 9 0 0
BITMAP
08
38
58
28
48
48
48
48
80
ENDCHAR
STARTCHAR 000F
ENCODING 15
SWIDTH 540 0
DWIDTH 6 0
BBX 5 8 0 0
BITMAP
A0
78
50
88
88
48
70
A8
ENDCHAR
STARTCHAR 0010
ENCODING 16
SWIDTH 540 0
DWIDTH 6 0
BBX 6 9 0 -1
BITMAP
20
20
20
20
FC
20
20
20
20
ENDCHAR
STARTCHAR 0011
ENCODING 17
SWIDTH 540 0
DWIDTH 6 0
BBX 4 8 1 0
BITMAP
10
30
70
F0
F0
70
30
10
ENDCHAR
STARTCHAR 0012
ENCODING 18
SWIDTH 540 0
DWIDTH 6 0
BBX 3 10 1 -1
BITMAP
40
A0
40
40
40
40
40
40
A0
40
ENDCHAR
STARTCHAR 0013
ENCODING 19
SWIDTH 540 0
DWIDTH 6 0
BBX 2 8 2 1
BITMAP
40
C0
C0
C0
C0
40
00
40
ENDCHAR
STARTCHAR 0014
ENCODING 20
SWIDTH 540 0
DWIDTH 6 0
BBX 5 10 0 -1
BITMAP
78
A8
A8
A8
68
28
28
28
28
28
ENDCHAR
STARTCHAR 0015
ENCODING 21
SWIDTH 540 0
DWIDTH 6 0
BBX 6 5 0 4
BITMAP
20
20
20
20
FC
ENDCHAR
STARTCHAR 0016
ENCODING 22
SWIDTH 540 0
DWIDTH 6 0
BBX 6 5 0 -2
BITMAP
FC
20
20
20
20
ENDCHAR
STARTCHAR 0017
ENCODING 23
SWIDTH 540 0
DWIDTH 6 0
BBX 3 9 0 -1
BITMAP
20
20
20
20
E0
20
20
20
20
ENDCHAR
STARTCHAR 0018
ENCODING 24
SWIDTH 540 0
DWIDTH 6 0
BBX 2 9 2 -1
BITMAP
80
C0
80
80
80
80
80
80
80
ENDCHAR
STARTCHAR 0019
ENCODING 25
SWIDTH 540 0
DWIDTH 6 0
BBX 3 9 3 -1
BITMAP
80
80
80
80
E0
80
80
80
80
ENDCHAR
STARTCHAR 001A
ENCODING 26
SWIDTH 540 0
DWIDTH 6 0
BBX 5 2 0 3
BITMAP
F8
10
ENDCHAR
STARTCHAR 001B
ENCODING 27
SWIDTH 540 0
DWIDTH 6 0
BBX 5 3 0 2
BITMAP
40
F8
40
ENDCHAR
STARTCHAR 001C
ENCODING 28
SWIDTH 540 0
DWIDTH 6 0
BBX 5 5 0 2
BITMAP
80
80
80
80
F8
ENDCHAR
STARTCHAR 001D
ENCODING 29
SWIDTH 540 0
DWIDTH 6 0
BBX 5 2 0 3
BITMAP
F8
08
ENDCHAR
STARTCHAR 001E
ENCODING 30
SWIDTH 540 0
DWIDTH 6 0
BBX 5 5 0 2
BITMAP
20
30
70
78
F8
ENDCHAR
STARTCHAR 001F
ENCODING 31
SWIDTH 540 0
DWIDTH 6 0
BBX 5 6 0 1
BITMAP
F8
78
70
70
30
20
ENDCHAR
STARTCHAR 0020
ENCODING 32
SWIDTH 360 0
DWIDTH 4 0
BBX 0 0 0 0
BITMAP
ENDCHAR
STARTCHAR 0021
ENCODING 33
SWIDTH 270 0
DWIDTH 3 0
BBX 1 8 1 0
BITMAP
80
80
80
80
80
80
00
80
ENDCHAR
STARTCHAR 0022
ENCODING 34
SWIDTH 450 0
DWIDTH 5 0
BBX 3 2 1 6
BITMAP
A0
A0
ENDCHAR
STARTCHAR 0023
ENCODING 35
SWIDTH 630 0
DWIDTH 7 0
BBX 5 8 1 0
BITMAP
50
50
F8
50
50
F8
50
50
ENDCHAR
STARTCHAR 0024
ENCODING 36
SWIDTH 630 0
DWIDTH 7 0
BBX 5 10 1 -1
BITMAP
20
70
A8
A0
60
30
28
A8
70
20
ENDCHAR
STARTCHAR 0025
ENCODING 37
SWIDTH 900 0
DWIDTH 10 0
BBX 9 8 0 0
BITMAP
6200
9200
9400
6400
0B00
1480
1480
2300
ENDCHAR
STARTCHAR 0026
ENCODING 38
SWIDTH 630 0
DWIDTH 7 0
BBX 5 8 1 0
BITMAP
60
90
90
60
A8
90
90
68
ENDCHAR
STARTCHAR 0027
ENCODING 39
SWIDTH 270 0
DWIDTH 3 0
BBX 1 2 1 6
BITMAP
80
80
ENDCHAR
STARTCHAR 0028
ENCODING 40
SWIDTH 360 0
DWIDTH 4 0
BBX 3 10 0 -1
BITMAP
20
40
40
80
80
80
80
40
40
20
ENDCHAR
STARTCHAR 0029
ENCODING 41
SWIDTH 360 0
DWIDTH 4 0
BBX 3 10 1 -1
BITMAP
80
40
40
20
20
20
20
40
40
80
ENDCHAR
STARTCHAR 002A
ENCODING 42
SWIDTH 450 0
DWIDTH 5 0
BBX 5 5 0 2
BITMAP
20
20
F8
20
50
ENDCHAR
STARTCHAR 002B
ENCODING 43
SWIDTH 450 0
DWIDTH 5 0
BBX 5 5 0 2
BITMAP
20
20
F8
20
20
ENDCHAR
STARTCHAR 002C
ENCODING 44
SWIDTH 270 0
DWIDTH 3 0
BBX 2 3 0 -2
BITMAP
40
40
80
ENDCHAR
STARTCHAR 002D
ENCODING 45
SWIDTH 450 0
DWIDTH 5 0
BBX 5 1 0 4
BITMAP
F8
ENDCHAR
STARTCHAR 002E
ENCODING 46
SWIDTH 270 0
DWIDTH 3 0
BBX 1 2 1 -1
BITMAP
80
80
ENDCHAR
STARTCHAR 002F
ENCODING 47
SWIDTH 450 0
DWIDTH 5 0
BBX 5 10 0 -1
BITMAP
08
08
10
10
20
20
40
40
80
80
ENDCHAR
STARTCHAR 0030
ENCODING 48
SWIDTH 540 0
DWIDTH 6 0
BBX 5 8 1 0
BITMAP
70
88
88
88
88
88
88
70
ENDCHAR
STARTCHAR 0031
ENCODING 49
SWIDTH 540 0
DWIDTH 6 0
BBX 3 8 1 0
BITMAP
20
E0
20
20
20
20
20
20
ENDCHAR
STARTCHAR 0032
ENCODING 50
SWIDTH 540 0
DWIDTH 6 0
BBX 5 8 1 0
BITMAP
70
88
88
10
20
40
80
F8
ENDCHAR
STARTCHAR 0033
ENCODING 51
SWIDTH 540 0
DWIDTH 6 0
BBX 5 8 1 0
BITMAP
70
88
08
70
08
08
88
70
ENDCHAR
STARTCHAR 0034
ENCODING 52
SWIDTH 540 0
DWIDTH 6 0
BBX 5 8 1 0
BITMAP
30
30
50
50
90
F8
10
10
ENDCHAR
STARTCHAR 0035
ENCODING 53
SWIDTH 540 0
DWIDTH 6 0
BBX 5 8 1 0
BITMAP
F8
80
80
F0
08
08
88
70
ENDCHAR
STARTCHAR 0036
ENCODING 54
SWIDTH 540 0
DWIDTH 6 0
BBX 5 8 1 0
BITMAP
70
88
80
F0
88
88
88
70
ENDCHAR
STARTCHAR 0037
ENCODING 55
SWIDTH 540 0
DWIDTH 6 0
BBX 5 8 1 0
BITMAP
F8
08
10
10
10
20
20
20
ENDCHAR
STARTCHAR 0038
ENCODING 56
SWIDTH 540 0
DWIDTH 6 0
BBX 5 8 1 0
BITMAP
70
88
88
70
88
88
88
70
ENDCHAR
STARTCHAR 0039
ENCODING 57
SWIDTH 540 0
DWIDTH 6 0
BBX 5 8 1 0
BITMAP
70
88
88
88
78
08
88
70
ENDCHAR
STARTCHAR 003A
ENCODING 58
SWIDTH 270 0
DWIDTH 3 0
BBX 1 5 1 1
BITMAP
80
00
00
00
80
ENDCHAR
STARTCHAR 003B
ENCODING 59
SWIDTH 270 0
DWIDTH 3 0
BBX 2 6 0 0
BITMAP
40
00
00
00
40
80
ENDCHAR
STARTCHAR 003C
ENCODING 60
SWIDTH 630 0
DWIDTH 7 0
BBX 5 9 1 -1
BITMAP
08
10
20
40
80
40
20
10
08
ENDCHAR
STARTCHAR 003D
ENCODING 61
SWIDTH 540 0
DWIDTH 6 0
BBX 5 3 0 2
BITMAP
F8
00
F8
ENDCHAR
STARTCHAR 003E
ENCODING 62
SWIDTH 630 0
DWIDTH 7 0
BBX 5 9 1 -1
BITMAP
80
40
20
10
08
10
20
40
80
ENDCHAR
STARTCHAR 003F
ENCODING 63
SWIDTH 540 0
DWIDTH 6 0
BBX 5 8 0 0
BITMAP
70
88
08
10
20
20
00
20
ENDCHAR
STARTCHAR 0040
ENCODING 64
SWIDTH 990 0
DWIDTH 11 0
BBX 9 9 1 -1
BITMAP
3E00
4100
9C80
A480
A480
A480
9B00
4000
3E00
ENDCHAR
STARTCHAR 0041
ENCODING 65
SWIDTH 720 0
DWIDTH 8 0
BBX 7 8 1 0
BITMAP
10
10
28
28
44
7C
82
82
ENDCHAR
STARTCHAR 0042
ENCODING 66
SWIDTH 630 0
DWIDTH 7 0
BBX 5 8 1 0
BITMAP
F0
88
88
F0
88
88
88
F0
ENDCHAR
STARTCHAR 0043
ENCODING 67
SWIDTH 720 0
DWIDTH 8 0
BBX 6 8 1 0
BITMAP
38
44
80
80
80
80
44
38
ENDCHAR
STARTCHAR 0044
ENCODING 68
SWIDTH 720 0
DWIDTH 8 0
BBX 6 8 1 0
BITMAP
F0
88
84
84
84
84
88
F0
ENDCHAR
STARTCHAR 0045
ENCODING 69
SWIDTH 630 0
DWIDTH 7 0
BBX 5 8 1 0
BITMAP
F8
80
80
F8
80
80
80
F8
ENDCHAR
STARTCHAR 0046
ENCODING 70
SWIDTH 630 0
DWIDTH 7 0
BBX 5 8 1 0
BITMAP
F8
80
80
F8
80
80
80
80
ENDCHAR
STARTCHAR 0047
ENCODING 71
SWIDTH 810 0
DWIDTH 9 0
BBX 7 8 1 0
BITMAP
3C
42
80
80
8E
82
42
3C
ENDCHAR
STARTCHAR 0048
ENCODING 72
SWIDTH 720 0
DWIDTH 8 0
BBX 6 8 1 0
BITMAP
84
84
84
FC
84
84
84
84
ENDCHAR
STARTCHAR 0049
ENCODING 73
SWIDTH 270 0
DWIDTH 3 0
BBX 1 8 1 0
BITMAP
80
80
80
80
80
80
80
80
ENDCHAR
STARTCHAR 004A
ENCODING 74
SWIDTH 450 0
DWIDTH 5 0
BBX 4 8 0 0
BITMAP
10
10
10
10
10
90
90
60
ENDCHAR
STARTCHAR 004B
ENCODING 75
SWIDTH 630 0
DWIDTH 7 0
BBX 6 8 1 0
BITMAP
88
90
A0
C0
A0
90
88
84
ENDCHAR
STARTCHAR 004C
ENCODING 76
SWIDTH 540 0
DWIDTH 6 0
BBX 5 8 1 0
BITMAP
80
80
80
80
80
80
80
F8
ENDCHAR
STARTCHAR 004D
ENCODING 77
SWIDTH 810 0
DWIDTH 9 0
BBX 7 8 1 0
BITMAP
82
82
C6
C6
AA
AA
92
92
ENDCHAR
STARTCHAR 004E
ENCODING 78
SWIDTH 630 0
DWIDTH 7 0
BBX 5 8 1 0
BITMAP
88
C8
C8
A8
A8
98
98
88
ENDCHAR
STARTCHAR 004F
ENCODING 79
SWIDTH 810 0
DWIDTH 9 0
BBX 7 8 1 0
BITMAP
38
44
82
82
82
82
44
38
ENDCHAR
STARTCHAR 0050
ENCODING 80
SWIDTH 720 0
DWIDTH 8 0
BBX 6 8 1 0
BITMAP
F8
84
84
84
F8
80
80
80
ENDCHAR
STARTCHAR 0051
ENCODING 81
SWIDTH 810 0
DWIDTH 9 0
BBX 7 8 1 0
BITMAP
38
44
82
82
82
8A
44
3A
ENDCHAR
STARTCHAR 0052
ENCODING 82
SWIDTH 720 0
DWIDTH 8 0
BBX 6 8 1 0
BITMAP
F8
84
84
84
F8
84
84
84
ENDCHAR
STARTCHAR 0053
ENCODING 83
SWIDTH 720 0
DWIDTH 8 0
BBX 6 8 1 0
BITMAP
78
84
80
60
18
04
84
78
ENDCHAR
STARTCHAR 0054
ENCODING 84
SWIDTH 630 0
DWIDTH 7 0
BBX 7 8 0 0
BITMAP
FE
10
10
10
10
10
10
10
ENDCHAR
STARTCHAR 0055
ENCODING 85
SWIDTH 720 0
DWIDTH 8 0
BBX 6 8 1 0
BITMAP
84
84
84
84
84
84
84
78
ENDCHAR
STARTCHAR 0056
ENCODING 86
SWIDTH 810 0
DWIDTH 9 0
BBX 7 8 1 0
BITMAP
82
82
44
44
28
28
10
10
ENDCHAR
STARTCHAR 0057
ENCODING 87
SWIDTH 990 0
DWIDTH 11 0
BBX 9 8 1 0
BITMAP
8880
8880
8880
5500
5500
5500
2200
2200
ENDCHAR
STARTCHAR 0058
ENCODING 88
SWIDTH 720 0
DWIDTH 8 0
BBX 7 8 1 0
BITMAP
82
44
28
10
10
28
44
82
ENDCHAR
STARTCHAR 0059
ENCODING 89
SWIDTH 720 0
DWIDTH 8 0
BBX 7 8 1 0
BITMAP
82
82
44
28
10
10
10
10
ENDCHAR
STARTCHAR 005A
ENCODING 90
SWIDTH 720 0
DWIDTH 8 0
BBX 6 8 1 0
BITMAP
FC
04
08
10
20
40
80
FC
ENDCHAR
STARTCHAR 005B
ENCODING 91
SWIDTH 360 0
DWIDTH 4 0
BBX 2 10 1 -1
BITMAP
C0
80
80
80
80
80
80
80
80
C0
ENDCHAR
STARTCHAR 005C
ENCODING 92
SWIDTH 990 0
DWIDTH 11 0
BBX 11 8 0 0
BITMAP
4440
4440
FFE0
4440
2A80
2A80
1100
1100
ENDCHAR
STARTCHAR 005D
ENCODING 93
SWIDTH 360 0
DWIDTH 4 0
BBX 2 10 1 -1
BITMAP
C0
40
40
40
40
40
40
40
40
C0
ENDCHAR
STARTCHAR 005E
ENCODING 94
SWIDTH 450 0
DWIDTH 5 0
BBX 5 3 0 5
BITMAP
20
50
88
ENDCHAR
STARTCHAR 005F
ENCODING 95
SWIDTH 540 0
DWIDTH 6 0
BBX 5 1 1 -1
BITMAP
F8
ENDCHAR
STARTCHAR 0060
ENCODING 96
SWIDTH 270 0
DWIDTH 3 0
BBX 1 2 1 6
BITMAP
80
80
ENDCHAR
STARTCHAR 0061
ENCODING 97
SWIDTH 630 0
DWIDTH 7 0
BBX 6 6 1 0
BITMAP
70
88
78
88
88
74
ENDCHAR
STARTCHAR 0062
ENCODING 98
SWIDTH 630 0
DWIDTH 7 0
BBX 5 8 1 0
BITMAP
80
80
F0
88
88
88
88
F0
ENDCHAR
STARTCHAR 0063
ENCODING 99
SWIDTH 630 0
DWIDTH 7 0
BBX 5 6 1 0
BITMAP
70
88
80
80
88
70
ENDCHAR
STARTCHAR 0064
ENCODING 100
SWIDTH 630 0
DWIDTH 7 0
BBX 5 8 1 0
BITMAP
08
08
78
88
88
88
88
78
ENDCHAR
STARTCHAR 0065
ENCODING 101
SWIDTH 630 0
DWIDTH 7 0
BBX 5 6 1 0
BITMAP
70
88
F8
80
88
70
ENDCHAR
STARTCHAR 0066
ENCODING 102
SWIDTH 360 0
DWIDTH 4 0
BBX 3 8 1 0
BITMAP
60
40
E0
40
40
40
40
40
ENDCHAR
STARTCHAR 0067
ENCODING 103
SWIDTH 630 0
DWIDTH 7 0
BBX 5 8 1 -2
BITMAP
78
88
88
88
78
08
88
70
ENDCHAR
STARTCHAR 0068
ENCODING 104
SWIDTH 630 0
DWIDTH 7 0
BBX 5 8 1 0
BITMAP
80
80
F0
88
88
88
88
88
ENDCHAR
STARTCHAR 0069
ENCODING 105
SWIDTH 270 0
DWIDTH 3 0
BBX 1 8 1 0
BITMAP
80
00
80
80
80
80
80
80
ENDCHAR
STARTCHAR 006A
ENCODING 106
SWIDTH 270 0
DWIDTH 3 0
BBX 2 10 0 -2
BITMAP
40
00
40
40
40
40
40
40
40
80
ENDCHAR
STARTCHAR 006B
ENCODING 107
SWIDTH 540 0
DWIDTH 6 0
BBX 4 8 1 0
BITMAP
80
80
90
A0
C0
C0
A0
90
ENDCHAR
STARTCHAR 006C
ENCODING 108
SWIDTH 270 0
DWIDTH 3 0
BBX 1 8 1 0
BITMAP
80
80
80
80
80
80
80
80
ENDCHAR
STARTCHAR 006D
ENCODING 109
SWIDTH 810 0
DWIDTH 9 0
BBX 7 6 1 0
BITMAP
EC
92
92
92
92
92
ENDCHAR
STARTCHAR 006E
ENCODING 110
SWIDTH 630 0
DWIDTH 7 0
BBX 5 6 1 0
BITMAP
F0
88
88
88
88
88
ENDCHAR
STARTCHAR 006F
ENCODING 111
SWIDTH 630 0
DWIDTH 7 0
BBX 5 6 1 0
BITMAP
70
88
88
88
88
70
ENDCHAR
STARTCHAR 0070
ENCODING 112
SWIDTH 630 0
DWIDTH 7 0
BBX 5 8 1 -2
BITMAP
F0
88
88
88
88
F0
80
80
ENDCHAR
STARTCHAR 0071
ENCODING 113
SWIDTH 630 0
DWIDTH 7 0
BBX 5 8 1 -2
BITMAP
78
88
88
88
88
78
08
08
ENDCHAR
STARTCHAR 0072
ENCODING 114
SWIDTH 360 0
DWIDTH 4 0
BBX 3 6 1 0
BITMAP
E0
80
80
80
80
80
ENDCHAR
STARTCHAR 0073
ENCODING 115
SWIDTH 630 0
DWIDTH 7 0
BBX 5 6 1 0
BITMAP
70
88
60
10
88
70
ENDCHAR
STARTCHAR 0074
ENCODING 116
SWIDTH 360 0
DWIDTH 4 0
BBX 3 8 1 0
BITMAP
40
40
E0
40
40
40
40
60
ENDCHAR
STARTCHAR 0075
ENCODING 117
SWIDTH 630 0
DWIDTH 7 0
BBX 5 6 1 0
BITMAP
88
88
88
88
88
70
ENDCHAR
STARTCHAR 0076
ENCODING 118
SWIDTH 630 0
DWIDTH 7 0
BBX 5 6 1 0
BITMAP
88
88
50
50
20
20
ENDCHAR
STARTCHAR 0077
ENCODING 119
SWIDTH 810 0
DWIDTH 9 0
BBX 7 6 1 0
BITMAP
92
92
AA
AA
44
44
ENDCHAR
STARTCHAR 0078
ENCODING 120
SWIDTH 540 0
DWIDTH 6 0
BBX 5 6 1 0
BITMAP
88
50
20
20
50
88
ENDCHAR
STARTCHAR 0079
ENCODING 121
SWIDTH 630 0
DWIDTH 7 0
BBX 5 8 1 -2
BITMAP
88
88
88
50
50
20
20
C0
ENDCHAR
STARTCHAR 007A
ENCODING 122
SWIDTH 540 0
DWIDTH 6 0
BBX 4 6 1 0
BITMAP
F0
10
20
40
80
F0
ENDCHAR
STARTCHAR 007B
ENCODING 123
SWIDTH 360 0
DWIDTH 4 0
BBX 3 10 0 -1
BITMAP
60
40
40
40
80
40
40
40
40
60
ENDCHAR
STARTCHAR 007C
ENCODING 124
SWIDTH 270 0
DWIDTH 3 0
BBX 1 10 1 -1
BITMAP
80
80
80
80
80
80
80
80
80
80
ENDCHAR
STARTCHAR 007D
ENCODING 125
SWIDTH 360 0
DWIDTH 4 0
BBX 3 10 1 -1
BITMAP
C0
40
40
40
20
40
40
40
40
C0
ENDCHAR
STARTCHAR 007E
ENCODING 126
SWIDTH 540 0
DWIDTH 6 0
BBX 6 2 0 3
BITMAP
64
98
ENDCHAR
STARTCHAR 007F
ENCODING 127
SWIDTH 540 0
DWIDTH 6 0
BBX 4 8 1 0
BITMAP
F0
90
90
90
90
90
90
F0
ENDCHAR
STARTCHAR 00A0
ENCODING 160
SWIDTH 540 0
DWIDTH 6 0
BBX 0 0 0 0
BITMAP
ENDCHAR
STARTCHAR 00A1
ENCODING 161
SWIDTH 450 0
DWIDTH 5 0
BBX 1 8 2 -2
BITMAP
80
00
00
80
80
80
80
80
ENDCHAR
STARTCHAR 00A2
ENCODING 162
SWIDTH 540 0
DWIDTH 6 0
BBX 5 9 1 -2
BITMAP
08
70
B0
A0
C0
C8
90
F0
80
ENDCHAR
STARTCHAR 00A3
ENCODING 163
SWIDTH 630 0
DWIDTH 7 0
BBX 6 9 0 -1
BITMAP
18
24
24
20
78
20
60
A4
78
ENDCHAR
STARTCHAR 00A4
ENCODING 164
SWIDTH 540 0
DWIDTH 6 0
BBX 5 5 0 0
BITMAP
78
48
88
48
78
ENDCHAR
STARTCHAR 00A5
ENCODING 165
SWIDTH 630 0
DWIDTH 7 0
BBX 6 9 0 -1
BITMAP
80
44
28
FC
10
FC
10
10
10
ENDCHAR
STARTCHAR 00A6
ENCODING 166
SWIDTH 270 0
DWIDTH 3 0
BBX 1 9 1 -2
BITMAP
80
80
80
00
00
80
80
80
80
ENDCHAR
STARTCHAR 00A7
ENCODING 167
SWIDTH 540 0
DWIDTH 6 0
BBX 4 10 1 -2
BITMAP
60
90
80
E0
90
D0
70
20
90
E0
ENDCHAR
STARTCHAR 00A8
ENCODING 168
SWIDTH 540 0
DWIDTH 6 0
BBX 3 1 1 6
BITMAP
A0
ENDCHAR
STARTCHAR 00A9
ENCODING 169
SWIDTH 810 0
DWIDTH 9 0
BBX 8 9 0 -1
BITMAP
3C
42
99
A5
A1
A5
99
42
3C
ENDCHAR
STARTCHAR 00AA
ENCODING 170
SWIDTH 450 0
DWIDTH 5 0
BBX 4 5 0 3
BITMAP
70
10
F0
70
F0
ENDCHAR
STARTCHAR 00AB
ENCODING 171
SWIDTH 540 0
DWIDTH 6 0
BBX 4 4 1 2
BITMAP
50
A0
A0
50
ENDCHAR
STARTCHAR 00AC
ENCODING 172
SWIDTH 720 0
DWIDTH 8 0
BBX 8 3 0 3
BITMAP
FF
01
01
ENDCHAR
STARTCHAR 00AD
ENCODING 173
SWIDTH 540 0
DWIDTH 6 0
BBX 3 1 1 3
BITMAP
E0
ENDCHAR
STARTCHAR 00AE
ENCODING 174
SWIDTH 810 0
DWIDTH 9 0
BBX 8 9 0 -1
BITMAP
3C
42
BD
A5
BD
A5
A5
42
3C
ENDCHAR
STARTCHAR 00AF
ENCODING 175
SWIDTH 540 0
DWIDTH 6 0
BBX 3 1 1 6
BITMAP
E0
ENDCHAR
STARTCHAR 00B0
ENCODING 176
SWIDTH 360 0
DWIDTH 4 0
BBX 2 3 1 5
BITMAP
C0
C0
C0
ENDCHAR
STARTCHAR 00B1
ENCODING 177
SWIDTH 810 0
DWIDTH 9 0
BBX 7 8 1 0
BITMAP
10
10
10
FE
10
10
10
FE
ENDCHAR
STARTCHAR 00B2
ENCODING 178
SWIDTH 360 0
DWIDTH 4 0
BBX 3 4 1 3
BITMAP
C0
C0
80
E0
ENDCHAR
STARTCHAR 00B3
ENCODING 179
SWIDTH 360 0
DWIDTH 4 0
BBX 2 4 1 3
BITMAP
C0
40
40
C0
ENDCHAR
STARTCHAR 00B4
ENCODING 180
SWIDTH 360 0
DWIDTH 4 0
BBX 2 2 1 6
BITMAP
40
80
ENDCHAR
STARTCHAR 00B5
ENCODING 181
SWIDTH 540 0
DWIDTH 6 0
BBX 4 7 1 -1
BITMAP
90
90
90
90
90
F0
80
ENDCHAR
STARTCHAR 00B6
ENCODING 182
SWIDTH 540 0
DWIDTH 6 0
BBX 5 10 0 -2
BITMAP
38
78
F8
78
38
18
18
18
18
10
ENDCHAR
STARTCHAR 00B7
ENCODING 183
SWIDTH 360 0
DWIDTH 4 0
BBX 2 1 1 4
BITMAP
C0
ENDCHAR
STARTCHAR 00B8
ENCODING 184
SWIDTH 360 0
DWIDTH 4 0
BBX 2 3 1 -2
BITMAP
80
40
C0
ENDCHAR
STARTCHAR 00B9
ENCODING 185
SWIDTH 360 0
DWIDTH 4 0
BBX 2 5 1 3
BITMAP
40
C0
40
40
40
ENDCHAR
STARTCHAR 00BA
ENCODING 186
SWIDTH 450 0
DWIDTH 5 0
BBX 3 5 1 3
BITMAP
E0
A0
A0
E0
E0
ENDCHAR
STARTCHAR 00BB
ENCODING 187
SWIDTH 540 0
DWIDTH 6 0
BBX 4 3 1 3
BITMAP
B0
90
20
ENDCHAR
STARTCHAR 00BC
ENCODING 188
SWIDTH 540 0
DWIDTH 6 0
BBX 5 10 1 -2
BITMAP
20
60
20
20
20
F8
20
E0
F0
20
ENDCHAR
STARTCHAR 00BD
ENCODING 189
SWIDTH 540 0
DWIDTH 6 0
BBX 5 10 1 -2
BITMAP
20
60
20
20
20
F8
60
A0
40
70
ENDCHAR
STARTCHAR 00BE
ENCODING 190
SWIDTH 540 0
DWIDTH 6 0
BBX 5 9 1 -2
BITMAP
60
20
20
60
F8
20
E0
F0
20
ENDCHAR
STARTCHAR 00BF
ENCODING 191
SWIDTH 540 0
DWIDTH 6 0
BBX 4 9 1 -2
BITMAP
20
00
20
20
40
80
90
90
60
ENDCHAR
STARTCHAR 00C0
ENCODING 192
SWIDTH 630 0
DWIDTH 7 0
BBX 7 10 0 -1
BITMAP
10
10
30
28
28
44
7C
44
82
82
ENDCHAR
STARTCHAR 00C1
ENCODING 193
SWIDTH 630 0
DWIDTH 7 0
BBX 7 10 0 -1
BITMAP
10
10
30
28
28
44
7C
44
82
82
ENDCHAR
STARTCHAR 00C2
ENCODING 194
SWIDTH 630 0
DWIDTH 7 0
BBX 7 10 0 -1
BITMAP
38
10
30
28
28
44
7C
44
82
82
ENDCHAR
STARTCHAR 00C3
ENCODING 195
SWIDTH 630 0
DWIDTH 7 0
BBX 7 10 0 -1
BITMAP
38
10
30
28
28
44
7C
44
82
82
ENDCHAR
STARTCHAR 00C4
ENCODING 196
SWIDTH 630 0
DWIDTH 7 0
BBX 7 10 0 -1
BITMAP
28
10
30
28
28
44
7C
44
82
82
ENDCHAR
STARTCHAR 00C5
ENCODING 197
SWIDTH 630 0
DWIDTH 7 0
BBX 7 10 0 -1
BITMAP
10
30
30
28
28
48
7C
44
82
82
ENDCHAR
STARTCHAR 00C6
ENCODING 198
SWIDTH 900 0
DWIDTH 10 0
BBX 10 9 0 -1
BITMAP
0FC0
0C00
1400
1400
2780
3C00
4400
47C0
8000
ENDCHAR
STARTCHAR 00C7
ENCODING 199
SWIDTH 720 0
DWIDTH 8 0
BBX 6 10 1 -2
BITMAP
78
C4
84
80
80
80
84
78
10
30
ENDCHAR
STARTCHAR 00C8
ENCODING 200
SWIDTH 630 0
DWIDTH 7 0
BBX 5 9 1 0
BITMAP
20
F8
80
80
80
F8
80
80
F8
ENDCHAR
STARTCHAR 00C9
ENCODING 201
SWIDTH 630 0
DWIDTH 7 0
BBX 5 9 1 0
BITMAP
20
F8
80
80
80
F8
80
80
F8
ENDCHAR
STARTCHAR 00CA
ENCODING 202
SWIDTH 630 0
DWIDTH 7 0
BBX 5 9 1 0
BITMAP
70
F8
80
80
80
F8
80
80
F8
ENDCHAR
STARTCHAR 00CB
ENCODING 203
SWIDTH 630 0
DWIDTH 7 0
BBX 5 9 1 0
BITMAP
50
F8
80
80
80
F8
80
80
F8
ENDCHAR
STARTCHAR 00CC
ENCODING 204
SWIDTH 270 0
DWIDTH 3 0
BBX 1 9 1 0
BITMAP
80
80
80
80
80
80
80
80
80
ENDCHAR
STARTCHAR 00CD
ENCODING 205
SWIDTH 270 0
DWIDTH 3 0
BBX 1 9 1 0
BITMAP
80
80
80
80
80
80
80
80
80
ENDCHAR
STARTCHAR 00CE
ENCODING 206
SWIDTH 270 0
DWIDTH 3 0
BBX 3 9 0 0
BITMAP
E0
40
40
40
40
40
40
40
40
ENDCHAR
STARTCHAR 00CF
ENCODING 207
SWIDTH 270 0
DWIDTH 3 0
BBX 3 9 0 0
BITMAP
A0
40
40
40
40
40
40
40
40
ENDCHAR
STARTCHAR 00D0
ENCODING 208
SWIDTH 720 0
DWIDTH 8 0
BBX 7 8 0 0
BITMAP
7C
42
42
42
F2
42
42
7C
ENDCHAR
STARTCHAR 00D1
ENCODING 209
SWIDTH 720 0
DWIDTH 8 0
BBX 6 9 1 0
BITMAP
38
84
C4
C4
A4
94
94
8C
84
ENDCHAR
STARTCHAR 00D2
ENCODING 210
SWIDTH 810 0
DWIDTH 9 0
BBX 7 10 1 -1
BITMAP
30
78
C4
82
82
82
82
82
C4
78
ENDCHAR
STARTCHAR 00D3
ENCODING 211
SWIDTH 810 0
DWIDTH 9 0
BBX 7 10 1 -1
BITMAP
20
78
C4
82
82
82
82
82
C4
78
ENDCHAR
STARTCHAR 00D4
ENCODING 212
SWIDTH 810 0
DWIDTH 9 0
BBX 7 10 1 -1
BITMAP
30
78
C4
82
82
82
82
82
C4
78
ENDCHAR
STARTCHAR 00D5
ENCODING 213
SWIDTH 810 0
DWIDTH 9 0
BBX 7 10 1 -1
BITMAP
38
78
C4
82
82
82
82
82
C4
78
ENDCHAR
STARTCHAR 00D6
ENCODING 214
SWIDTH 810 0
DWIDTH 9 0
BBX 7 10 1 -1
BITMAP
28
78
C4
82
82
82
82
82
C4
78
ENDCHAR
STARTCHAR 00D7
ENCODING 215
SWIDTH 810 0
DWIDTH 9 0
BBX 5 5 2 2
BITMAP
88
50
20
50
88
ENDCHAR
STARTCHAR 00D8
ENCODING 216
SWIDTH 810 0
DWIDTH 9 0
BBX 7 9 1 -1
BITMAP
7C
C4
8C
8A
92
A2
C2
C4
78
ENDCHAR
STARTCHAR 00D9
ENCODING 217
SWIDTH 720 0
DWIDTH 8 0
BBX 6 10 1 -1
BITMAP
20
00
84
84
84
84
84
84
84
78
ENDCHAR
STARTCHAR 00DA
ENCODING 218
SWIDTH 720 0
DWIDTH 8 0
BBX 6 10 1 -1
BITMAP
30
00
84
84
84
84
84
84
84
78
ENDCHAR
STARTCHAR 00DB
ENCODING 219
SWIDTH 720 0
DWIDTH 8 0
BBX 6 10 1 -1
BITMAP
30
00
84
84
84
84
84
84
84
78
ENDCHAR
STARTCHAR 00DC
ENCODING 220
SWIDTH 720 0
DWIDTH 8 0
BBX 6 10 1 -1
BITMAP
78
00
84
84
84
84
84
84
84
78
ENDCHAR
STARTCHAR 00DD
ENCODING 221
SWIDTH 630 0
DWIDTH 7 0
BBX 6 9 0 0
BITMAP
10
80
44
48
30
10
10
10
10
ENDCHAR
STARTCHAR 00DE
ENCODING 222
SWIDTH 540 0
DWIDTH 6 0
BBX 5 8 1 -1
BITMAP
80
E0
90
88
90
E0
80
80
ENDCHAR
STARTCHAR 00DF
ENCODING 223
SWIDTH 630 0
DWIDTH 7 0
BBX 5 9 1 -1
BITMAP
70
90
90
90
90
88
88
C8
30
ENDCHAR
STARTCHAR 00E0
ENCODING 224
SWIDTH 540 0
DWIDTH 6 0
BBX 5 9 1 -1
BITMAP
40
20
70
90
10
70
90
A8
C0
ENDCHAR
STARTCHAR 00E1
ENCODING 225
SWIDTH 540 0
DWIDTH 6 0
BBX 5 9 1 -1
BITMAP
20
40
70
90
10
70
90
A8
C0
ENDCHAR
STARTCHAR 00E2
ENCODING 226
SWIDTH 540 0
DWIDTH 6 0
BBX 5 9 1 -1
BITMAP
60
10
70
90
10
70
90
A8
C0
ENDCHAR
STARTCHAR 00E3
ENCODING 227
SWIDTH 540 0
DWIDTH 6 0
BBX 5 9 1 -1
BITMAP
40
30
70
90
10
70
90
A8
C0
ENDCHAR
STARTCHAR 00E4
ENCODING 228
SWIDTH 540 0
DWIDTH 6 0
BBX 5 8 1 -1
BITMAP
50
70
90
10
70
90
A8
C0
ENDCHAR
STARTCHAR 00E5
ENCODING 229
SWIDTH 540 0
DWIDTH 6 0
BBX 5 9 1 -1
BITMAP
60
60
70
90
10
70
90
A8
C0
ENDCHAR
STARTCHAR 00E6
ENCODING 230
SWIDTH 810 0
DWIDTH 9 0
BBX 7 7 1 -1
BITMAP
7C
92
1E
E0
92
92
EC
ENDCHAR
STARTCHAR 00E7
ENCODING 231
SWIDTH 540 0
DWIDTH 6 0
BBX 5 8 1 -2
BITMAP
70
90
88
80
90
F0
20
60
ENDCHAR
STARTCHAR 00E8
ENCODING 232
SWIDTH 540 0
DWIDTH 6 0
BBX 5 9 1 -1
BITMAP
40
20
60
90
90
F8
80
90
60
ENDCHAR
STARTCHAR 00E9
ENCODING 233
SWIDTH 540 0
DWIDTH 6 0
BBX 5 9 1 -1
BITMAP
20
40
60
90
90
F8
80
90
60
ENDCHAR
STARTCHAR 00EA
ENCODING 234
SWIDTH 540 0
DWIDTH 6 0
BBX 5 9 1 -1
BITMAP
60
10
60
90
90
F8
80
90
60
ENDCHAR
STARTCHAR 00EB
ENCODING 235
SWIDTH 540 0
DWIDTH 6 0
BBX 5 9 1 -1
BITMAP
50
00
60
90
90
F8
80
90
60
ENDCHAR
STARTCHAR 00EC
ENCODING 236
SWIDTH 270 0
DWIDTH 3 0
BBX 1 8 1 0
BITMAP
80
80
80
80
80
80
80
80
ENDCHAR
STARTCHAR 00ED
ENCODING 237
SWIDTH 270 0
DWIDTH 3 0
BBX 1 8 1 0
BITMAP
80
00
80
80
80
80
80
80
ENDCHAR
STARTCHAR 00EE
ENCODING 238
SWIDTH 270 0
DWIDTH 3 0
BBX 3 8 0 0
BITMAP
40
A0
40
40
40
40
40
40
ENDCHAR
STARTCHAR 00EF
ENCODING 239
SWIDTH 270 0
DWIDTH 3 0
BBX 3 7 0 0
BITMAP
A0
40
40
40
40
40
40
ENDCHAR
STARTCHAR 00F0
ENCODING 240
SWIDTH 630 0
DWIDTH 7 0
BBX 5 8 1 0
BITMAP
30
50
78
88
88
88
88
70
ENDCHAR
STARTCHAR 00F1
ENCODING 241
SWIDTH 630 0
DWIDTH 7 0
BBX 5 9 1 -1
BITMAP
40
30
B0
D0
88
88
88
88
80
ENDCHAR
STARTCHAR 00F2
ENCODING 242
SWIDTH 630 0
DWIDTH 7 0
BBX 5 9 1 -1
BITMAP
40
20
70
88
88
88
88
88
70
ENDCHAR
STARTCHAR 00F3
ENCODING 243
SWIDTH 630 0
DWIDTH 7 0
BBX 5 9 1 -1
BITMAP
20
40
70
88
88
88
88
88
70
ENDCHAR
STARTCHAR 00F4
ENCODING 244
SWIDTH 630 0
DWIDTH 7 0
BBX 5 9 1 -1
BITMAP
20
50
70
88
88
88
88
88
70
ENDCHAR
STARTCHAR 00F5
ENCODING 245
SWIDTH 630 0
DWIDTH 7 0
BBX 5 9 1 -1
BITMAP
40
30
70
88
88
88
88
88
70
ENDCHAR
STARTCHAR 00F6
ENCODING 246
SWIDTH 630 0
DWIDTH 7 0
BBX 5 8 1 -1
BITMAP
50
70
88
88
88
88
88
70
ENDCHAR
STARTCHAR 00F7
ENCODING 247
SWIDTH 810 0
DWIDTH 9 0
BBX 7 6 1 1
BITMAP
10
00
00
FE
00
10
ENDCHAR
STARTCHAR 00F8
ENCODING 248
SWIDTH 630 0
DWIDTH 7 0
BBX 5 7 1 -1
BITMAP
70
98
A8
A8
C8
88
F0
ENDCHAR
STARTCHAR 00F9
ENCODING 249
SWIDTH 540 0
DWIDTH 6 0
BBX 4 9 1 -1
BITMAP
40
20
00
90
90
90
90
90
60
ENDCHAR
STARTCHAR 00FA
ENCODING 250
SWIDTH 540 0
DWIDTH 6 0
BBX 4 9 1 -1
BITMAP
20
40
00
90
90
90
90
90
60
ENDCHAR
STARTCHAR 00FB
ENCODING 251
SWIDTH 540 0
DWIDTH 6 0
BBX 4 9 1 -1
BITMAP
60
50
00
90
90
90
90
90
60
ENDCHAR
STARTCHAR 00FC
ENCODING 252
SWIDTH 540 0
DWIDTH 6 0
BBX 4 8 1 -1
BITMAP
70
00
90
90
90
90
90
60
ENDCHAR
STARTCHAR 00FD
ENCODING 253
SWIDTH 540 0
DWIDTH 6 0
BBX 5 10 0 -2
BITMAP
10
20
88
88
50
50
20
20
20
C0
ENDCHAR
STARTCHAR 00FE
ENCODING 254
SWIDTH 630 0
DWIDTH 7 0
BBX 5 10 1 -2
BITMAP
80
80
F0
88
88
88
88
88
F0
80
ENDCHAR
STARTCHAR 00FF
ENCODING 255
SWIDTH 540 0
DWIDTH 6 0
BBX 5 9 0 -2
BITMAP
50
88
88
50
50
20
20
20
C0
ENDCHAR
STARTCHAR 0100
ENCODING 256
SWIDTH 630 0
DWIDTH 7 0
BBX 7 10 0 -1
BITMAP
38
10
30
28
28
44
7C
44
82
82
ENDCHAR
STARTCHAR 0101
ENCODING 257
SWIDTH 540 0
DWIDTH 6 0
BBX 5 8 1 -1
BITMAP
70
70
90
10
70
90
A8
C0
ENDCHAR
STARTCHAR 0102
ENCODING 258
SWIDTH 630 0
DWIDTH 7 0
BBX 7 11 0 -1
BITMAP
20
18
10
30
28
28
44
7C
44
82
82
ENDCHAR
STARTCHAR 0103
ENCODING 259
SWIDTH 540 0
DWIDTH 6 0
BBX 5 9 1 -1
BITMAP
10
60
70
90
10
70
90
A8
C0
ENDCHAR
STARTCHAR 0104
ENCODING 260
SWIDTH 630 0
DWIDTH 7 0
BBX 7 10 0 -2
BITMAP
10
28
28
28
44
7C
44
82
84
06
ENDCHAR
STARTCHAR 0105
ENCODING 261
SWIDTH 540 0
DWIDTH 6 0
BBX 5 8 1 -2
BITMAP
70
90
10
70
90
98
F0
18
ENDCHAR
STARTCHAR 0106
ENCODING 262
SWIDTH 720 0
DWIDTH 8 0
BBX 6 10 1 -1
BITMAP
20
78
44
84
80
80
80
84
C4
78
ENDCHAR
STARTCHAR 0107
ENCODING 263
SWIDTH 540 0
DWIDTH 6 0
BBX 5 9 1 -1
BITMAP
20
40
70
90
80
80
88
90
70
ENDCHAR
STARTCHAR 0108
ENCODING 264
SWIDTH 720 0
DWIDTH 8 0
BBX 6 10 1 -1
BITMAP
30
78
44
84
80
80
80
84
C4
78
ENDCHAR
STARTCHAR 0109
ENCODING 265
SWIDTH 540 0
DWIDTH 6 0
BBX 5 9 1 -1
BITMAP
20
50
70
90
80
80
88
90
70
ENDCHAR
STARTCHAR 010A
ENCODING 266
SWIDTH 720 0
DWIDTH 8 0
BBX 6 10 1 -1
BITMAP
10
78
44
84
80
80
80
84
C4
78
ENDCHAR
STARTCHAR 010B
ENCODING 267
SWIDTH 540 0
DWIDTH 6 0
BBX 5 8 1 -1
BITMAP
20
70
90
80
80
88
90
70
ENDCHAR
STARTCHAR 010C
ENCODING 268
SWIDTH 720 0
DWIDTH 8 0
BBX 6 10 1 -1
BITMAP
30
78
44
84
80
80
80
84
C4
78
ENDCHAR
STARTCHAR 010D
ENCODING 269
SWIDTH 540 0
DWIDTH 6 0
BBX 5 9 1 -1
BITMAP
50
20
70
90
80
80
88
90
70
ENDCHAR
STARTCHAR 010E
ENCODING 270
SWIDTH 720 0
DWIDTH 8 0
BBX 6 9 1 0
BITMAP
70
F8
8C
84
84
84
84
8C
F8
ENDCHAR
STARTCHAR 010F
ENCODING 271
SWIDTH 630 0
DWIDTH 7 0
BBX 5 10 1 -1
BITMAP
18
08
08
78
98
88
88
88
98
78
ENDCHAR
STARTCHAR 0110
ENCODING 272
SWIDTH 720 0
DWIDTH 8 0
BBX 7 8 0 0
BITMAP
7C
42
42
42
F2
42
42
7C
ENDCHAR
STARTCHAR 0111
ENCODING 273
SWIDTH 630 0
DWIDTH 7 0
BBX 6 9 1 -1
BITMAP
08
3C
78
98
88
88
88
98
78
ENDCHAR
STARTCHAR 0112
ENCODING 274
SWIDTH 630 0
DWIDTH 7 0
BBX 5 9 1 0
BITMAP
70
F8
80
80
80
F8
80
80
F8
ENDCHAR
STARTCHAR 0113
ENCODING 275
SWIDTH 540 0
DWIDTH 6 0
BBX 5 8 1 -1
BITMAP
70
60
90
90
F8
80
90
60
ENDCHAR
STARTCHAR 0114
ENCODING 276
SWIDTH 630 0
DWIDTH 7 0
BBX 5 10 1 0
BITMAP
40
30
F8
80
80
80
F8
80
80
F8
ENDCHAR
STARTCHAR 0115
ENCODING 277
SWIDTH 540 0
DWIDTH 6 0
BBX 5 9 1 -1
BITMAP
10
60
60
90
90
F8
80
90
60
ENDCHAR
STARTCHAR 0116
ENCODING 278
SWIDTH 630 0
DWIDTH 7 0
BBX 5 9 1 0
BITMAP
20
F8
80
80
80
F8
80
80
F8
ENDCHAR
STARTCHAR 0117
ENCODING 279
SWIDTH 540 0
DWIDTH 6 0
BBX 5 8 1 -1
BITMAP
60
60
90
90
F8
80
90
60
ENDCHAR
STARTCHAR 0118
ENCODING 280
SWIDTH 630 0
DWIDTH 7 0
BBX 5 10 1 -2
BITMAP
F8
80
80
80
F8
80
80
F8
20
30
ENDCHAR
STARTCHAR 0119
ENCODING 281
SWIDTH 540 0
DWIDTH 6 0
BBX 5 8 1 -2
BITMAP
60
90
90
F8
80
90
60
30
ENDCHAR
STARTCHAR 011A
ENCODING 282
SWIDTH 630 0
DWIDTH 7 0
BBX 5 9 1 0
BITMAP
30
F8
80
80
80
F8
80
80
F8
ENDCHAR
STARTCHAR 011B
ENCODING 283
SWIDTH 540 0
DWIDTH 6 0
BBX 5 9 1 -1
BITMAP
50
20
60
90
90
F8
80
90
60
ENDCHAR
STARTCHAR 011C
ENCODING 284
SWIDTH 810 0
DWIDTH 9 0
BBX 7 10 1 -1
BITMAP
30
38
44
82
80
9E
82
82
46
3A
ENDCHAR
STARTCHAR 011D
ENCODING 285
SWIDTH 630 0
DWIDTH 7 0
BBX 5 10 1 -2
BITMAP
60
50
78
98
88
88
98
78
88
F0
ENDCHAR
STARTCHAR 011E
ENCODING 286
SWIDTH 810 0
DWIDTH 9 0
BBX 7 11 1 -1
BITMAP
08
30
38
44
82
80
9E
82
82
46
3A
ENDCHAR
STARTCHAR 011F
ENCODING 287
SWIDTH 630 0
DWIDTH 7 0
BBX 5 10 1 -2
BITMAP
10
60
78
98
88
88
98
78
88
F0
ENDCHAR
STARTCHAR 0120
ENCODING 288
SWIDTH 810 0
DWIDTH 9 0
BBX 7 10 1 -1
BITMAP
10
38
44
82
80
9E
82
82
46
3A
ENDCHAR
STARTCHAR 0121
ENCODING 289
SWIDTH 630 0
DWIDTH 7 0
BBX 5 9 1 -2
BITMAP
20
78
98
88
88
98
78
88
F0
ENDCHAR
STARTCHAR 0122
ENCODING 290
SWIDTH 810 0
DWIDTH 9 0
BBX 7 10 1 -2
BITMAP
78
C4
82
80
9E
82
C6
7A
10
30
ENDCHAR
STARTCHAR 0123
ENCODING 291
SWIDTH 630 0
DWIDTH 7 0
BBX 5 9 1 -1
BITMAP
20
78
98
88
88
98
78
88
F0
ENDCHAR
STARTCHAR 0124
ENCODING 292
SWIDTH 720 0
DWIDTH 8 0
BBX 6 10 1 -1
BITMAP
30
00
84
84
84
FC
84
84
84
84
ENDCHAR
STARTCHAR 0125
ENCODING 293
SWIDTH 540 0
DWIDTH 6 0
BBX 5 9 0 -1
BITMAP
E0
40
40
78
48
48
48
48
48
ENDCHAR
STARTCHAR 0126
ENCODING 294
SWIDTH 720 0
DWIDTH 8 0
BBX 8 8 0 -1
BITMAP
42
FF
42
7E
42
42
42
42
ENDCHAR
STARTCHAR 0127
ENCODING 295
SWIDTH 540 0
DWIDTH 6 0
BBX 5 8 0 0
BITMAP
40
F0
78
48
48
48
48
48
ENDCHAR
STARTCHAR 0128
ENCODING 296
SWIDTH 270 0
DWIDTH 3 0
BBX 3 9 0 0
BITMAP
E0
40
40
40
40
40
40
40
40
ENDCHAR
STARTCHAR 0129
ENCODING 297
SWIDTH 270 0
DWIDTH 3 0
BBX 3 7 0 0
BITMAP
E0
40
40
40
40
40
40
ENDCHAR
STARTCHAR 012A
ENCODING 298
SWIDTH 270 0
DWIDTH 3 0
BBX 3 9 0 0
BITMAP
E0
40
40
40
40
40
40
40
40
ENDCHAR
STARTCHAR 012B
ENCODING 299
SWIDTH 270 0
DWIDTH 3 0
BBX 3 7 0 0
BITMAP
E0
40
40
40
40
40
40
ENDCHAR
STARTCHAR 012C
ENCODING 300
SWIDTH 270 0
DWIDTH 3 0
BBX 3 10 0 0
BITMAP
80
60
40
40
40
40
40
40
40
40
ENDCHAR
STARTCHAR 012D
ENCODING 301
SWIDTH 270 0
DWIDTH 3 0
BBX 3 8 0 0
BITMAP
A0
C0
40
40
40
40
40
40
ENDCHAR
STARTCHAR 012E
ENCODING 302
SWIDTH 270 0
DWIDTH 3 0
BBX 1 10 1 -2
BITMAP
80
80
80
80
80
80
80
80
80
80
ENDCHAR
STARTCHAR 012F
ENCODING 303
SWIDTH 270 0
DWIDTH 3 0
BBX 2 10 0 -2
BITMAP
40
00
40
40
40
40
40
40
80
40
ENDCHAR
STARTCHAR 0130
ENCODING 304
SWIDTH 270 0
DWIDTH 3 0
BBX 1 9 1 0
BITMAP
80
80
80
80
80
80
80
80
80
ENDCHAR
STARTCHAR 0131
ENCODING 305
SWIDTH 270 0
DWIDTH 3 0
BBX 1 6 1 0
BITMAP
80
80
80
80
80
80
ENDCHAR
STARTCHAR 0132
ENCODING 306
SWIDTH 720 0
DWIDTH 8 0
BBX 6 9 1 -1
BITMAP
80
84
84
84
84
84
84
A4
18
ENDCHAR
STARTCHAR 0133
ENCODING 307
SWIDTH 540 0
DWIDTH 6 0
BBX 4 10 1 -2
BITMAP
90
00
90
90
90
90
90
90
10
20
ENDCHAR
STARTCHAR 0134
ENCODING 308
SWIDTH 540 0
DWIDTH 6 0
BBX 5 10 0 -1
BITMAP
18
00
10
10
10
10
10
10
90
70
ENDCHAR
STARTCHAR 0135
ENCODING 309
SWIDTH 270 0
DWIDTH 3 0
BBX 3 10 0 -2
BITMAP
40
A0
40
40
40
40
40
40
40
80
ENDCHAR
STARTCHAR 0136
ENCODING 310
SWIDTH 630 0
DWIDTH 7 0
BBX 6 10 1 -2
BITMAP
88
90
A0
A0
E0
90
88
84
30
30
ENDCHAR
STARTCHAR 0137
ENCODING 311
SWIDTH 540 0
DWIDTH 6 0
BBX 4 10 1 -2
BITMAP
80
80
90
A0
C0
A0
A0
90
60
60
ENDCHAR
STARTCHAR 0138
ENCODING 312
SWIDTH 540 0
DWIDTH 6 0
BBX 4 6 1 0
BITMAP
90
A0
C0
C0
A0
90
ENDCHAR
STARTCHAR 0139
ENCODING 313
SWIDTH 540 0
DWIDTH 6 0
BBX 5 9 1 0
BITMAP
C0
80
80
80
80
80
80
80
F8
ENDCHAR
STARTCHAR 013A
ENCODING 314
SWIDTH 270 0
DWIDTH 3 0
BBX 1 9 1 0
BITMAP
80
80
80
80
80
80
80
80
80
ENDCHAR
STARTCHAR 013B
ENCODING 315
SWIDTH 540 0
DWIDTH 6 0
BBX 5 10 1 -2
BITMAP
80
80
80
80
80
80
80
F8
30
20
ENDCHAR
STARTCHAR 013C
ENCODING 316
SWIDTH 270 0
DWIDTH 3 0
BBX 2 10 1 -2
BITMAP
80
80
80
80
80
80
80
80
C0
80
ENDCHAR
STARTCHAR 013D
ENCODING 317
SWIDTH 540 0
DWIDTH 6 0
BBX 6 9 0 0
BITMAP
A0
40
40
40
40
40
40
40
7C
ENDCHAR
STARTCHAR 013E
ENCODING 318
SWIDTH 270 0
DWIDTH 3 0
BBX 1 9 1 0
BITMAP
80
80
80
80
80
80
80
80
80
ENDCHAR
STARTCHAR 013F
ENCODING 319
SWIDTH 540 0
DWIDTH 6 0
BBX 5 8 1 0
BITMAP
80
80
80
90
80
80
80
F8
ENDCHAR
STARTCHAR 0140
ENCODING 320
SWIDTH 270 0
DWIDTH 3 0
BBX 2 8 1 0
BITMAP
80
80
80
C0
80
80
80
80
ENDCHAR
STARTCHAR 0141
ENCODING 321
SWIDTH 540 0
DWIDTH 6 0
BBX 6 8 0 0
BITMAP
40
50
60
60
40
C0
40
7C
ENDCHAR
STARTCHAR 0142
ENCODING 322
SWIDTH 270 0
DWIDTH 3 0
BBX 3 8 0 0
BITMAP
40
40
60
40
C0
40
40
40
ENDCHAR
STARTCHAR 0143
ENCODING 323
SWIDTH 720 0
DWIDTH 8 0
BBX 6 9 1 0
BITMAP
30
84
C4
C4
A4
94
94
8C
84
ENDCHAR
STARTCHAR 0144
ENCODING 324
SWIDTH 630 0
DWIDTH 7 0
BBX 5 9 1 -1
BITMAP
20
40
B0
D0
88
88
88
88
80
ENDCHAR
STARTCHAR 0145
ENCODING 325
SWIDTH 720 0
DWIDTH 8 0
BBX 6 10 1 -2
BITMAP
84
C4
C4
A4
94
94
8C
84
30
30
ENDCHAR
STARTCHAR 0146
ENCODING 326
SWIDTH 630 0
DWIDTH 7 0
BBX 5 8 1 -2
BITMAP
B0
D0
88
88
88
88
A0
60
ENDCHAR
STARTCHAR 0147
ENCODING 327
SWIDTH 720 0
DWIDTH 8 0
BBX 6 9 1 0
BITMAP
30
84
C4
C4
A4
94
94
8C
84
ENDCHAR
STARTCHAR 0148
ENCODING 328
SWIDTH 630 0
DWIDTH 7 0
BBX 5 9 1 -1
BITMAP
50
20
B0
D0
88
88
88
88
80
ENDCHAR
STARTCHAR 0149
ENCODING 329
SWIDTH 720 0
DWIDTH 8 0
BBX 6 9 1 -1
BITMAP
80
80
58
68
44
44
44
44
40
ENDCHAR
STARTCHAR 014A
ENCODING 330
SWIDTH 720 0
DWIDTH 8 0
BBX 6 10 1 -2
BITMAP
84
C4
C4
A4
94
94
8C
84
04
18
ENDCHAR
STARTCHAR 014B
ENCODING 331
SWIDTH 630 0
DWIDTH 7 0
BBX 5 8 1 -2
BITMAP
B0
C8
88
88
88
88
A8
30
ENDCHAR
STARTCHAR 014C
ENCODING 332
SWIDTH 810 0
DWIDTH 9 0
BBX 7 10 1 -1
BITMAP
38
78
C4
82
82
82
82
82
C4
78
ENDCHAR
STARTCHAR 014D
ENCODING 333
SWIDTH 630 0
DWIDTH 7 0
BBX 5 8 1 -1
BITMAP
70
70
88
88
88
88
88
70
ENDCHAR
STARTCHAR 014E
ENCODING 334
SWIDTH 810 0
DWIDTH 9 0
BBX 7 10 1 -1
BITMAP
38
78
C4
82
82
82
82
82
C4
78
ENDCHAR
STARTCHAR 014F
ENCODING 335
SWIDTH 630 0
DWIDTH 7 0
BBX 5 9 1 -1
BITMAP
10
60
70
88
88
88
88
88
70
ENDCHAR
STARTCHAR 0150
ENCODING 336
SWIDTH 810 0
DWIDTH 9 0
BBX 7 10 1 -1
BITMAP
28
78
C4
82
82
82
82
82
C4
78
ENDCHAR
STARTCHAR 0151
ENCODING 337
SWIDTH 630 0
DWIDTH 7 0
BBX 5 9 1 -1
BITMAP
30
60
70
88
88
88
88
88
70
ENDCHAR
STARTCHAR 0152
ENCODING 338
SWIDTH 990 0
DWIDTH 11 0
BBX 9 9 1 -1
BITMAP
7F80
8800
8800
8800
8780
8800
8800
8F80
7000
ENDCHAR
STARTCHAR 0153
ENCODING 339
SWIDTH 900 0
DWIDTH 10 0
BBX 8 7 1 -1
BITMAP
6E
99
91
8F
91
99
6E
ENDCHAR
STARTCHAR 0154
ENCODING 340
SWIDTH 720 0
DWIDTH 8 0
BBX 6 10 1 -1
BITMAP
20
F8
84
84
84
F8
88
88
84
84
ENDCHAR
STARTCHAR 0155
ENCODING 341
SWIDTH 360 0
DWIDTH 4 0
BBX 2 8 1 0
BITMAP
40
80
C0
80
80
80
80
80
ENDCHAR
STARTCHAR 0156
ENCODING 342
SWIDTH 720 0
DWIDTH 8 0
BBX 6 10 1 -2
BITMAP
F8
84
84
84
F8
88
88
84
B4
30
ENDCHAR
STARTCHAR 0157
ENCODING 343
SWIDTH 360 0
DWIDTH 4 0
BBX 2 8 1 -2
BITMAP
C0
80
80
80
80
80
80
80
ENDCHAR
STARTCHAR 0158
ENCODING 344
SWIDTH 720 0
DWIDTH 8 0
BBX 6 10 1 -1
BITMAP
30
F8
84
84
84
F8
88
88
84
84
ENDCHAR
STARTCHAR 0159
ENCODING 345
SWIDTH 360 0
DWIDTH 4 0
BBX 2 8 1 0
BITMAP
40
C0
C0
80
80
80
80
80
ENDCHAR
STARTCHAR 015A
ENCODING 346
SWIDTH 630 0
DWIDTH 7 0
BBX 5 10 1 -1
BITMAP
20
70
88
80
80
60
18
08
88
70
ENDCHAR
STARTCHAR 015B
ENCODING 347
SWIDTH 540 0
DWIDTH 6 0
BBX 4 9 1 -1
BITMAP
20
40
E0
90
80
60
10
90
E0
ENDCHAR
STARTCHAR 015C
ENCODING 348
SWIDTH 630 0
DWIDTH 7 0
BBX 5 10 1 -1
BITMAP
70
70
88
80
80
60
18
08
88
70
ENDCHAR
STARTCHAR 015D
ENCODING 349
SWIDTH 540 0
DWIDTH 6 0
BBX 4 9 1 -1
BITMAP
60
A0
E0
90
80
60
10
90
E0
ENDCHAR
STARTCHAR 015E
ENCODING 350
SWIDTH 630 0
DWIDTH 7 0
BBX 5 10 1 -2
BITMAP
70
88
80
40
30
08
88
78
30
20
ENDCHAR
STARTCHAR 015F
ENCODING 351
SWIDTH 540 0
DWIDTH 6 0
BBX 4 8 1 -2
BITMAP
E0
90
80
70
90
F0
60
60
ENDCHAR
STARTCHAR 0160
ENCODING 352
SWIDTH 630 0
DWIDTH 7 0
BBX 5 10 1 -1
BITMAP
30
70
88
80
80
60
18
08
88
70
ENDCHAR
STARTCHAR 0161
ENCODING 353
SWIDTH 540 0
DWIDTH 6 0
BBX 4 9 1 -1
BITMAP
A0
40
E0
90
80
60
10
90
E0
ENDCHAR
STARTCHAR 0162
ENCODING 354
SWIDTH 540 0
DWIDTH 6 0
BBX 6 10 0 -2
BITMAP
FC
20
20
20
20
20
20
20
10
30
ENDCHAR
STARTCHAR 0163
ENCODING 355
SWIDTH 360 0
DWIDTH 4 0
BBX 3 10 0 -2
BITMAP
40
40
E0
40
40
40
40
60
60
60
ENDCHAR
STARTCHAR 0164
ENCODING 356
SWIDTH 540 0
DWIDTH 6 0
BBX 6 9 0 0
BITMAP
30
FC
20
20
20
20
20
20
20
ENDCHAR
STARTCHAR 0165
ENCODING 357
SWIDTH 360 0
DWIDTH 4 0
BBX 3 10 0 -1
BITMAP
A0
40
40
E0
40
40
40
40
40
60
ENDCHAR
STARTCHAR 0166
ENCODING 358
SWIDTH 540 0
DWIDTH 6 0
BBX 6 8 0 -1
BITMAP
FC
20
20
78
20
20
20
20
ENDCHAR
STARTCHAR 0167
ENCODING 359
SWIDTH 360 0
DWIDTH 4 0
BBX 3 9 0 -1
BITMAP
40
40
E0
40
E0
40
40
40
60
ENDCHAR
STARTCHAR 0168
ENCODING 360
SWIDTH 720 0
DWIDTH 8 0
BBX 6 10 1 -1
BITMAP
70
00
84
84
84
84
84
84
84
78
ENDCHAR
STARTCHAR 0169
ENCODING 361
SWIDTH 540 0
DWIDTH 6 0
BBX 4 9 1 -1
BITMAP
40
30
00
90
90
90
90
90
60
ENDCHAR
STARTCHAR 016A
ENCODING 362
SWIDTH 720 0
DWIDTH 8 0
BBX 6 10 1 -1
BITMAP
30
00
84
84
84
84
84
84
84
78
ENDCHAR
STARTCHAR 016B
ENCODING 363
SWIDTH 540 0
DWIDTH 6 0
BBX 4 8 1 -1
BITMAP
70
00
90
90
90
90
90
60
ENDCHAR
STARTCHAR 016C
ENCODING 364
SWIDTH 720 0
DWIDTH 8 0
BBX 6 10 1 0
BITMAP
30
00
84
84
84
84
84
84
84
78
ENDCHAR
STARTCHAR 016D
ENCODING 365
SWIDTH 540 0
DWIDTH 6 0
BBX 4 9 1 -1
BITMAP
10
60
00
90
90
90
90
90
60
ENDCHAR
STARTCHAR 016E
ENCODING 366
SWIDTH 720 0
DWIDTH 8 0
BBX 6 10 1 -1
BITMAP
30
30
84
84
84
84
84
84
84
78
ENDCHAR
STARTCHAR 016F
ENCODING 367
SWIDTH 540 0
DWIDTH 6 0
BBX 4 9 1 -1
BITMAP
60
60
00
90
90
90
90
90
60
ENDCHAR
STARTCHAR 0170
ENCODING 368
SWIDTH 720 0
DWIDTH 8 0
BBX 6 10 1 -1
BITMAP
30
00
84
84
84
84
84
84
84
78
ENDCHAR
STARTCHAR 0171
ENCODING 369
SWIDTH 540 0
DWIDTH 6 0
BBX 4 9 1 -1
BITMAP
50
60
00
90
90
90
90
90
60
ENDCHAR
STARTCHAR 0172
ENCODING 370
SWIDTH 720 0
DWIDTH 8 0
BBX 6 10 1 -2
BITMAP
84
84
84
84
84
84
84
78
20
30
ENDCHAR
STARTCHAR 0173
ENCODING 371
SWIDTH 540 0
DWIDTH 6 0
BBX 5 8 1 -2
BITMAP
90
90
90
90
90
70
10
18
ENDCHAR
STARTCHAR 0174
ENCODING 372
SWIDTH 900 0
DWIDTH 10 0
BBX 9 9 0 0
BITMAP
0C00
8800
8C80
8C80
5480
5500
5300
2300
2200
ENDCHAR
STARTCHAR 0175
ENCODING 373
SWIDTH 720 0
DWIDTH 8 0
BBX 8 8 0 0
BITMAP
18
00
81
9A
5A
6A
24
24
ENDCHAR
STARTCHAR 0176
ENCODING 374
SWIDTH 630 0
DWIDTH 7 0
BBX 6 9 0 0
BITMAP
30
80
44
48
30
10
10
10
10
ENDCHAR
STARTCHAR 0177
ENCODING 375
SWIDTH 540 0
DWIDTH 6 0
BBX 5 10 0 -2
BITMAP
20
50
88
88
50
50
20
20
20
C0
ENDCHAR
STARTCHAR 0178
ENCODING 376
SWIDTH 630 0
DWIDTH 7 0
BBX 6 9 0 0
BITMAP
28
80
44
48
30
10
10
10
10
ENDCHAR
STARTCHAR 0179
ENCODING 377
SWIDTH 630 0
DWIDTH 7 0
BBX 6 9 0 0
BITMAP
10
7C
08
08
10
20
40
40
FC
ENDCHAR
STARTCHAR 017A
ENCODING 378
SWIDTH 540 0
DWIDTH 6 0
BBX 5 8 0 0
BITMAP
10
20
F8
10
20
40
40
F8
ENDCHAR
STARTCHAR 017B
ENCODING 379
SWIDTH 630 0
DWIDTH 7 0
BBX 6 9 0 0
BITMAP
10
7C
08
08
10
20
40
40
FC
ENDCHAR
STARTCHAR 017C
ENCODING 380
SWIDTH 540 0
DWIDTH 6 0
BBX 5 7 0 0
BITMAP
20
F8
10
20
40
40
F8
ENDCHAR
STARTCHAR 017D
ENCODING 381
SWIDTH 630 0
DWIDTH 7 0
BBX 6 9 0 0
BITMAP
38
7C
08
08
10
20
40
40
FC
ENDCHAR
STARTCHAR 017E
ENCODING 382
SWIDTH 540 0
DWIDTH 6 0
BBX 5 8 0 0
BITMAP
50
20
F8
10
20
40
40
F8
ENDCHAR
STARTCHAR 017F
ENCODING 383
SWIDTH 360 0
DWIDTH 4 0
BBX 3 9 0 -1
BITMAP
60
40
40
C0
40
40
40
40
40
ENDCHAR
STARTCHAR 0192
ENCODING 402
SWIDTH 360 0
DWIDTH 4 0
BBX 4 10 0 -2
BITMAP
30
20
20
70
20
20
20
20
A0
C0
ENDCHAR
STARTCHAR 01FA
ENCODING 506
SWIDTH 630 0
DWIDTH 7 0
BBX 7 9 0 0
BITMAP
10
10
10
30
28
48
7C
44
82
ENDCHAR
STARTCHAR 01FB
ENCODING 507
SWIDTH 540 0
DWIDTH 6 0
BBX 5 10 1 -1
BITMAP
40
60
60
70
90
10
70
90
A8
C0
ENDCHAR
STARTCHAR 01FC
ENCODING 508
SWIDTH 900 0
DWIDTH 10 0
BBX 10 10 0 -1
BITMAP
0200
0FC0
0C00
1400
1400
2780
3C00
4400
47C0
8000
ENDCHAR
STARTCHAR 01FD
ENCODING 509
SWIDTH 810 0
DWIDTH 9 0
BBX 7 9 1 -1
BITMAP
10
00
7C
92
1E
E0
92
92
EC
ENDCHAR
STARTCHAR 01FE
ENCODING 510
SWIDTH 810 0
DWIDTH 9 0
BBX 7 11 1 -2
BITMAP
20
7C
C4
8A
92
92
A2
C2
C4
F8
80
ENDCHAR
STARTCHAR 01FF
ENCODING 511
SWIDTH 630 0
DWIDTH 7 0
BBX 5 9 1 -1
BITMAP
20
00
70
98
A8
A8
C8
88
F0
ENDCHAR
STARTCHAR 02C6
ENCODING 710
SWIDTH 360 0
DWIDTH 4 0
BBX 3 2 1 6
BITMAP
C0
20
ENDCHAR
STARTCHAR 02C7
ENCODING 711
SWIDTH 360 0
DWIDTH 4 0
BBX 2 2 1 6
BITMAP
80
C0
ENDCHAR
STARTCHAR 02C9
ENCODING 713
SWIDTH 360 0
DWIDTH 4 0
BBX 3 1 1 6
BITMAP
E0
ENDCHAR
STARTCHAR 02D0
ENCODING 720
SWIDTH 990 0
DWIDTH 11 0
BBX 1 5 5 1
BITMAP
80
80
00
80
80
ENDCHAR
STARTCHAR 02D8
ENCODING 728
SWIDTH 360 0
DWIDTH 4 0
BBX 3 2 1 6
BITMAP
20
C0
ENDCHAR
STARTCHAR 02D9
ENCODING 729
SWIDTH 270 0
DWIDTH 3 0
BBX 1 1 1 7
BITMAP
80
ENDCHAR
STARTCHAR 02DA
ENCODING 730
SWIDTH 270 0
DWIDTH 3 0
BBX 2 2 1 6
BITMAP
C0
C0
ENDCHAR
STARTCHAR 02DB
ENCODING 731
SWIDTH 270 0
DWIDTH 3 0
BBX 1 2 1 -2
BITMAP
80
80
ENDCHAR
STARTCHAR 02DC
ENCODING 732
SWIDTH 450 0
DWIDTH 5 0
BBX 3 2 1 6
BITMAP
C0
20
ENDCHAR
STARTCHAR 02DD
ENCODING 733
SWIDTH 450 0
DWIDTH 5 0
BBX 3 2 1 6
BITMAP
A0
C0
ENDCHAR
STARTCHAR 037E
ENCODING 894
SWIDTH 450 0
DWIDTH 5 0
BBX 1 7 2 0
BITMAP
80
00
00
00
00
80
80
ENDCHAR
STARTCHAR 0384
ENCODING 900
SWIDTH 270 0
DWIDTH 3 0
BBX 1 1 1 6
BITMAP
80
ENDCHAR
STARTCHAR 0385
ENCODING 901
SWIDTH 450 0
DWIDTH 5 0
BBX 4 2 0 6
BITMAP
20
F0
ENDCHAR
STARTCHAR 0386
ENCODING 902
SWIDTH 630 0
DWIDTH 7 0
BBX 7 9 0 -1
BITMAP
50
70
28
28
44
7C
44
82
82
ENDCHAR
STARTCHAR 0387
ENCODING 903
SWIDTH 270 0
DWIDTH 3 0
BBX 1 1 1 4
BITMAP
80
ENDCHAR
STARTCHAR 0388
ENCODING 904
SWIDTH 720 0
DWIDTH 8 0
BBX 6 8 1 0
BITMAP
7C
80
80
80
7C
80
80
7C
ENDCHAR
STARTCHAR 0389
ENCODING 905
SWIDTH 810 0
DWIDTH 9 0
BBX 7 9 1 -1
BITMAP
80
42
42
42
7E
42
42
42
42
ENDCHAR
STARTCHAR 038A
ENCODING 906
SWIDTH 360 0
DWIDTH 4 0
BBX 2 8 1 0
BITMAP
C0
40
40
40
40
40
40
40
ENDCHAR
STARTCHAR 038C
ENCODING 908
SWIDTH 810 0
DWIDTH 9 0
BBX 8 9 0 -1
BITMAP
BC
62
41
81
81
81
41
62
3C
ENDCHAR
STARTCHAR 038E
ENCODING 910
SWIDTH 720 0
DWIDTH 8 0
BBX 8 8 0 0
BITMAP
81
A2
14
14
08
08
08
08
ENDCHAR
STARTCHAR 038F
ENCODING 911
SWIDTH 720 0
DWIDTH 8 0
BBX 7 8 0 0
BITMAP
BC
42
42
42
42
2C
5A
76
ENDCHAR
STARTCHAR 0390
ENCODING 912
SWIDTH 450 0
DWIDTH 5 0
BBX 5 9 0 -1
BITMAP
20
F0
00
20
20
20
20
28
30
ENDCHAR
STARTCHAR 0391
ENCODING 913
SWIDTH 720 0
DWIDTH 8 0
BBX 7 9 0 -1
BITMAP
10
30
28
28
44
7C
44
82
82
ENDCHAR
STARTCHAR 0392
ENCODING 914
SWIDTH 720 0
DWIDTH 8 0
BBX 6 8 1 0
BITMAP
F8
88
88
88
F8
84
84
F8
ENDCHAR
STARTCHAR 0393
ENCODING 915
SWIDTH 630 0
DWIDTH 7 0
BBX 5 8 1 0
BITMAP
F8
80
80
80
80
80
80
80
ENDCHAR
STARTCHAR 0394
ENCODING 916
SWIDTH 720 0
DWIDTH 8 0
BBX 7 7 0 1
BITMAP
18
28
24
44
42
82
7E
ENDCHAR
STARTCHAR 0395
ENCODING 917
SWIDTH 630 0
DWIDTH 7 0
BBX 5 8 1 0
BITMAP
F8
80
80
80
F8
80
80
F8
ENDCHAR
STARTCHAR 0396
ENCODING 918
SWIDTH 630 0
DWIDTH 7 0
BBX 6 8 0 0
BITMAP
7C
08
08
10
20
40
40
FC
ENDCHAR
STARTCHAR 0397
ENCODING 919
SWIDTH 720 0
DWIDTH 8 0
BBX 6 8 1 -1
BITMAP
84
84
84
FC
84
84
84
84
ENDCHAR
STARTCHAR 0398
ENCODING 920
SWIDTH 810 0
DWIDTH 9 0
BBX 7 9 1 -1
BITMAP
78
C4
82
82
FE
82
82
C4
78
ENDCHAR
STARTCHAR 0399
ENCODING 921
SWIDTH 270 0
DWIDTH 3 0
BBX 1 8 1 0
BITMAP
80
80
80
80
80
80
80
80
ENDCHAR
STARTCHAR 039A
ENCODING 922
SWIDTH 630 0
DWIDTH 7 0
BBX 6 8 1 0
BITMAP
80
98
90
A0
E0
90
88
84
ENDCHAR
STARTCHAR 039B
ENCODING 923
SWIDTH 630 0
DWIDTH 7 0
BBX 7 8 0 0
BITMAP
10
30
28
28
44
44
84
82
ENDCHAR
STARTCHAR 039C
ENCODING 924
SWIDTH 900 0
DWIDTH 10 0
BBX 7 8 1 0
BITMAP
82
C2
C6
C6
AA
AA
AA
92
ENDCHAR
STARTCHAR 039D
ENCODING 925
SWIDTH 720 0
DWIDTH 8 0
BBX 6 8 1 0
BITMAP
84
C4
C4
A4
94
94
8C
84
ENDCHAR
STARTCHAR 039E
ENCODING 926
SWIDTH 810 0
DWIDTH 9 0
BBX 7 8 1 0
BITMAP
FE
00
00
00
7C
00
00
FE
ENDCHAR
STARTCHAR 039F
ENCODING 927
SWIDTH 810 0
DWIDTH 9 0
BBX 7 9 1 -1
BITMAP
78
C4
82
82
82
82
82
C4
78
ENDCHAR
STARTCHAR 03A0
ENCODING 928
SWIDTH 720 0
DWIDTH 8 0
BBX 6 8 1 0
BITMAP
78
84
84
84
84
84
84
84
ENDCHAR
STARTCHAR 03A1
ENCODING 929
SWIDTH 630 0
DWIDTH 7 0
BBX 5 8 1 0
BITMAP
F8
88
88
88
F8
80
80
80
ENDCHAR
STARTCHAR 03A3
ENCODING 931
SWIDTH 720 0
DWIDTH 8 0
BBX 6 8 1 0
BITMAP
FC
80
40
30
20
40
80
FC
ENDCHAR
STARTCHAR 03A4
ENCODING 932
SWIDTH 540 0
DWIDTH 6 0
BBX 6 8 0 0
BITMAP
FC
20
20
20
20
20
20
20
ENDCHAR
STARTCHAR 03A5
ENCODING 933
SWIDTH 630 0
DWIDTH 7 0
BBX 6 8 0 0
BITMAP
80
44
48
30
10
10
10
10
ENDCHAR
STARTCHAR 03A6
ENCODING 934
SWIDTH 810 0
DWIDTH 9 0
BBX 7 8 1 0
BITMAP
10
78
94
92
92
92
54
38
ENDCHAR
STARTCHAR 03A7
ENCODING 935
SWIDTH 630 0
DWIDTH 7 0
BBX 6 8 0 0
BITMAP
04
48
28
30
10
28
48
84
ENDCHAR
STARTCHAR 03A8
ENCODING 936
SWIDTH 720 0
DWIDTH 8 0
BBX 6 8 1 -1
BITMAP
A4
A4
A4
A4
A8
78
20
20
ENDCHAR
STARTCHAR 03A9
ENCODING 937
SWIDTH 720 0
DWIDTH 8 0
BBX 6 8 1 0
BITMAP
78
84
84
84
84
58
B4
EC
ENDCHAR
STARTCHAR 03AA
ENCODING 938
SWIDTH 270 0
DWIDTH 3 0
BBX 3 9 0 0
BITMAP
A0
40
40
40
40
40
40
40
40
ENDCHAR
STARTCHAR 03AB
ENCODING 939
SWIDTH 630 0
DWIDTH 7 0
BBX 6 9 0 0
BITMAP
28
80
44
48
30
10
10
10
10
ENDCHAR
STARTCHAR 03AC
ENCODING 940
SWIDTH 630 0
DWIDTH 7 0
BBX 6 9 1 -1
BITMAP
40
00
68
98
90
90
90
94
68
ENDCHAR
STARTCHAR 03AD
ENCODING 941
SWIDTH 540 0
DWIDTH 6 0
BBX 4 9 1 -1
BITMAP
20
00
60
90
80
60
80
90
70
ENDCHAR
STARTCHAR 03AE
ENCODING 942
SWIDTH 630 0
DWIDTH 7 0
BBX 6 10 1 -2
BITMAP
20
20
F0
88
88
88
88
88
8C
0C
ENDCHAR
STARTCHAR 03AF
ENCODING 943
SWIDTH 360 0
DWIDTH 4 0
BBX 3 9 1 -1
BITMAP
80
80
80
80
80
80
80
A0
C0
ENDCHAR
STARTCHAR 03B0
ENCODING 944
SWIDTH 540 0
DWIDTH 6 0
BBX 4 9 1 -1
BITMAP
40
D0
10
90
90
90
90
90
60
ENDCHAR
STARTCHAR 03B1
ENCODING 945
SWIDTH 630 0
DWIDTH 7 0
BBX 6 7 1 -1
BITMAP
68
98
90
90
90
94
68
ENDCHAR
STARTCHAR 03B2
ENCODING 946
SWIDTH 540 0
DWIDTH 6 0
BBX 4 10 1 -2
BITMAP
60
90
90
90
B0
90
90
90
F0
80
ENDCHAR
STARTCHAR 03B3
ENCODING 947
SWIDTH 540 0
DWIDTH 6 0
BBX 4 7 1 -1
BITMAP
90
90
60
60
60
90
60
ENDCHAR
STARTCHAR 03B4
ENCODING 948
SWIDTH 540 0
DWIDTH 6 0
BBX 5 9 1 -1
BITMAP
60
90
40
60
90
88
88
90
70
ENDCHAR
STARTCHAR 03B5
ENCODING 949
SWIDTH 540 0
DWIDTH 6 0
BBX 4 7 1 -1
BITMAP
60
90
80
60
80
90
70
ENDCHAR
STARTCHAR 03B6
ENCODING 950
SWIDTH 540 0
DWIDTH 6 0
BBX 4 10 1 -2
BITMAP
E0
20
40
80
80
80
80
70
10
70
ENDCHAR
STARTCHAR 03B7
ENCODING 951
SWIDTH 630 0
DWIDTH 7 0
BBX 6 8 1 -2
BITMAP
F0
88
88
88
88
88
8C
0C
ENDCHAR
STARTCHAR 03B8
ENCODING 952
SWIDTH 720 0
DWIDTH 8 0
BBX 6 9 1 -1
BITMAP
70
88
84
84
FC
84
84
88
70
ENDCHAR
STARTCHAR 03B9
ENCODING 953
SWIDTH 360 0
DWIDTH 4 0
BBX 3 7 1 -1
BITMAP
80
80
80
80
80
A0
C0
ENDCHAR
STARTCHAR 03BA
ENCODING 954
SWIDTH 540 0
DWIDTH 6 0
BBX 4 6 1 0
BITMAP
90
A0
C0
C0
A0
90
ENDCHAR
STARTCHAR 03BB
ENCODING 955
SWIDTH 720 0
DWIDTH 8 0
BBX 6 9 1 -1
BITMAP
C0
40
20
20
60
50
90
90
8C
ENDCHAR
STARTCHAR 03BC
ENCODING 956
SWIDTH 540 0
DWIDTH 6 0
BBX 4 7 1 -1
BITMAP
90
90
90
90
90
F0
80
ENDCHAR
STARTCHAR 03BD
ENCODING 957
SWIDTH 540 0
DWIDTH 6 0
BBX 5 6 0 0
BITMAP
80
48
48
50
30
20
ENDCHAR
STARTCHAR 03BE
ENCODING 958
SWIDTH 540 0
DWIDTH 6 0
BBX 4 10 1 -2
BITMAP
E0
40
40
20
C0
80
80
70
10
30
ENDCHAR
STARTCHAR 03BF
ENCODING 959
SWIDTH 630 0
DWIDTH 7 0
BBX 5 7 1 -1
BITMAP
70
88
88
88
88
88
70
ENDCHAR
STARTCHAR 03C0
ENCODING 960
SWIDTH 720 0
DWIDTH 8 0
BBX 6 7 1 -1
BITMAP
FC
50
50
50
50
54
8C
ENDCHAR
STARTCHAR 03C1
ENCODING 961
SWIDTH 630 0
DWIDTH 7 0
BBX 5 8 1 -2
BITMAP
70
88
88
88
88
88
F0
80
ENDCHAR
STARTCHAR 03C2
ENCODING 962
SWIDTH 540 0
DWIDTH 6 0
BBX 4 8 1 -2
BITMAP
70
90
80
80
80
70
10
20
ENDCHAR
STARTCHAR 03C3
ENCODING 963
SWIDTH 630 0
DWIDTH 7 0
BBX 6 7 1 -1
BITMAP
7C
88
88
88
88
88
70
ENDCHAR
STARTCHAR 03C4
ENCODING 964
SWIDTH 540 0
DWIDTH 6 0
BBX 6 7 0 -1
BITMAP
FC
10
10
10
10
14
18
ENDCHAR
STARTCHAR 03C5
ENCODING 965
SWIDTH 540 0
DWIDTH 6 0
BBX 4 7 1 -1
BITMAP
10
90
90
90
90
90
60
ENDCHAR
STARTCHAR 03C6
ENCODING 966
SWIDTH 630 0
DWIDTH 7 0
BBX 5 10 1 -2
BITMAP
20
20
70
A8
A8
A8
A8
70
20
20
ENDCHAR
STARTCHAR 03C7
ENCODING 967
SWIDTH 540 0
DWIDTH 6 0
BBX 6 8 0 -2
BITMAP
C8
28
30
10
30
30
48
8C
ENDCHAR
STARTCHAR 03C8
ENCODING 968
SWIDTH 720 0
DWIDTH 8 0
BBX 6 7 1 -2
BITMAP
20
A4
A4
A4
A4
78
20
ENDCHAR
STARTCHAR 03C9
ENCODING 969
SWIDTH 720 0
DWIDTH 8 0
BBX 6 6 1 0
BITMAP
84
84
A4
A4
94
78
ENDCHAR
STARTCHAR 03CA
ENCODING 970
SWIDTH 360 0
DWIDTH 4 0
BBX 4 8 0 -1
BITMAP
A0
40
40
40
40
40
50
60
ENDCHAR
STARTCHAR 03CB
ENCODING 971
SWIDTH 540 0
DWIDTH 6 0
BBX 4 8 1 -1
BITMAP
E0
10
90
90
90
90
90
60
ENDCHAR
STARTCHAR 03CC
ENCODING 972
SWIDTH 630 0
DWIDTH 7 0
BBX 5 9 1 -1
BITMAP
20
20
70
88
88
88
88
88
70
ENDCHAR
STARTCHAR 03CD
ENCODING 973
SWIDTH 540 0
DWIDTH 6 0
BBX 4 9 1 -1
BITMAP
40
00
10
90
90
90
90
90
60
ENDCHAR
STARTCHAR 03CE
ENCODING 974
SWIDTH 720 0
DWIDTH 8 0
BBX 6 9 1 -1
BITMAP
10
00
00
84
84
A4
A4
94
78
ENDCHAR
STARTCHAR 0401
ENCODING 1025
SWIDTH 630 0
DWIDTH 7 0
BBX 5 9 1 0
BITMAP
50
F8
80
80
80
F8
80
80
F8
ENDCHAR
STARTCHAR 0402
ENCODING 1026
SWIDTH 720 0
DWIDTH 8 0
BBX 8 10 0 -2
BITMAP
FC
20
2E
11
21
21
21
22
02
04
ENDCHAR
STARTCHAR 0403
ENCODING 1027
SWIDTH 630 0
DWIDTH 7 0
BBX 5 9 1 0
BITMAP
20
F8
80
80
80
80
80
80
80
ENDCHAR
STARTCHAR 0404
ENCODING 1028
SWIDTH 720 0
DWIDTH 8 0
BBX 6 9 1 -1
BITMAP
78
C4
80
80
F0
80
84
84
78
ENDCHAR
STARTCHAR 0405
ENCODING 1029
SWIDTH 630 0
DWIDTH 7 0
BBX 5 9 1 -1
BITMAP
70
88
80
80
60
18
08
88
70
ENDCHAR
STARTCHAR 0406
ENCODING 1030
SWIDTH 270 0
DWIDTH 3 0
BBX 1 8 1 0
BITMAP
80
80
80
80
80
80
80
80
ENDCHAR
STARTCHAR 0407
ENCODING 1031
SWIDTH 270 0
DWIDTH 3 0
BBX 3 9 0 0
BITMAP
A0
40
40
40
40
40
40
40
40
ENDCHAR
STARTCHAR 0408
ENCODING 1032
SWIDTH 540 0
DWIDTH 6 0
BBX 4 8 0 -1
BITMAP
10
10
10
10
10
10
90
70
ENDCHAR
STARTCHAR 0409
ENCODING 1033
SWIDTH 900 0
DWIDTH 10 0
BBX 8 8 1 0
BITMAP
70
90
90
90
9E
91
91
9E
ENDCHAR
STARTCHAR 040A
ENCODING 1034
SWIDTH 990 0
DWIDTH 11 0
BBX 9 8 1 -1
BITMAP
9000
9000
9000
FF00
9080
9080
8F00
8000
ENDCHAR
STARTCHAR 040B
ENCODING 1035
SWIDTH 720 0
DWIDTH 8 0
BBX 7 8 0 0
BITMAP
FC
20
2C
12
22
22
22
22
ENDCHAR
STARTCHAR 040C
ENCODING 1036
SWIDTH 630 0
DWIDTH 7 0
BBX 6 9 1 0
BITMAP
20
80
98
90
A0
E0
90
88
84
ENDCHAR
STARTCHAR 040E
ENCODING 1038
SWIDTH 540 0
DWIDTH 6 0
BBX 5 10 0 -1
BITMAP
48
30
88
48
48
30
30
20
20
40
ENDCHAR
STARTCHAR 040F
ENCODING 1039
SWIDTH 720 0
DWIDTH 8 0
BBX 6 9 1 -2
BITMAP
84
84
84
84
84
84
84
FC
10
ENDCHAR
STARTCHAR 0410
ENCODING 1040
SWIDTH 630 0
DWIDTH 7 0
BBX 7 9 0 -1
BITMAP
10
30
28
28
44
7C
44
82
82
ENDCHAR
STARTCHAR 0411
ENCODING 1041
SWIDTH 630 0
DWIDTH 7 0
BBX 5 8 1 0
BITMAP
F8
80
80
80
F8
88
88
F8
ENDCHAR
STARTCHAR 0412
ENCODING 1042
SWIDTH 720 0
DWIDTH 8 0
BBX 6 8 1 0
BITMAP
F8
88
88
88
F8
84
84
F8
ENDCHAR
STARTCHAR 0413
ENCODING 1043
SWIDTH 630 0
DWIDTH 7 0
BBX 5 8 1 0
BITMAP
F8
80
80
80
80
80
80
80
ENDCHAR
STARTCHAR 0414
ENCODING 1044
SWIDTH 810 0
DWIDTH 9 0
BBX 8 9 0 -2
BITMAP
1E
12
22
22
22
22
42
7F
81
ENDCHAR
STARTCHAR 0415
ENCODING 1045
SWIDTH 630 0
DWIDTH 7 0
BBX 5 8 1 0
BITMAP
F8
80
80
80
F8
80
80
F8
ENDCHAR
STARTCHAR 0416
ENCODING 1046
SWIDTH 990 0
DWIDTH 11 0
BBX 10 9 0 -1
BITMAP
E4C0
2500
1600
1600
1E00
1500
3500
E4C0
0400
ENDCHAR
STARTCHAR 0417
ENCODING 1047
SWIDTH 630 0
DWIDTH 7 0
BBX 5 9 1 -1
BITMAP
70
88
88
08
70
08
88
88
70
ENDCHAR
STARTCHAR 0418
ENCODING 1048
SWIDTH 720 0
DWIDTH 8 0
BBX 6 8 1 0
BITMAP
84
84
8C
94
A4
C4
84
84
ENDCHAR
STARTCHAR 0419
ENCODING 1049
SWIDTH 720 0
DWIDTH 8 0
BBX 6 9 1 0
BITMAP
48
B4
84
8C
94
A4
C4
84
84
ENDCHAR
STARTCHAR 041A
ENCODING 1050
SWIDTH 630 0
DWIDTH 7 0
BBX 6 8 1 0
BITMAP
80
98
90
A0
E0
90
88
84
ENDCHAR
STARTCHAR 041B
ENCODING 1051
SWIDTH 720 0
DWIDTH 8 0
BBX 6 8 1 0
BITMAP
78
84
84
84
84
84
84
84
ENDCHAR
STARTCHAR 041C
ENCODING 1052
SWIDTH 810 0
DWIDTH 9 0
BBX 7 8 1 0
BITMAP
82
C2
C6
C6
AA
AA
AA
92
ENDCHAR
STARTCHAR 041D
ENCODING 1053
SWIDTH 720 0
DWIDTH 8 0
BBX 6 8 1 -1
BITMAP
84
84
84
FC
84
84
84
84
ENDCHAR
STARTCHAR 041E
ENCODING 1054
SWIDTH 810 0
DWIDTH 9 0
BBX 7 9 1 -1
BITMAP
78
C4
82
82
82
82
82
C4
78
ENDCHAR
STARTCHAR 041F
ENCODING 1055
SWIDTH 720 0
DWIDTH 8 0
BBX 6 8 1 0
BITMAP
FC
84
84
84
84
84
84
84
ENDCHAR
STARTCHAR 0420
ENCODING 1056
SWIDTH 630 0
DWIDTH 7 0
BBX 5 8 1 0
BITMAP
F8
88
88
88
F8
80
80
80
ENDCHAR
STARTCHAR 0421
ENCODING 1057
SWIDTH 720 0
DWIDTH 8 0
BBX 6 9 1 -1
BITMAP
78
44
84
80
80
80
84
C4
78
ENDCHAR
STARTCHAR 0422
ENCODING 1058
SWIDTH 540 0
DWIDTH 6 0
BBX 6 8 0 0
BITMAP
FC
20
20
20
20
20
20
20
ENDCHAR
STARTCHAR 0423
ENCODING 1059
SWIDTH 540 0
DWIDTH 6 0
BBX 5 8 0 -1
BITMAP
88
48
48
30
30
20
20
40
ENDCHAR
STARTCHAR 0424
ENCODING 1060
SWIDTH 810 0
DWIDTH 9 0
BBX 7 8 1 0
BITMAP
10
7C
92
92
92
92
7C
10
ENDCHAR
STARTCHAR 0425
ENCODING 1061
SWIDTH 630 0
DWIDTH 7 0
BBX 6 7 0 1
BITMAP
44
28
10
10
28
44
84
ENDCHAR
STARTCHAR 0426
ENCODING 1062
SWIDTH 720 0
DWIDTH 8 0
BBX 7 9 1 -2
BITMAP
84
84
84
84
84
84
84
FC
02
ENDCHAR
STARTCHAR 0427
ENCODING 1063
SWIDTH 540 0
DWIDTH 6 0
BBX 4 8 1 -1
BITMAP
90
90
90
90
90
70
10
10
ENDCHAR
STARTCHAR 0428
ENCODING 1064
SWIDTH 900 0
DWIDTH 10 0
BBX 8 8 1 0
BITMAP
88
89
89
89
89
89
89
FF
ENDCHAR
STARTCHAR 0429
ENCODING 1065
SWIDTH 900 0
DWIDTH 10 0
BBX 9 9 1 -2
BITMAP
8800
8900
8900
8900
8900
8900
8900
FF80
0080
ENDCHAR
STARTCHAR 042A
ENCODING 1066
SWIDTH 720 0
DWIDTH 8 0
BBX 8 8 0 0
BITMAP
E0
20
20
3E
22
21
22
3E
ENDCHAR
STARTCHAR 042B
ENCODING 1067
SWIDTH 810 0
DWIDTH 9 0
BBX 7 8 1 0
BITMAP
80
82
82
FA
8A
8A
8A
FA
ENDCHAR
STARTCHAR 042C
ENCODING 1068
SWIDTH 630 0
DWIDTH 7 0
BBX 5 8 1 0
BITMAP
80
80
80
F8
88
88
88
F8
ENDCHAR
STARTCHAR 042D
ENCODING 1069
SWIDTH 720 0
DWIDTH 8 0
BBX 6 9 1 -1
BITMAP
78
8C
04
04
3C
04
84
84
78
ENDCHAR
STARTCHAR 042E
ENCODING 1070
SWIDTH 990 0
DWIDTH 11 0
BBX 9 9 1 -1
BITMAP
8F00
9100
9080
A080
E080
A080
9080
9100
8F00
ENDCHAR
STARTCHAR 042F
ENCODING 1071
SWIDTH 720 0
DWIDTH 8 0
BBX 6 9 1 -1
BITMAP
78
84
84
84
7C
84
84
84
84
ENDCHAR
STARTCHAR 0430
ENCODING 1072
SWIDTH 540 0
DWIDTH 6 0
BBX 5 7 1 -1
BITMAP
70
90
10
70
90
A8
C0
ENDCHAR
STARTCHAR 0431
ENCODING 1073
SWIDTH 630 0
DWIDTH 7 0
BBX 5 9 1 -1
BITMAP
08
70
80
F0
88
88
88
88
70
ENDCHAR
STARTCHAR 0432
ENCODING 1074
SWIDTH 630 0
DWIDTH 7 0
BBX 5 6 1 0
BITMAP
F0
88
90
F8
88
F8
ENDCHAR
STARTCHAR 0433
ENCODING 1075
SWIDTH 540 0
DWIDTH 6 0
BBX 4 6 1 0
BITMAP
F0
80
80
80
80
80
ENDCHAR
STARTCHAR 0434
ENCODING 1076
SWIDTH 540 0
DWIDTH 6 0
BBX 6 7 0 -2
BITMAP
38
28
48
48
48
F8
84
ENDCHAR
STARTCHAR 0435
ENCODING 1077
SWIDTH 540 0
DWIDTH 6 0
BBX 5 7 1 -1
BITMAP
60
90
90
F8
80
90
60
ENDCHAR
STARTCHAR 0436
ENCODING 1078
SWIDTH 720 0
DWIDTH 8 0
BBX 7 6 1 0
BITMAP
86
58
58
78
58
D6
ENDCHAR
STARTCHAR 0437
ENCODING 1079
SWIDTH 540 0
DWIDTH 6 0
BBX 4 7 1 -1
BITMAP
70
90
10
30
10
90
70
ENDCHAR
STARTCHAR 0438
ENCODING 1080
SWIDTH 630 0
DWIDTH 7 0
BBX 5 6 1 0
BITMAP
88
98
A8
C8
C8
88
ENDCHAR
STARTCHAR 0439
ENCODING 1081
SWIDTH 630 0
DWIDTH 7 0
BBX 5 8 1 0
BITMAP
10
70
88
98
A8
C8
C8
88
ENDCHAR
STARTCHAR 043A
ENCODING 1082
SWIDTH 540 0
DWIDTH 6 0
BBX 4 6 1 0
BITMAP
90
A0
C0
C0
A0
90
ENDCHAR
STARTCHAR 043B
ENCODING 1083
SWIDTH 540 0
DWIDTH 6 0
BBX 4 6 1 0
BITMAP
70
90
90
90
90
90
ENDCHAR
STARTCHAR 043C
ENCODING 1084
SWIDTH 720 0
DWIDTH 8 0
BBX 6 6 1 0
BITMAP
84
8C
CC
CC
B4
94
ENDCHAR
STARTCHAR 043D
ENCODING 1085
SWIDTH 630 0
DWIDTH 7 0
BBX 5 7 1 -1
BITMAP
88
88
88
F8
88
88
88
ENDCHAR
STARTCHAR 043E
ENCODING 1086
SWIDTH 630 0
DWIDTH 7 0
BBX 5 7 1 -1
BITMAP
70
88
88
88
88
88
70
ENDCHAR
STARTCHAR 043F
ENCODING 1087
SWIDTH 630 0
DWIDTH 7 0
BBX 5 6 1 0
BITMAP
F8
88
88
88
88
88
ENDCHAR
STARTCHAR 0440
ENCODING 1088
SWIDTH 630 0
DWIDTH 7 0
BBX 5 8 1 -2
BITMAP
F0
88
88
88
88
88
F0
80
ENDCHAR
STARTCHAR 0441
ENCODING 1089
SWIDTH 540 0
DWIDTH 6 0
BBX 5 7 1 -1
BITMAP
70
90
80
80
88
90
70
ENDCHAR
STARTCHAR 0442
ENCODING 1090
SWIDTH 540 0
DWIDTH 6 0
BBX 5 6 1 0
BITMAP
F8
20
20
20
20
20
ENDCHAR
STARTCHAR 0443
ENCODING 1091
SWIDTH 540 0
DWIDTH 6 0
BBX 5 8 0 -2
BITMAP
88
88
50
50
20
20
20
C0
ENDCHAR
STARTCHAR 0444
ENCODING 1092
SWIDTH 720 0
DWIDTH 8 0
BBX 6 8 1 -1
BITMAP
20
78
A4
A4
A4
A4
78
20
ENDCHAR
STARTCHAR 0445
ENCODING 1093
SWIDTH 540 0
DWIDTH 6 0
BBX 5 6 0 0
BITMAP
88
50
20
20
50
88
ENDCHAR
STARTCHAR 0446
ENCODING 1094
SWIDTH 630 0
DWIDTH 7 0
BBX 5 7 1 -2
BITMAP
88
88
88
88
88
F8
08
ENDCHAR
STARTCHAR 0447
ENCODING 1095
SWIDTH 540 0
DWIDTH 6 0
BBX 4 6 1 0
BITMAP
90
90
90
90
70
10
ENDCHAR
STARTCHAR 0448
ENCODING 1096
SWIDTH 810 0
DWIDTH 9 0
BBX 7 6 1 0
BITMAP
92
92
92
92
92
FE
ENDCHAR
STARTCHAR 0449
ENCODING 1097
SWIDTH 810 0
DWIDTH 9 0
BBX 8 7 1 -2
BITMAP
92
92
92
92
92
FE
01
ENDCHAR
STARTCHAR 044A
ENCODING 1098
SWIDTH 630 0
DWIDTH 7 0
BBX 6 6 0 0
BITMAP
E0
20
3C
24
24
3C
ENDCHAR
STARTCHAR 044B
ENCODING 1099
SWIDTH 720 0
DWIDTH 8 0
BBX 6 6 1 0
BITMAP
84
84
F4
94
94
F4
ENDCHAR
STARTCHAR 044C
ENCODING 1100
SWIDTH 540 0
DWIDTH 6 0
BBX 4 6 1 0
BITMAP
80
80
F0
90
90
F0
ENDCHAR
STARTCHAR 044D
ENCODING 1101
SWIDTH 630 0
DWIDTH 7 0
BBX 5 7 1 -1
BITMAP
70
88
08
78
08
88
70
ENDCHAR
STARTCHAR 044E
ENCODING 1102
SWIDTH 900 0
DWIDTH 10 0
BBX 8 7 1 -1
BITMAP
8E
91
91
E1
91
91
8E
ENDCHAR
STARTCHAR 044F
ENCODING 1103
SWIDTH 540 0
DWIDTH 6 0
BBX 4 6 1 -1
BITMAP
F0
90
90
F0
90
90
ENDCHAR
STARTCHAR 0451
ENCODING 1105
SWIDTH 540 0
DWIDTH 6 0
BBX 5 9 1 -1
BITMAP
50
00
60
90
90
F8
80
90
60
ENDCHAR
STARTCHAR 0452
ENCODING 1106
SWIDTH 540 0
DWIDTH 6 0
BBX 5 10 0 -2
BITMAP
40
F8
40
78
48
48
48
48
48
10
ENDCHAR
STARTCHAR 0453
ENCODING 1107
SWIDTH 540 0
DWIDTH 6 0
BBX 4 8 1 0
BITMAP
20
00
F0
80
80
80
80
80
ENDCHAR
STARTCHAR 0454
ENCODING 1108
SWIDTH 630 0
DWIDTH 7 0
BBX 5 7 1 -1
BITMAP
70
88
80
E0
80
88
70
ENDCHAR
STARTCHAR 0455
ENCODING 1109
SWIDTH 540 0
DWIDTH 6 0
BBX 4 7 1 -1
BITMAP
E0
90
80
60
10
90
E0
ENDCHAR
STARTCHAR 0456
ENCODING 1110
SWIDTH 270 0
DWIDTH 3 0
BBX 1 8 1 0
BITMAP
80
00
80
80
80
80
80
80
ENDCHAR
STARTCHAR 0457
ENCODING 1111
SWIDTH 270 0
DWIDTH 3 0
BBX 3 7 0 0
BITMAP
A0
40
40
40
40
40
40
ENDCHAR
STARTCHAR 0458
ENCODING 1112
SWIDTH 270 0
DWIDTH 3 0
BBX 2 10 0 -2
BITMAP
40
00
40
40
40
40
40
40
40
80
ENDCHAR
STARTCHAR 0459
ENCODING 1113
SWIDTH 810 0
DWIDTH 9 0
BBX 7 7 1 -1
BITMAP
60
90
9C
92
92
9C
80
ENDCHAR
STARTCHAR 045A
ENCODING 1114
SWIDTH 810 0
DWIDTH 9 0
BBX 7 6 1 -1
BITMAP
90
90
FE
92
9E
80
ENDCHAR
STARTCHAR 045B
ENCODING 1115
SWIDTH 540 0
DWIDTH 6 0
BBX 5 8 0 0
BITMAP
40
F0
78
48
48
48
48
48
ENDCHAR
STARTCHAR 045C
ENCODING 1116
SWIDTH 540 0
DWIDTH 6 0
BBX 4 8 1 0
BITMAP
20
40
90
A0
C0
A0
A0
90
ENDCHAR
STARTCHAR 045E
ENCODING 1118
SWIDTH 540 0
DWIDTH 6 0
BBX 5 10 0 -2
BITMAP
50
30
88
88
50
50
20
20
20
C0
ENDCHAR
STARTCHAR 045F
ENCODING 1119
SWIDTH 630 0
DWIDTH 7 0
BBX 5 8 1 -2
BITMAP
88
88
88
88
88
F8
20
20
ENDCHAR
STARTCHAR 0490
ENCODING 1168
SWIDTH 540 0
DWIDTH 6 0
BBX 5 9 1 0
BITMAP
08
F8
80
80
80
80
80
80
80
ENDCHAR
STARTCHAR 0491
ENCODING 1169
SWIDTH 450 0
DWIDTH 5 0
BBX 4 6 1 1
BITMAP
F0
80
80
80
80
80
ENDCHAR
STARTCHAR 1100
ENCODING 4352
SWIDTH 990 0
DWIDTH 11 0
BBX 6 5 2 1
BITMAP
F8
04
04
04
04
ENDCHAR
STARTCHAR 1101
ENCODING 4353
SWIDTH 990 0
DWIDTH 11 0
BBX 9 5 1 1
BITMAP
E700
1080
1080
1080
1080
ENDCHAR
STARTCHAR 1102
ENCODING 4354
SWIDTH 990 0
DWIDTH 11 0
BBX 6 5 3 1
BITMAP
80
80
80
80
7C
ENDCHAR
STARTCHAR 1103
ENCODING 4355
SWIDTH 990 0
DWIDTH 11 0
BBX 6 5 3 1
BITMAP
7C
80
80
80
7C
ENDCHAR
STARTCHAR 1104
ENCODING 4356
SWIDTH 990 0
DWIDTH 11 0
BBX 9 5 1 1
BITMAP
7380
8400
8400
8400
7380
ENDCHAR
STARTCHAR 1105
ENCODING 4357
SWIDTH 990 0
DWIDTH 11 0
BBX 6 5 3 1
BITMAP
F8
04
78
80
7C
ENDCHAR
STARTCHAR 1106
ENCODING 4358
SWIDTH 990 0
DWIDTH 11 0
BBX 6 5 3 1
BITMAP
FC
84
84
84
FC
ENDCHAR
STARTCHAR 1107
ENCODING 4359
SWIDTH 990 0
DWIDTH 11 0
BBX 6 5 3 1
BITMAP
84
FC
84
84
78
ENDCHAR
STARTCHAR 1108
ENCODING 4360
SWIDTH 990 0
DWIDTH 11 0
BBX 9 5 1 1
BITMAP
9480
F780
9480
9480
6300
ENDCHAR
STARTCHAR 1109
ENCODING 4361
SWIDTH 990 0
DWIDTH 11 0
BBX 7 5 2 1
BITMAP
10
10
28
44
82
ENDCHAR
STARTCHAR 110A
ENCODING 4362
SWIDTH 990 0
DWIDTH 11 0
BBX 9 5 1 1
BITMAP
2200
2200
2200
5500
8880
ENDCHAR
STARTCHAR 110B
ENCODING 4363
SWIDTH 990 0
DWIDTH 11 0
BBX 6 5 3 1
BITMAP
78
84
84
84
78
ENDCHAR
STARTCHAR 110C
ENCODING 4364
SWIDTH 990 0
DWIDTH 11 0
BBX 7 5 2 1
BITMAP
FE
10
10
28
C6
ENDCHAR
STARTCHAR 110D
ENCODING 4365
SWIDTH 990 0
DWIDTH 11 0
BBX 9 5 1 1
BITMAP
FF80
2200
2200
5500
8880
ENDCHAR
STARTCHAR 110E
ENCODING 4366
SWIDTH 990 0
DWIDTH 11 0
BBX 7 6 2 0
BITMAP
38
00
FE
10
28
C6
ENDCHAR
STARTCHAR 110F
ENCODING 4367
SWIDTH 990 0
DWIDTH 11 0
BBX 6 5 2 1
BITMAP
F8
04
FC
04
04
ENDCHAR
STARTCHAR 1110
ENCODING 4368
SWIDTH 990 0
DWIDTH 11 0
BBX 6 5 2 1
BITMAP
7C
80
FC
80
7C
ENDCHAR
STARTCHAR 1111
ENCODING 4369
SWIDTH 990 0
DWIDTH 11 0
BBX 6 5 2 1
BITMAP
FC
00
48
48
FC
ENDCHAR
STARTCHAR 1112
ENCODING 4370
SWIDTH 990 0
DWIDTH 11 0
BBX 7 6 2 0
BITMAP
38
00
FE
28
44
38
ENDCHAR
STARTCHAR 1113
ENCODING 4371
SWIDTH 990 0
DWIDTH 11 0
BBX 8 5 1 1
BITMAP
8E
81
81
81
71
ENDCHAR
STARTCHAR 1114
ENCODING 4372
SWIDTH 990 0
DWIDTH 11 0
BBX 9 5 1 1
BITMAP
8400
8400
8400
8400
7380
ENDCHAR
STARTCHAR 1115
ENCODING 4373
SWIDTH 990 0
DWIDTH 11 0
BBX 9 5 1 1
BITMAP
8380
8400
8400
8400
7380
ENDCHAR
STARTCHAR 1116
ENCODING 4374
SWIDTH 990 0
DWIDTH 11 0
BBX 9 5 1 1
BITMAP
8480
8780
8480
8480
7300
ENDCHAR
STARTCHAR 1117
ENCODING 4375
SWIDTH 990 0
DWIDTH 11 0
BBX 9 5 1 1
BITMAP
7700
8080
8080
8080
7080
ENDCHAR
STARTCHAR 1118
ENCODING 4376
SWIDTH 990 0
DWIDTH 11 0
BBX 9 5 1 1
BITMAP
E400
1400
6400
8400
7380
ENDCHAR
STARTCHAR 1119
ENCODING 4377
SWIDTH 990 0
DWIDTH 11 0
BBX 9 5 1 1
BITMAP
E700
1080
6300
8400
7380
ENDCHAR
STARTCHAR 111A
ENCODING 4378
SWIDTH 990 0
DWIDTH 11 0
BBX 10 5 1 1
BITMAP
E100
17C0
6280
8440
7380
ENDCHAR
STARTCHAR 111B
ENCODING 4379
SWIDTH 990 0
DWIDTH 11 0
BBX 5 9 3 -1
BITMAP
F0
08
70
80
78
00
70
88
70
ENDCHAR
STARTCHAR 111C
ENCODING 4380
SWIDTH 990 0
DWIDTH 11 0
BBX 9 5 1 1
BITMAP
F480
9780
9480
9480
F300
ENDCHAR
STARTCHAR 111D
ENCODING 4381
SWIDTH 990 0
DWIDTH 11 0
BBX 5 8 3 -1
BITMAP
F8
88
88
F8
00
70
88
70
ENDCHAR
STARTCHAR 111E
ENCODING 4382
SWIDTH 990 0
DWIDTH 11 0
BBX 9 5 1 1
BITMAP
9700
F080
9080
9080
6080
ENDCHAR
STARTCHAR 111F
ENCODING 4383
SWIDTH 990 0
DWIDTH 11 0
BBX 9 5 1 1
BITMAP
9400
F400
9400
9400
6380
ENDCHAR
STARTCHAR 1120
ENCODING 4384
SWIDTH 990 0
DWIDTH 11 0
BBX 9 5 1 1
BITMAP
9380
F400
9400
9400
6380
ENDCHAR
STARTCHAR 1121
ENCODING 4385
SWIDTH 990 0
DWIDTH 11 0
BBX 9 5 1 1
BITMAP
9200
F200
9200
9500
6880
ENDCHAR
STARTCHAR 1122
ENCODING 4386
SWIDTH 990 0
DWIDTH 11 0
BBX 10 5 1 1
BITMAP
A580
E440
A440
AA40
5140
ENDCHAR
STARTCHAR 1123
ENCODING 4387
SWIDTH 990 0
DWIDTH 11 0
BBX 9 5 1 1
BITMAP
A980
EA00
AA00
B600
5580
ENDCHAR
STARTCHAR 1124
ENCODING 4388
SWIDTH 990 0
DWIDTH 11 0
BBX 9 5 1 1
BITMAP
AA80
EB80
AA80
B680
5500
ENDCHAR
STARTCHAR 1125
ENCODING 4389
SWIDTH 990 0
DWIDTH 11 0
BBX 9 5 1 1
BITMAP
A900
E900
A900
B680
5480
ENDCHAR
STARTCHAR 1126
ENCODING 4390
SWIDTH 990 0
DWIDTH 11 0
BBX 10 5 1 1
BITMAP
ABC0
E880
A880
B540
5640
ENDCHAR
STARTCHAR 1127
ENCODING 4391
SWIDTH 990 0
DWIDTH 11 0
BBX 10 5 1 1
BITMAP
97C0
F100
9100
9280
6440
ENDCHAR
STARTCHAR 1128
ENCODING 4392
SWIDTH 990 0
DWIDTH 11 0
BBX 10 5 1 1
BITMAP
9380
F000
97C0
9280
6440
ENDCHAR
STARTCHAR 1129
ENCODING 4393
SWIDTH 990 0
DWIDTH 11 0
BBX 9 5 1 1
BITMAP
9380
F400
9780
9400
6380
ENDCHAR
STARTCHAR 112A
ENCODING 4394
SWIDTH 990 0
DWIDTH 11 0
BBX 10 5 1 1
BITMAP
97C0
F000
9280
9280
67C0
ENDCHAR
STARTCHAR 112B
ENCODING 4395
SWIDTH 990 0
DWIDTH 11 0
BBX 5 8 3 -1
BITMAP
88
F8
88
70
00
70
88
70
ENDCHAR
STARTCHAR 112C
ENCODING 4396
SWIDTH 990 0
DWIDTH 11 0
BBX 7 8 2 -1
BITMAP
AA
EE
AA
EE
00
38
44
38
ENDCHAR
STARTCHAR 112D
ENCODING 4397
SWIDTH 990 0
DWIDTH 11 0
BBX 9 5 1 1
BITMAP
2700
2080
2080
5080
8880
ENDCHAR
STARTCHAR 112E
ENCODING 4398
SWIDTH 990 0
DWIDTH 11 0
BBX 10 5 1 1
BITMAP
2200
2200
2200
5200
89C0
ENDCHAR
STARTCHAR 112F
ENCODING 4399
SWIDTH 990 0
DWIDTH 11 0
BBX 9 5 1 1
BITMAP
2380
2400
2400
5400
8B80
ENDCHAR
STARTCHAR 1130
ENCODING 4400
SWIDTH 990 0
DWIDTH 11 0
BBX 9 5 1 1
BITMAP
2700
2080
2300
5400
8B80
ENDCHAR
STARTCHAR 1131
ENCODING 4401
SWIDTH 990 0
DWIDTH 11 0
BBX 9 5 1 1
BITMAP
2780
2480
2480
5480
8F80
ENDCHAR
STARTCHAR 1132
ENCODING 4402
SWIDTH 990 0
DWIDTH 11 0
BBX 9 5 1 1
BITMAP
2480
2780
2480
5480
8B00
ENDCHAR
STARTCHAR 1133
ENCODING 4403
SWIDTH 990 0
DWIDTH 11 0
BBX 10 5 1 1
BITMAP
4B80
4E40
4A40
AA40
A440
ENDCHAR
STARTCHAR 1134
ENCODING 4404
SWIDTH 990 0
DWIDTH 11 0
BBX 9 5 1 1
BITMAP
4900
4900
4900
B680
9280
ENDCHAR
STARTCHAR 1135
ENCODING 4405
SWIDTH 990 0
DWIDTH 11 0
BBX 9 5 1 1
BITMAP
2300
2480
2480
5480
8B00
ENDCHAR
STARTCHAR 1136
ENCODING 4406
SWIDTH 990 0
DWIDTH 11 0
BBX 9 5 1 1
BITMAP
2F80
2200
2200
5500
8880
ENDCHAR
STARTCHAR 1137
ENCODING 4407
SWIDTH 990 0
DWIDTH 11 0
BBX 9 5 1 1
BITMAP
2700
2000
2F80
5500
8880
ENDCHAR
STARTCHAR 1138
ENCODING 4408
SWIDTH 990 0
DWIDTH 11 0
BBX 9 5 1 1
BITMAP
2700
2080
2780
5080
8880
ENDCHAR
STARTCHAR 1139
ENCODING 4409
SWIDTH 990 0
DWIDTH 11 0
BBX 9 5 1 1
BITMAP
2380
2400
2780
5400
8B80
ENDCHAR
STARTCHAR 113A
ENCODING 4410
SWIDTH 990 0
DWIDTH 11 0
BBX 9 5 1 1
BITMAP
2F80
2000
2500
5500
8F80
ENDCHAR
STARTCHAR 113B
ENCODING 4411
SWIDTH 990 0
DWIDTH 11 0
BBX 10 5 1 1
BITMAP
2100
27C0
2280
5440
8B80
ENDCHAR
STARTCHAR 113C
ENCODING 4412
SWIDTH 990 0
DWIDTH 11 0
BBX 7 5 2 1
BITMAP
08
14
22
40
80
ENDCHAR
STARTCHAR 113D
ENCODING 4413
SWIDTH 990 0
DWIDTH 11 0
BBX 10 5 1 1
BITMAP
0880
1540
2200
4400
8800
ENDCHAR
STARTCHAR 113E
ENCODING 4414
SWIDTH 990 0
DWIDTH 11 0
BBX 7 5 2 1
BITMAP
20
50
88
04
02
ENDCHAR
STARTCHAR 113F
ENCODING 4415
SWIDTH 990 0
DWIDTH 11 0
BBX 10 5 1 1
BITMAP
4400
AA00
1100
0880
0440
ENDCHAR
STARTCHAR 1140
ENCODING 4416
SWIDTH 990 0
DWIDTH 11 0
BBX 7 5 2 1
BITMAP
10
28
44
82
FE
ENDCHAR
STARTCHAR 1141
ENCODING 4417
SWIDTH 990 0
DWIDTH 11 0
BBX 9 5 1 1
BITMAP
6700
9080
9080
9080
6080
ENDCHAR
STARTCHAR 1142
ENCODING 4418
SWIDTH 990 0
DWIDTH 11 0
BBX 9 5 1 1
BITMAP
6380
9400
9400
9400
6380
ENDCHAR
STARTCHAR 1143
ENCODING 4419
SWIDTH 990 0
DWIDTH 11 0
BBX 9 5 1 1
BITMAP
6780
9480
9480
9480
6780
ENDCHAR
STARTCHAR 1144
ENCODING 4420
SWIDTH 990 0
DWIDTH 11 0
BBX 9 5 1 1
BITMAP
6480
9780
9480
9480
6300
ENDCHAR
STARTCHAR 1145
ENCODING 4421
SWIDTH 990 0
DWIDTH 11 0
BBX 9 5 1 1
BITMAP
6200
9200
9200
9500
6880
ENDCHAR
STARTCHAR 1146
ENCODING 4422
SWIDTH 990 0
DWIDTH 11 0
BBX 9 5 1 1
BITMAP
6200
9500
9500
9880
6F80
ENDCHAR
STARTCHAR 1147
ENCODING 4423
SWIDTH 990 0
DWIDTH 11 0
BBX 9 5 1 1
BITMAP
6300
9480
9480
9480
6300
ENDCHAR
STARTCHAR 1148
ENCODING 4424
SWIDTH 990 0
DWIDTH 11 0
BBX 9 5 1 1
BITMAP
6F80
9200
9200
9500
6880
ENDCHAR
STARTCHAR 1149
ENCODING 4425
SWIDTH 990 0
DWIDTH 11 0
BBX 9 5 1 1
BITMAP
6700
9000
9F80
9500
6880
ENDCHAR
STARTCHAR 114A
ENCODING 4426
SWIDTH 990 0
DWIDTH 11 0
BBX 9 5 1 1
BITMAP
6380
9400
9780
9400
6380
ENDCHAR
STARTCHAR 114B
ENCODING 4427
SWIDTH 990 0
DWIDTH 11 0
BBX 9 5 1 1
BITMAP
6F80
9000
9500
9500
6F80
ENDCHAR
STARTCHAR 114C
ENCODING 4428
SWIDTH 990 0
DWIDTH 11 0
BBX 6 6 2 0
BITMAP
10
10
78
84
84
78
ENDCHAR
STARTCHAR 114D
ENCODING 4429
SWIDTH 990 0
DWIDTH 11 0
BBX 9 5 1 1
BITMAP
FB00
2480
2480
5480
8B00
ENDCHAR
STARTCHAR 114E
ENCODING 4430
SWIDTH 990 0
DWIDTH 11 0
BBX 7 6 2 1
BITMAP
FE
08
14
22
40
80
ENDCHAR
STARTCHAR 114F
ENCODING 4431
SWIDTH 990 0
DWIDTH 11 0
BBX 10 6 1 1
BITMAP
7FC0
0880
1540
2200
4400
8800
ENDCHAR
STARTCHAR 1150
ENCODING 4432
SWIDTH 990 0
DWIDTH 11 0
BBX 7 6 2 1
BITMAP
FE
20
50
88
04
02
ENDCHAR
STARTCHAR 1151
ENCODING 4433
SWIDTH 990 0
DWIDTH 11 0
BBX 10 6 1 1
BITMAP
FF80
4400
AA00
1100
0880
0440
ENDCHAR
STARTCHAR 1152
ENCODING 4434
SWIDTH 990 0
DWIDTH 11 0
BBX 10 5 1 1
BITMAP
7380
0040
FBC0
5040
8840
ENDCHAR
STARTCHAR 1153
ENCODING 4435
SWIDTH 990 0
DWIDTH 11 0
BBX 10 5 1 1
BITMAP
7100
07C0
FA80
5440
8B80
ENDCHAR
STARTCHAR 1154
ENCODING 4436
SWIDTH 990 0
DWIDTH 11 0
BBX 7 7 2 0
BITMAP
08
FE
08
14
22
40
80
ENDCHAR
STARTCHAR 1155
ENCODING 4437
SWIDTH 990 0
DWIDTH 11 0
BBX 7 7 2 0
BITMAP
20
FE
20
50
88
04
02
ENDCHAR
STARTCHAR 1156
ENCODING 4438
SWIDTH 990 0
DWIDTH 11 0
BBX 10 5 1 1
BITMAP
FA40
03C0
5240
5240
F980
ENDCHAR
STARTCHAR 1157
ENCODING 4439
SWIDTH 990 0
DWIDTH 11 0
BBX 6 8 3 -1
BITMAP
FC
48
48
FC
00
78
84
78
ENDCHAR
STARTCHAR 1158
ENCODING 4440
SWIDTH 990 0
DWIDTH 11 0
BBX 9 5 1 1
BITMAP
2200
FF80
5500
8880
7700
ENDCHAR
STARTCHAR 1159
ENCODING 4441
SWIDTH 990 0
DWIDTH 11 0
BBX 7 5 2 1
BITMAP
FE
00
38
44
38
ENDCHAR
STARTCHAR 115A
ENCODING 4442
SWIDTH 990 0
DWIDTH 11 0
BBX 0 0 0 -2
BITMAP
ENDCHAR
STARTCHAR 115B
ENCODING 4443
SWIDTH 990 0
DWIDTH 11 0
BBX 0 0 0 -2
BITMAP
ENDCHAR
STARTCHAR 115C
ENCODING 4444
SWIDTH 990 0
DWIDTH 11 0
BBX 0 0 0 -2
BITMAP
ENDCHAR
STARTCHAR 115D
ENCODING 4445
SWIDTH 990 0
DWIDTH 11 0
BBX 0 0 0 -2
BITMAP
ENDCHAR
STARTCHAR 115E
ENCODING 4446
SWIDTH 990 0
DWIDTH 11 0
BBX 0 0 0 -2
BITMAP
ENDCHAR
STARTCHAR 115F
ENCODING 4447
SWIDTH 990 0
DWIDTH 11 0
BBX 0 0 0 -2
BITMAP
ENDCHAR
STARTCHAR 1160
ENCODING 4448
SWIDTH 990 0
DWIDTH 11 0
BBX 0 0 0 -2
BITMAP
ENDCHAR
STARTCHAR 1161
ENCODING 4449
SWIDTH 990 0
DWIDTH 11 0
BBX 3 10 5 -2
BITMAP
80
80
80
80
E0
80
80
80
80
80
ENDCHAR
STARTCHAR 1162
ENCODING 4450
SWIDTH 990 0
DWIDTH 11 0
BBX 4 10 4 -2
BITMAP
10
90
90
90
F0
90
90
90
90
10
ENDCHAR
STARTCHAR 1163
ENCODING 4451
SWIDTH 990 0
DWIDTH 11 0
BBX 3 10 5 -2
BITMAP
80
80
80
E0
80
80
E0
80
80
80
ENDCHAR
STARTCHAR 1164
ENCODING 4452
SWIDTH 990 0
DWIDTH 11 0
BBX 4 10 4 -2
BITMAP
10
90
90
F0
90
90
F0
90
90
10
ENDCHAR
STARTCHAR 1165
ENCODING 4453
SWIDTH 990 0
DWIDTH 11 0
BBX 3 10 4 -2
BITMAP
20
20
20
20
E0
20
20
20
20
20
ENDCHAR
STARTCHAR 1166
ENCODING 4454
SWIDTH 990 0
DWIDTH 11 0
BBX 6 10 2 -2
BITMAP
04
24
24
24
E4
24
24
24
24
04
ENDCHAR
STARTCHAR 1167
ENCODING 4455
SWIDTH 990 0
DWIDTH 11 0
BBX 3 10 4 -2
BITMAP
20
20
20
E0
20
20
E0
20
20
20
ENDCHAR
STARTCHAR 1168
ENCODING 4456
SWIDTH 990 0
DWIDTH 11 0
BBX 6 10 2 -2
BITMAP
04
24
24
E4
24
24
E4
24
24
04
ENDCHAR
STARTCHAR 1169
ENCODING 4457
SWIDTH 990 0
DWIDTH 11 0
BBX 9 5 1 1
BITMAP
0800
0800
0800
0800
FF80
ENDCHAR
STARTCHAR 116A
ENCODING 4458
SWIDTH 990 0
DWIDTH 11 0
BBX 9 10 1 -2
BITMAP
0100
0100
0100
2100
2180
2100
2100
FD00
0100
0100
ENDCHAR
STARTCHAR 116B
ENCODING 4459
SWIDTH 990 0
DWIDTH 11 0
BBX 8 10 1 -2
BITMAP
01
05
05
25
25
27
25
F5
05
01
ENDCHAR
STARTCHAR 116C
ENCODING 4460
SWIDTH 990 0
DWIDTH 11 0
BBX 8 10 1 -2
BITMAP
01
01
01
21
21
21
21
FD
01
01
ENDCHAR
STARTCHAR 116D
ENCODING 4461
SWIDTH 990 0
DWIDTH 11 0
BBX 9 5 1 1
BITMAP
1200
1200
1200
1200
FF80
ENDCHAR
STARTCHAR 116E
ENCODING 4462
SWIDTH 990 0
DWIDTH 11 0
BBX 9 6 1 2
BITMAP
FF80
0800
0800
0800
0800
0800
ENDCHAR
STARTCHAR 116F
ENCODING 4463
SWIDTH 990 0
DWIDTH 11 0
BBX 8 10 1 -2
BITMAP
01
01
01
01
FD
11
17
11
21
01
ENDCHAR
STARTCHAR 1170
ENCODING 4464
SWIDTH 990 0
DWIDTH 11 0
BBX 8 10 1 -2
BITMAP
01
05
05
05
F5
25
2D
25
45
01
ENDCHAR
STARTCHAR 1171
ENCODING 4465
SWIDTH 990 0
DWIDTH 11 0
BBX 8 10 1 -2
BITMAP
01
01
01
01
FD
11
11
11
21
01
ENDCHAR
STARTCHAR 1172
ENCODING 4466
SWIDTH 990 0
DWIDTH 11 0
BBX 9 6 1 2
BITMAP
FF80
1200
1200
1200
1200
1200
ENDCHAR
STARTCHAR 1173
ENCODING 4467
SWIDTH 990 0
DWIDTH 11 0
BBX 9 1 1 3
BITMAP
FF80
ENDCHAR
STARTCHAR 1174
ENCODING 4468
SWIDTH 990 0
DWIDTH 11 0
BBX 8 10 1 -2
BITMAP
01
01
01
01
01
01
01
FF
01
01
ENDCHAR
STARTCHAR 1175
ENCODING 4469
SWIDTH 990 0
DWIDTH 11 0
BBX 1 10 5 -2
BITMAP
80
80
80
80
80
80
80
80
80
80
ENDCHAR
STARTCHAR 1176
ENCODING 4470
SWIDTH 990 0
DWIDTH 11 0
BBX 9 9 1 -2
BITMAP
0100
0100
0100
0180
0100
0900
0900
0800
FF80
ENDCHAR
STARTCHAR 1177
ENCODING 4471
SWIDTH 990 0
DWIDTH 11 0
BBX 9 10 1 -2
BITMAP
0100
0100
0180
0100
0100
0000
FF80
0800
0800
0800
ENDCHAR
STARTCHAR 1178
ENCODING 4472
SWIDTH 990 0
DWIDTH 11 0
BBX 9 9 1 -2
BITMAP
0100
0100
0180
0100
0180
0900
0900
0800
FF80
ENDCHAR
STARTCHAR 1179
ENCODING 4473
SWIDTH 990 0
DWIDTH 11 0
BBX 9 9 1 -2
BITMAP
0100
0100
0180
0100
0180
2500
2500
2400
FF80
ENDCHAR
STARTCHAR 117A
ENCODING 4474
SWIDTH 990 0
DWIDTH 11 0
BBX 9 9 1 -2
BITMAP
0100
0100
0100
0700
0100
0900
0900
0800
FF80
ENDCHAR
STARTCHAR 117B
ENCODING 4475
SWIDTH 990 0
DWIDTH 11 0
BBX 9 10 1 -2
BITMAP
0100
0100
0700
0100
0100
0000
FF80
0800
0800
0800
ENDCHAR
STARTCHAR 117C
ENCODING 4476
SWIDTH 990 0
DWIDTH 11 0
BBX 9 9 1 -2
BITMAP
0100
0100
0100
0700
0100
0100
0100
0000
FF80
ENDCHAR
STARTCHAR 117D
ENCODING 4477
SWIDTH 990 0
DWIDTH 11 0
BBX 9 9 1 -2
BITMAP
0100
0100
0700
0100
0700
0900
0900
0800
FF80
ENDCHAR
STARTCHAR 117E
ENCODING 4478
SWIDTH 990 0
DWIDTH 11 0
BBX 9 10 1 -2
BITMAP
0100
0700
0100
0700
0100
0000
FF80
0800
0800
0800
ENDCHAR
STARTCHAR 117F
ENCODING 4479
SWIDTH 990 0
DWIDTH 11 0
BBX 8 10 1 -2
BITMAP
01
01
01
21
27
21
21
FD
01
01
ENDCHAR
STARTCHAR 1180
ENCODING 4480
SWIDTH 990 0
DWIDTH 11 0
BBX 8 10 1 -2
BITMAP
01
05
05
45
5D
45
45
F5
05
01
ENDCHAR
STARTCHAR 1181
ENCODING 4481
SWIDTH 990 0
DWIDTH 11 0
BBX 8 10 1 -2
BITMAP
01
05
05
5D
45
5D
45
F5
05
01
ENDCHAR
STARTCHAR 1182
ENCODING 4482
SWIDTH 990 0
DWIDTH 11 0
BBX 9 8 1 -1
BITMAP
0800
0800
0800
FF80
0000
0800
0800
FF80
ENDCHAR
STARTCHAR 1183
ENCODING 4483
SWIDTH 990 0
DWIDTH 11 0
BBX 9 9 1 -1
BITMAP
0800
0800
0800
FF80
0000
FF80
0800
0800
0800
ENDCHAR
STARTCHAR 1184
ENCODING 4484
SWIDTH 990 0
DWIDTH 11 0
BBX 9 10 1 -2
BITMAP
0100
0100
0100
2980
2900
2900
2980
FD00
0100
0100
ENDCHAR
STARTCHAR 1185
ENCODING 4485
SWIDTH 990 0
DWIDTH 11 0
BBX 8 10 1 -2
BITMAP
01
05
05
57
55
55
57
FD
05
01
ENDCHAR
STARTCHAR 1186
ENCODING 4486
SWIDTH 990 0
DWIDTH 11 0
BBX 8 10 1 -2
BITMAP
01
01
01
57
51
57
51
FD
01
01
ENDCHAR
STARTCHAR 1187
ENCODING 4487
SWIDTH 990 0
DWIDTH 11 0
BBX 9 8 1 -1
BITMAP
1200
1200
1200
FF80
0000
0800
0800
FF80
ENDCHAR
STARTCHAR 1188
ENCODING 4488
SWIDTH 990 0
DWIDTH 11 0
BBX 8 10 1 -2
BITMAP
01
01
01
29
29
29
29
FD
01
01
ENDCHAR
STARTCHAR 1189
ENCODING 4489
SWIDTH 990 0
DWIDTH 11 0
BBX 9 10 1 -2
BITMAP
0100
0100
0100
0100
FD00
1180
1100
1100
2100
0100
ENDCHAR
STARTCHAR 118A
ENCODING 4490
SWIDTH 990 0
DWIDTH 11 0
BBX 8 10 1 -2
BITMAP
01
05
05
05
F7
25
25
25
45
01
ENDCHAR
STARTCHAR 118B
ENCODING 4491
SWIDTH 990 0
DWIDTH 11 0
BBX 9 10 1 -2
BITMAP
0100
0100
0100
0100
FD00
1100
1700
2100
0000
FF80
ENDCHAR
STARTCHAR 118C
ENCODING 4492
SWIDTH 990 0
DWIDTH 11 0
BBX 8 10 1 -2
BITMAP
01
05
05
0D
F5
25
2D
25
45
01
ENDCHAR
STARTCHAR 118D
ENCODING 4493
SWIDTH 990 0
DWIDTH 11 0
BBX 9 8 1 0
BITMAP
FF80
0800
0800
0000
FF80
0800
0800
0800
ENDCHAR
STARTCHAR 118E
ENCODING 4494
SWIDTH 990 0
DWIDTH 11 0
BBX 9 10 1 -2
BITMAP
0100
0100
0100
0100
FD80
2900
2900
2900
2900
0100
ENDCHAR
STARTCHAR 118F
ENCODING 4495
SWIDTH 990 0
DWIDTH 11 0
BBX 8 10 1 -2
BITMAP
01
01
01
01
FB
51
51
51
51
01
ENDCHAR
STARTCHAR 1190
ENCODING 4496
SWIDTH 990 0
DWIDTH 11 0
BBX 8 10 1 -2
BITMAP
01
05
05
05
FD
55
5D
55
55
01
ENDCHAR
STARTCHAR 1191
ENCODING 4497
SWIDTH 990 0
DWIDTH 11 0
BBX 8 10 1 -2
BITMAP
01
01
01
07
F9
51
57
51
51
01
ENDCHAR
STARTCHAR 1192
ENCODING 4498
SWIDTH 990 0
DWIDTH 11 0
BBX 9 10 1 -2
BITMAP
0080
0280
0280
0680
FA80
5280
5680
5280
5280
0080
ENDCHAR
STARTCHAR 1193
ENCODING 4499
SWIDTH 990 0
DWIDTH 11 0
BBX 9 8 1 0
BITMAP
FF80
1200
1200
0000
FF80
0800
0800
0800
ENDCHAR
STARTCHAR 1194
ENCODING 4500
SWIDTH 990 0
DWIDTH 11 0
BBX 8 10 1 -2
BITMAP
01
01
01
01
FD
29
29
29
29
01
ENDCHAR
STARTCHAR 1195
ENCODING 4501
SWIDTH 990 0
DWIDTH 11 0
BBX 9 7 1 1
BITMAP
FF80
0000
0000
FF80
0800
0800
0800
ENDCHAR
STARTCHAR 1196
ENCODING 4502
SWIDTH 990 0
DWIDTH 11 0
BBX 9 4 1 1
BITMAP
FF80
0000
0000
FF80
ENDCHAR
STARTCHAR 1197
ENCODING 4503
SWIDTH 990 0
DWIDTH 11 0
BBX 9 10 1 -2
BITMAP
0100
0100
0100
FF00
0100
0000
FF80
0800
0800
0800
ENDCHAR
STARTCHAR 1198
ENCODING 4504
SWIDTH 990 0
DWIDTH 11 0
BBX 6 10 3 -2
BITMAP
10
90
90
90
9C
90
90
90
90
10
ENDCHAR
STARTCHAR 1199
ENCODING 4505
SWIDTH 990 0
DWIDTH 11 0
BBX 6 10 3 -2
BITMAP
10
90
90
9C
90
90
9C
90
90
10
ENDCHAR
STARTCHAR 119A
ENCODING 4506
SWIDTH 990 0
DWIDTH 11 0
BBX 9 9 1 -2
BITMAP
0100
0100
0100
0100
0100
0900
0800
0800
FF80
ENDCHAR
STARTCHAR 119B
ENCODING 4507
SWIDTH 990 0
DWIDTH 11 0
BBX 9 10 1 -2
BITMAP
0100
0100
0100
0100
0100
0000
FF80
0800
0800
0800
ENDCHAR
STARTCHAR 119C
ENCODING 4508
SWIDTH 990 0
DWIDTH 11 0
BBX 9 9 1 -2
BITMAP
0100
0100
0100
0100
0100
0100
0000
0000
FF80
ENDCHAR
STARTCHAR 119D
ENCODING 4509
SWIDTH 990 0
DWIDTH 11 0
BBX 2 10 4 -2
BITMAP
40
40
40
40
40
40
00
00
C0
40
ENDCHAR
STARTCHAR 119E
ENCODING 4510
SWIDTH 990 0
DWIDTH 11 0
BBX 2 2 4 2
BITMAP
C0
40
ENDCHAR
STARTCHAR 119F
ENCODING 4511
SWIDTH 990 0
DWIDTH 11 0
BBX 6 10 2 -2
BITMAP
04
04
04
04
1C
04
04
C4
44
04
ENDCHAR
STARTCHAR 11A0
ENCODING 4512
SWIDTH 990 0
DWIDTH 11 0
BBX 9 8 1 0
BITMAP
1800
0800
0000
FF80
0800
0800
0800
0800
ENDCHAR
STARTCHAR 11A1
ENCODING 4513
SWIDTH 990 0
DWIDTH 11 0
BBX 5 10 2 -2
BITMAP
08
08
08
08
C8
48
08
08
08
08
ENDCHAR
STARTCHAR 11A2
ENCODING 4514
SWIDTH 990 0
DWIDTH 11 0
BBX 6 2 2 2
BITMAP
CC
44
ENDCHAR
STARTCHAR 11A3
ENCODING 4515
SWIDTH 990 0
DWIDTH 11 0
BBX 0 0 0 -2
BITMAP
ENDCHAR
STARTCHAR 11A4
ENCODING 4516
SWIDTH 990 0
DWIDTH 11 0
BBX 0 0 0 -2
BITMAP
ENDCHAR
STARTCHAR 11A5
ENCODING 4517
SWIDTH 990 0
DWIDTH 11 0
BBX 0 0 0 -2
BITMAP
ENDCHAR
STARTCHAR 11A6
ENCODING 4518
SWIDTH 990 0
DWIDTH 11 0
BBX 0 0 0 -2
BITMAP
ENDCHAR
STARTCHAR 11A7
ENCODING 4519
SWIDTH 990 0
DWIDTH 11 0
BBX 0 0 0 -2
BITMAP
ENDCHAR
STARTCHAR 11A8
ENCODING 4520
SWIDTH 990 0
DWIDTH 11 0
BBX 6 5 2 1
BITMAP
F8
04
04
04
04
ENDCHAR
STARTCHAR 11A9
ENCODING 4521
SWIDTH 990 0
DWIDTH 11 0
BBX 9 5 1 1
BITMAP
E700
1080
1080
1080
1080
ENDCHAR
STARTCHAR 11AA
ENCODING 4522
SWIDTH 990 0
DWIDTH 11 0
BBX 9 5 1 1
BITMAP
E200
1200
1200
1500
1880
ENDCHAR
STARTCHAR 11AB
ENCODING 4523
SWIDTH 990 0
DWIDTH 11 0
BBX 6 5 3 1
BITMAP
80
80
80
80
7C
ENDCHAR
STARTCHAR 11AC
ENCODING 4524
SWIDTH 990 0
DWIDTH 11 0
BBX 9 5 1 1
BITMAP
8F80
8200
8200
8500
7880
ENDCHAR
STARTCHAR 11AD
ENCODING 4525
SWIDTH 990 0
DWIDTH 11 0
BBX 10 5 1 1
BITMAP
8200
9FC0
8500
8880
7700
ENDCHAR
STARTCHAR 11AE
ENCODING 4526
SWIDTH 990 0
DWIDTH 11 0
BBX 6 5 3 1
BITMAP
7C
80
80
80
7C
ENDCHAR
STARTCHAR 11AF
ENCODING 4527
SWIDTH 990 0
DWIDTH 11 0
BBX 6 5 2 1
BITMAP
F8
04
78
80
7C
ENDCHAR
STARTCHAR 11B0
ENCODING 4528
SWIDTH 990 0
DWIDTH 11 0
BBX 9 5 1 1
BITMAP
E700
1080
6080
8080
7080
ENDCHAR
STARTCHAR 11B1
ENCODING 4529
SWIDTH 990 0
DWIDTH 11 0
BBX 9 5 1 1
BITMAP
E780
1480
6480
8480
7780
ENDCHAR
STARTCHAR 11B2
ENCODING 4530
SWIDTH 990 0
DWIDTH 11 0
BBX 9 5 1 1
BITMAP
E480
1780
6480
8480
7300
ENDCHAR
STARTCHAR 11B3
ENCODING 4531
SWIDTH 990 0
DWIDTH 11 0
BBX 10 5 1 1
BITMAP
E100
1100
6100
8280
7440
ENDCHAR
STARTCHAR 11B4
ENCODING 4532
SWIDTH 990 0
DWIDTH 11 0
BBX 9 5 1 1
BITMAP
E380
1400
6780
8400
7380
ENDCHAR
STARTCHAR 11B5
ENCODING 4533
SWIDTH 990 0
DWIDTH 11 0
BBX 10 5 1 1
BITMAP
E7C0
1000
6280
8280
77C0
ENDCHAR
STARTCHAR 11B6
ENCODING 4534
SWIDTH 990 0
DWIDTH 11 0
BBX 10 5 1 1
BITMAP
E100
17C0
6280
8440
7380
ENDCHAR
STARTCHAR 11B7
ENCODING 4535
SWIDTH 990 0
DWIDTH 11 0
BBX 6 5 3 1
BITMAP
FC
84
84
84
FC
ENDCHAR
STARTCHAR 11B8
ENCODING 4536
SWIDTH 990 0
DWIDTH 11 0
BBX 6 5 3 1
BITMAP
84
FC
84
84
78
ENDCHAR
STARTCHAR 11B9
ENCODING 4537
SWIDTH 990 0
DWIDTH 11 0
BBX 9 5 1 1
BITMAP
9200
F200
9200
9500
6880
ENDCHAR
STARTCHAR 11BA
ENCODING 4538
SWIDTH 990 0
DWIDTH 11 0
BBX 7 5 2 1
BITMAP
10
10
28
44
82
ENDCHAR
STARTCHAR 11BB
ENCODING 4539
SWIDTH 990 0
DWIDTH 11 0
BBX 9 5 1 1
BITMAP
2200
2200
2200
5500
8880
ENDCHAR
STARTCHAR 11BC
ENCODING 4540
SWIDTH 990 0
DWIDTH 11 0
BBX 6 5 3 1
BITMAP
78
84
84
84
78
ENDCHAR
STARTCHAR 11BD
ENCODING 4541
SWIDTH 990 0
DWIDTH 11 0
BBX 7 5 2 1
BITMAP
FE
10
10
28
C6
ENDCHAR
STARTCHAR 11BE
ENCODING 4542
SWIDTH 990 0
DWIDTH 11 0
BBX 7 6 2 0
BITMAP
38
00
FE
10
28
C6
ENDCHAR
STARTCHAR 11BF
ENCODING 4543
SWIDTH 990 0
DWIDTH 11 0
BBX 6 5 2 1
BITMAP
F8
04
FC
04
04
ENDCHAR
STARTCHAR 11C0
ENCODING 4544
SWIDTH 990 0
DWIDTH 11 0
BBX 6 5 3 1
BITMAP
7C
80
FC
80
7C
ENDCHAR
STARTCHAR 11C1
ENCODING 4545
SWIDTH 990 0
DWIDTH 11 0
BBX 6 5 2 1
BITMAP
FC
00
48
48
FC
ENDCHAR
STARTCHAR 11C2
ENCODING 4546
SWIDTH 990 0
DWIDTH 11 0
BBX 7 6 2 0
BITMAP
38
00
FE
28
44
38
ENDCHAR
STARTCHAR 11C3
ENCODING 4547
SWIDTH 990 0
DWIDTH 11 0
BBX 9 5 1 1
BITMAP
E700
1080
1300
1400
1380
ENDCHAR
STARTCHAR 11C4
ENCODING 4548
SWIDTH 990 0
DWIDTH 11 0
BBX 10 5 1 1
BITMAP
C580
2440
2440
2A40
3140
ENDCHAR
STARTCHAR 11C5
ENCODING 4549
SWIDTH 990 0
DWIDTH 11 0
BBX 8 5 2 1
BITMAP
8E
81
81
81
71
ENDCHAR
STARTCHAR 11C6
ENCODING 4550
SWIDTH 990 0
DWIDTH 11 0
BBX 9 5 1 1
BITMAP
8380
8400
8400
8400
7380
ENDCHAR
STARTCHAR 11C7
ENCODING 4551
SWIDTH 990 0
DWIDTH 11 0
BBX 9 5 1 1
BITMAP
8200
8200
8200
8500
7880
ENDCHAR
STARTCHAR 11C8
ENCODING 4552
SWIDTH 990 0
DWIDTH 11 0
BBX 9 5 1 1
BITMAP
8200
8500
8500
8880
7F80
ENDCHAR
STARTCHAR 11C9
ENCODING 4553
SWIDTH 990 0
DWIDTH 11 0
BBX 9 5 1 1
BITMAP
8380
8400
8780
8400
7380
ENDCHAR
STARTCHAR 11CA
ENCODING 4554
SWIDTH 990 0
DWIDTH 11 0
BBX 9 5 1 1
BITMAP
7700
8080
8080
8080
7080
ENDCHAR
STARTCHAR 11CB
ENCODING 4555
SWIDTH 990 0
DWIDTH 11 0
BBX 9 5 1 1
BITMAP
7700
8080
8300
8400
7380
ENDCHAR
STARTCHAR 11CC
ENCODING 4556
SWIDTH 990 0
DWIDTH 11 0
BBX 10 5 1 1
BITMAP
D880
2480
C480
8540
6540
ENDCHAR
STARTCHAR 11CD
ENCODING 4557
SWIDTH 990 0
DWIDTH 11 0
BBX 9 5 1 1
BITMAP
E400
1400
6400
8400
7380
ENDCHAR
STARTCHAR 11CE
ENCODING 4558
SWIDTH 990 0
DWIDTH 11 0
BBX 9 5 1 1
BITMAP
E380
1400
6400
8400
7380
ENDCHAR
STARTCHAR 11CF
ENCODING 4559
SWIDTH 990 0
DWIDTH 11 0
BBX 10 5 1 1
BITMAP
DC80
53C0
D180
9240
7D80
ENDCHAR
STARTCHAR 11D0
ENCODING 4560
SWIDTH 990 0
DWIDTH 11 0
BBX 9 5 1 1
BITMAP
E700
1080
6300
8400
7380
ENDCHAR
STARTCHAR 11D1
ENCODING 4561
SWIDTH 990 0
DWIDTH 11 0
BBX 10 5 1 1
BITMAP
CF80
2A40
CA40
8A40
6E40
ENDCHAR
STARTCHAR 11D2
ENCODING 4562
SWIDTH 990 0
DWIDTH 11 0
BBX 10 5 1 1
BITMAP
CE80
2A80
CA80
8B40
6E40
ENDCHAR
STARTCHAR 11D3
ENCODING 4563
SWIDTH 990 0
DWIDTH 11 0
BBX 10 5 1 1
BITMAP
CA80
2E80
CA80
8B40
6540
ENDCHAR
STARTCHAR 11D4
ENCODING 4564
SWIDTH 990 0
DWIDTH 11 0
BBX 10 5 1 1
BITMAP
D480
5FC0
D580
9640
6980
ENDCHAR
STARTCHAR 11D5
ENCODING 4565
SWIDTH 990 0
DWIDTH 11 0
BBX 9 7 1 0
BITMAP
0480
E780
1480
6780
8300
7480
0300
ENDCHAR
STARTCHAR 11D6
ENCODING 4566
SWIDTH 990 0
DWIDTH 11 0
BBX 9 5 1 1
BITMAP
C900
2900
C900
9680
7480
ENDCHAR
STARTCHAR 11D7
ENCODING 4567
SWIDTH 990 0
DWIDTH 11 0
BBX 10 5 1 1
BITMAP
E100
1280
6280
8440
77C0
ENDCHAR
STARTCHAR 11D8
ENCODING 4568
SWIDTH 990 0
DWIDTH 11 0
BBX 9 5 1 1
BITMAP
E700
1080
6780
8080
7080
ENDCHAR
STARTCHAR 11D9
ENCODING 4569
SWIDTH 990 0
DWIDTH 11 0
BBX 9 5 1 1
BITMAP
E780
1000
6300
8480
7300
ENDCHAR
STARTCHAR 11DA
ENCODING 4570
SWIDTH 990 0
DWIDTH 11 0
BBX 9 5 1 1
BITMAP
F700
9080
9080
9080
F080
ENDCHAR
STARTCHAR 11DB
ENCODING 4571
SWIDTH 990 0
DWIDTH 11 0
BBX 9 5 1 1
BITMAP
F700
9080
9300
9400
F380
ENDCHAR
STARTCHAR 11DC
ENCODING 4572
SWIDTH 990 0
DWIDTH 11 0
BBX 9 5 1 1
BITMAP
F480
9780
9480
9480
F300
ENDCHAR
STARTCHAR 11DD
ENCODING 4573
SWIDTH 990 0
DWIDTH 11 0
BBX 9 5 1 1
BITMAP
F200
9200
9200
9500
F880
ENDCHAR
STARTCHAR 11DE
ENCODING 4574
SWIDTH 990 0
DWIDTH 11 0
BBX 9 5 1 1
BITMAP
E900
A900
A900
B680
E480
ENDCHAR
STARTCHAR 11DF
ENCODING 4575
SWIDTH 990 0
DWIDTH 11 0
BBX 10 5 1 1
BITMAP
F100
9280
9280
9440
F7C0
ENDCHAR
STARTCHAR 11E0
ENCODING 4576
SWIDTH 990 0
DWIDTH 11 0
BBX 10 5 1 1
BITMAP
F380
9000
97C0
9280
F440
ENDCHAR
STARTCHAR 11E1
ENCODING 4577
SWIDTH 990 0
DWIDTH 11 0
BBX 10 5 1 1
BITMAP
F100
97C0
9280
9440
F380
ENDCHAR
STARTCHAR 11E2
ENCODING 4578
SWIDTH 990 0
DWIDTH 11 0
BBX 5 8 3 -1
BITMAP
F8
88
88
F8
00
70
88
70
ENDCHAR
STARTCHAR 11E3
ENCODING 4579
SWIDTH 990 0
DWIDTH 11 0
BBX 9 5 1 1
BITMAP
9700
F080
9300
9400
6380
ENDCHAR
STARTCHAR 11E4
ENCODING 4580
SWIDTH 990 0
DWIDTH 11 0
BBX 10 5 1 1
BITMAP
97C0
F000
9280
9280
67C0
ENDCHAR
STARTCHAR 11E5
ENCODING 4581
SWIDTH 990 0
DWIDTH 11 0
BBX 10 5 1 1
BITMAP
9100
F7C0
9280
9440
6380
ENDCHAR
STARTCHAR 11E6
ENCODING 4582
SWIDTH 990 0
DWIDTH 11 0
BBX 5 8 3 -1
BITMAP
88
F8
88
70
00
70
88
70
ENDCHAR
STARTCHAR 11E7
ENCODING 4583
SWIDTH 990 0
DWIDTH 11 0
BBX 9 5 1 1
BITMAP
2700
2080
2080
5080
8880
ENDCHAR
STARTCHAR 11E8
ENCODING 4584
SWIDTH 990 0
DWIDTH 11 0
BBX 9 5 1 1
BITMAP
2380
2400
2400
5400
8B80
ENDCHAR
STARTCHAR 11E9
ENCODING 4585
SWIDTH 990 0
DWIDTH 11 0
BBX 9 5 1 1
BITMAP
2700
2080
2300
5400
8B80
ENDCHAR
STARTCHAR 11EA
ENCODING 4586
SWIDTH 990 0
DWIDTH 11 0
BBX 9 5 1 1
BITMAP
2480
2780
2480
5480
8B00
ENDCHAR
STARTCHAR 11EB
ENCODING 4587
SWIDTH 990 0
DWIDTH 11 0
BBX 7 5 2 1
BITMAP
10
28
44
82
FE
ENDCHAR
STARTCHAR 11EC
ENCODING 4588
SWIDTH 990 0
DWIDTH 11 0
BBX 9 5 1 1
BITMAP
6700
9080
9080
9080
6080
ENDCHAR
STARTCHAR 11ED
ENCODING 4589
SWIDTH 990 0
DWIDTH 11 0
BBX 10 5 1 1
BITMAP
6D80
9240
9240
9240
6240
ENDCHAR
STARTCHAR 11EE
ENCODING 4590
SWIDTH 990 0
DWIDTH 11 0
BBX 9 5 1 1
BITMAP
6300
9480
9480
9480
6300
ENDCHAR
STARTCHAR 11EF
ENCODING 4591
SWIDTH 990 0
DWIDTH 11 0
BBX 9 5 1 1
BITMAP
6700
9080
9780
9080
6080
ENDCHAR
STARTCHAR 11F0
ENCODING 4592
SWIDTH 990 0
DWIDTH 11 0
BBX 6 6 2 0
BITMAP
10
10
78
84
84
78
ENDCHAR
STARTCHAR 11F1
ENCODING 4593
SWIDTH 990 0
DWIDTH 11 0
BBX 9 5 1 1
BITMAP
4200
6200
9200
9500
6880
ENDCHAR
STARTCHAR 11F2
ENCODING 4594
SWIDTH 990 0
DWIDTH 11 0
BBX 9 5 1 1
BITMAP
4200
6500
9500
9880
6F80
ENDCHAR
STARTCHAR 11F3
ENCODING 4595
SWIDTH 990 0
DWIDTH 11 0
BBX 10 5 1 1
BITMAP
FA40
03C0
5240
5240
F980
ENDCHAR
STARTCHAR 11F4
ENCODING 4596
SWIDTH 990 0
DWIDTH 11 0
BBX 6 8 3 -1
BITMAP
FC
48
48
FC
00
78
84
78
ENDCHAR
STARTCHAR 11F5
ENCODING 4597
SWIDTH 990 0
DWIDTH 11 0
BBX 10 5 1 1
BITMAP
2200
FA00
5200
8A00
71C0
ENDCHAR
STARTCHAR 11F6
ENCODING 4598
SWIDTH 990 0
DWIDTH 11 0
BBX 10 5 1 1
BITMAP
2380
F840
5180
8A00
71C0
ENDCHAR
STARTCHAR 11F7
ENCODING 4599
SWIDTH 990 0
DWIDTH 11 0
BBX 10 5 1 1
BITMAP
23C0
FA40
5240
8A40
73C0
ENDCHAR
STARTCHAR 11F8
ENCODING 4600
SWIDTH 990 0
DWIDTH 11 0
BBX 10 5 1 1
BITMAP
2240
FBC0
5240
8A40
7180
ENDCHAR
STARTCHAR 11F9
ENCODING 4601
SWIDTH 990 0
DWIDTH 11 0
BBX 7 5 2 1
BITMAP
FE
00
38
44
38
ENDCHAR
STARTCHAR 1E80
ENCODING 7808
SWIDTH 900 0
DWIDTH 10 0
BBX 9 9 0 0
BITMAP
0800
8800
8C80
8C80
5480
5500
5300
2300
2200
ENDCHAR
STARTCHAR 1E81
ENCODING 7809
SWIDTH 720 0
DWIDTH 8 0
BBX 8 8 0 0
BITMAP
10
00
81
9A
5A
6A
24
24
ENDCHAR
STARTCHAR 1E82
ENCODING 7810
SWIDTH 900 0
DWIDTH 10 0
BBX 9 9 0 0
BITMAP
0800
8800
8C80
8C80
5480
5500
5300
2300
2200
ENDCHAR
STARTCHAR 1E83
ENCODING 7811
SWIDTH 720 0
DWIDTH 8 0
BBX 8 8 0 0
BITMAP
08
10
81
9A
5A
6A
24
24
ENDCHAR
STARTCHAR 1E84
ENCODING 7812
SWIDTH 900 0
DWIDTH 10 0
BBX 9 9 0 0
BITMAP
1400
8800
8C80
8C80
5480
5500
5300
2300
2200
ENDCHAR
STARTCHAR 1E85
ENCODING 7813
SWIDTH 720 0
DWIDTH 8 0
BBX 8 7 0 0
BITMAP
3C
81
9A
5A
6A
24
24
ENDCHAR
STARTCHAR 1EF2
ENCODING 7922
SWIDTH 630 0
DWIDTH 7 0
BBX 6 9 0 0
BITMAP
10
80
44
48
30
10
10
10
10
ENDCHAR
STARTCHAR 1EF3
ENCODING 7923
SWIDTH 540 0
DWIDTH 6 0
BBX 5 10 0 -2
BITMAP
20
00
88
88
50
50
20
20
20
C0
ENDCHAR
STARTCHAR 2013
ENCODING 8211
SWIDTH 540 0
DWIDTH 6 0
BBX 6 1 0 3
BITMAP
FC
ENDCHAR
STARTCHAR 2014
ENCODING 8212
SWIDTH 990 0
DWIDTH 11 0
BBX 11 1 0 3
BITMAP
FFE0
ENDCHAR
STARTCHAR 2015
ENCODING 8213
SWIDTH 720 0
DWIDTH 8 0
BBX 8 1 0 3
BITMAP
FF
ENDCHAR
STARTCHAR 2017
ENCODING 8215
SWIDTH 540 0
DWIDTH 6 0
BBX 6 2 0 -2
BITMAP
FC
FC
ENDCHAR
STARTCHAR 2018
ENCODING 8216
SWIDTH 360 0
DWIDTH 4 0
BBX 1 1 1 8
BITMAP
80
ENDCHAR
STARTCHAR 2019
ENCODING 8217
SWIDTH 360 0
DWIDTH 4 0
BBX 1 1 1 7
BITMAP
80
ENDCHAR
STARTCHAR 201A
ENCODING 8218
SWIDTH 360 0
DWIDTH 4 0
BBX 1 1 1 -1
BITMAP
80
ENDCHAR
STARTCHAR 201B
ENCODING 8219
SWIDTH 360 0
DWIDTH 4 0
BBX 1 2 1 7
BITMAP
80
80
ENDCHAR
STARTCHAR 201C
ENCODING 8220
SWIDTH 540 0
DWIDTH 6 0
BBX 3 2 1 7
BITMAP
20
A0
ENDCHAR
STARTCHAR 201D
ENCODING 8221
SWIDTH 540 0
DWIDTH 6 0
BBX 3 2 1 7
BITMAP
A0
20
ENDCHAR
STARTCHAR 201E
ENCODING 8222
SWIDTH 540 0
DWIDTH 6 0
BBX 3 2 1 -1
BITMAP
A0
20
ENDCHAR
STARTCHAR 2020
ENCODING 8224
SWIDTH 540 0
DWIDTH 6 0
BBX 6 10 0 -2
BITMAP
10
10
FC
10
10
10
10
10
10
10
ENDCHAR
STARTCHAR 2021
ENCODING 8225
SWIDTH 540 0
DWIDTH 6 0
BBX 6 9 0 -1
BITMAP
10
10
FC
10
10
10
FC
10
10
ENDCHAR
STARTCHAR 2022
ENCODING 8226
SWIDTH 360 0
DWIDTH 4 0
BBX 2 2 1 3
BITMAP
C0
C0
ENDCHAR
STARTCHAR 2025
ENCODING 8229
SWIDTH 990 0
DWIDTH 11 0
BBX 7 1 2 4
BITMAP
C6
ENDCHAR
STARTCHAR 2026
ENCODING 8230
SWIDTH 990 0
DWIDTH 11 0
BBX 9 1 1 4
BITMAP
C980
ENDCHAR
STARTCHAR 2030
ENCODING 8240
SWIDTH 990 0
DWIDTH 11 0
BBX 11 8 0 0
BITMAP
6080
9100
9600
6800
1CC0
7320
1320
0CC0
ENDCHAR
STARTCHAR 2032
ENCODING 8242
SWIDTH 360 0
DWIDTH 4 0
BBX 2 2 1 6
BITMAP
40
80
ENDCHAR
STARTCHAR 2033
ENCODING 8243
SWIDTH 540 0
DWIDTH 6 0
BBX 3 2 1 6
BITMAP
60
80
ENDCHAR
STARTCHAR 2039
ENCODING 8249
SWIDTH 360 0
DWIDTH 4 0
BBX 2 3 1 3
BITMAP
C0
80
40
ENDCHAR
STARTCHAR 203A
ENCODING 8250
SWIDTH 360 0
DWIDTH 4 0
BBX 2 4 1 2
BITMAP
80
40
40
80
ENDCHAR
STARTCHAR 203B
ENCODING 8251
SWIDTH 990 0
DWIDTH 11 0
BBX 7 7 2 1
BITMAP
94
58
F6
F6
58
94
02
ENDCHAR
STARTCHAR 203C
ENCODING 8252
SWIDTH 630 0
DWIDTH 7 0
BBX 3 8 2 0
BITMAP
A0
A0
A0
A0
A0
20
00
A0
ENDCHAR
STARTCHAR 203E
ENCODING 8254
SWIDTH 540 0
DWIDTH 6 0
BBX 6 1 0 8
BITMAP
FC
ENDCHAR
STARTCHAR 2044
ENCODING 8260
SWIDTH 450 0
DWIDTH 5 0
BBX 4 8 0 0
BITMAP
10
20
20
20
40
40
40
80
ENDCHAR
STARTCHAR 2074
ENCODING 8308
SWIDTH 990 0
DWIDTH 11 0
BBX 3 4 1 5
BITMAP
40
C0
E0
40
ENDCHAR
STARTCHAR 207F
ENCODING 8319
SWIDTH 450 0
DWIDTH 5 0
BBX 3 4 1 3
BITMAP
E0
A0
A0
A0
ENDCHAR
STARTCHAR 2081
ENCODING 8321
SWIDTH 990 0
DWIDTH 11 0
BBX 1 4 1 -1
BITMAP
80
80
80
80
ENDCHAR
STARTCHAR 2082
ENCODING 8322
SWIDTH 990 0
DWIDTH 11 0
BBX 3 4 1 -1
BITMAP
C0
40
80
E0
ENDCHAR
STARTCHAR 2083
ENCODING 8323
SWIDTH 990 0
DWIDTH 11 0
BBX 3 4 1 -1
BITMAP
C0
40
20
E0
ENDCHAR
STARTCHAR 2084
ENCODING 8324
SWIDTH 990 0
DWIDTH 11 0
BBX 3 4 1 -1
BITMAP
40
C0
E0
40
ENDCHAR
STARTCHAR 20A3
ENCODING 8355
SWIDTH 630 0
DWIDTH 7 0
BBX 6 8 0 0
BITMAP
7C
40
40
F8
F8
40
40
40
ENDCHAR
STARTCHAR 20A4
ENCODING 8356
SWIDTH 630 0
DWIDTH 7 0
BBX 6 9 0 -1
BITMAP
18
24
24
78
78
20
60
B4
78
ENDCHAR
STARTCHAR 20A7
ENCODING 8359
SWIDTH 630 0
DWIDTH 7 0
BBX 7 8 0 0
BITMAP
7C
44
FE
44
7C
40
40
40
ENDCHAR
STARTCHAR 20A9
ENCODING 8361
SWIDTH 990 0
DWIDTH 11 0
BBX 11 8 0 0
BITMAP
4440
4440
FFE0
4440
2A80
2A80
1100
1100
ENDCHAR
STARTCHAR 20AC
ENCODING 8364
SWIDTH 720 0
DWIDTH 8 0
BBX 7 9 0 -1
BITMAP
1C
62
40
FC
40
FC
40
62
3C
ENDCHAR
STARTCHAR 2103
ENCODING 8451
SWIDTH 990 0
DWIDTH 11 0
BBX 7 8 2 0
BITMAP
DC
E2
42
40
40
42
22
1C
ENDCHAR
STARTCHAR 2105
ENCODING 8453
SWIDTH 810 0
DWIDTH 9 0
BBX 7 8 1 0
BITMAP
C2
A4
A8
D0
16
2A
4A
06
ENDCHAR
STARTCHAR 2109
ENCODING 8457
SWIDTH 990 0
DWIDTH 11 0
BBX 9 8 1 1
BITMAP
0780
C800
C800
0800
0F00
0800
0800
0800
ENDCHAR
STARTCHAR 2113
ENCODING 8467
SWIDTH 540 0
DWIDTH 6 0
BBX 3 9 1 -1
BITMAP
20
60
60
A0
A0
C0
80
A0
40
ENDCHAR
STARTCHAR 2116
ENCODING 8470
SWIDTH 990 0
DWIDTH 11 0
BBX 9 8 1 0
BITMAP
8800
8800
C800
CB80
AC80
AC80
9C80
8F80
ENDCHAR
STARTCHAR 2121
ENCODING 8481
SWIDTH 990 0
DWIDTH 11 0
BBX 9 8 1 0
BITMAP
F880
4080
4C80
5280
4E80
5080
4A80
4C80
ENDCHAR
STARTCHAR 2122
ENCODING 8482
SWIDTH 990 0
DWIDTH 11 0
BBX 9 5 1 4
BITMAP
F880
4480
4D80
4B80
4280
ENDCHAR
STARTCHAR 2126
ENCODING 8486
SWIDTH 720 0
DWIDTH 8 0
BBX 6 8 1 0
BITMAP
78
84
84
84
84
58
B4
EC
ENDCHAR
STARTCHAR 212B
ENCODING 8491
SWIDTH 990 0
DWIDTH 11 0
BBX 7 8 2 1
BITMAP
10
10
10
28
28
44
7C
82
ENDCHAR
STARTCHAR 212E
ENCODING 8494
SWIDTH 720 0
DWIDTH 8 0
BBX 7 7 1 -1
BITMAP
78
84
84
FE
80
84
78
ENDCHAR
STARTCHAR 2153
ENCODING 8531
SWIDTH 990 0
DWIDTH 11 0
BBX 10 10 0 -1
BITMAP
2000
60C0
2100
2200
2400
29C0
1140
20C0
4240
81C0
ENDCHAR
STARTCHAR 2154
ENCODING 8532
SWIDTH 990 0
DWIDTH 11 0
BBX 10 10 0 -1
BITMAP
3000
50C0
1100
6200
7400
09C0
1140
20C0
4240
81C0
ENDCHAR
STARTCHAR 215B
ENCODING 8539
SWIDTH 540 0
DWIDTH 6 0
BBX 5 9 1 -1
BITMAP
40
40
40
00
F8
60
60
A0
60
ENDCHAR
STARTCHAR 215C
ENCODING 8540
SWIDTH 540 0
DWIDTH 6 0
BBX 5 9 1 -2
BITMAP
60
20
20
60
F8
60
60
A0
60
ENDCHAR
STARTCHAR 215D
ENCODING 8541
SWIDTH 540 0
DWIDTH 6 0
BBX 5 9 1 -2
BITMAP
60
60
20
60
F8
60
60
A0
60
ENDCHAR
STARTCHAR 215E
ENCODING 8542
SWIDTH 540 0
DWIDTH 6 0
BBX 5 9 1 -2
BITMAP
70
20
20
40
F8
60
60
A0
60
ENDCHAR
STARTCHAR 2160
ENCODING 8544
SWIDTH 990 0
DWIDTH 11 0
BBX 1 8 5 0
BITMAP
80
80
80
80
80
80
80
80
ENDCHAR
STARTCHAR 2161
ENCODING 8545
SWIDTH 990 0
DWIDTH 11 0
BBX 5 8 3 0
BITMAP
88
88
88
88
88
88
88
88
ENDCHAR
STARTCHAR 2162
ENCODING 8546
SWIDTH 990 0
DWIDTH 11 0
BBX 7 8 2 0
BITMAP
92
92
92
92
92
92
92
92
ENDCHAR
STARTCHAR 2163
ENCODING 8547
SWIDTH 990 0
DWIDTH 11 0
BBX 8 8 2 0
BITMAP
A1
A2
A2
92
94
94
8C
88
ENDCHAR
STARTCHAR 2164
ENCODING 8548
SWIDTH 990 0
DWIDTH 11 0
BBX 7 8 2 0
BITMAP
82
84
44
48
28
28
30
10
ENDCHAR
STARTCHAR 2165
ENCODING 8549
SWIDTH 990 0
DWIDTH 11 0
BBX 8 8 1 0
BITMAP
85
85
49
49
49
31
31
11
ENDCHAR
STARTCHAR 2166
ENCODING 8550
SWIDTH 990 0
DWIDTH 11 0
BBX 8 8 1 0
BITMAP
8D
8D
95
55
55
65
65
25
ENDCHAR
STARTCHAR 2167
ENCODING 8551
SWIDTH 990 0
DWIDTH 11 0
BBX 9 8 1 0
BITMAP
9A80
9A80
AA80
AA80
AA80
AA80
4A80
4A80
ENDCHAR
STARTCHAR 2168
ENCODING 8552
SWIDTH 990 0
DWIDTH 11 0
BBX 8 8 2 0
BITMAP
A2
92
94
88
8C
94
92
A1
ENDCHAR
STARTCHAR 2169
ENCODING 8553
SWIDTH 990 0
DWIDTH 11 0
BBX 6 8 2 0
BITMAP
84
44
28
10
30
28
44
84
ENDCHAR
STARTCHAR 2170
ENCODING 8560
SWIDTH 990 0
DWIDTH 11 0
BBX 1 8 5 0
BITMAP
80
80
80
80
80
80
80
80
ENDCHAR
STARTCHAR 2171
ENCODING 8561
SWIDTH 990 0
DWIDTH 11 0
BBX 5 8 3 0
BITMAP
88
88
88
88
88
88
88
88
ENDCHAR
STARTCHAR 2172
ENCODING 8562
SWIDTH 990 0
DWIDTH 11 0
BBX 7 8 2 0
BITMAP
92
92
92
92
92
92
92
92
ENDCHAR
STARTCHAR 2173
ENCODING 8563
SWIDTH 990 0
DWIDTH 11 0
BBX 7 8 2 0
BITMAP
80
80
A2
92
92
94
8C
88
ENDCHAR
STARTCHAR 2174
ENCODING 8564
SWIDTH 990 0
DWIDTH 11 0
BBX 5 6 3 0
BITMAP
88
88
50
50
20
20
ENDCHAR
STARTCHAR 2175
ENCODING 8565
SWIDTH 990 0
DWIDTH 11 0
BBX 7 8 2 0
BITMAP
02
02
8A
92
92
62
62
22
ENDCHAR
STARTCHAR 2176
ENCODING 8566
SWIDTH 990 0
DWIDTH 11 0
BBX 8 8 1 0
BITMAP
05
05
95
95
55
55
25
25
ENDCHAR
STARTCHAR 2177
ENCODING 8567
SWIDTH 990 0
DWIDTH 11 0
BBX 9 8 1 0
BITMAP
0A80
0A80
9A80
AA80
AA80
AA80
6A80
4A80
ENDCHAR
STARTCHAR 2178
ENCODING 8568
SWIDTH 990 0
DWIDTH 11 0
BBX 7 8 2 0
BITMAP
80
80
92
94
88
8C
94
A2
ENDCHAR
STARTCHAR 2179
ENCODING 8569
SWIDTH 990 0
DWIDTH 11 0
BBX 5 6 3 0
BITMAP
88
50
20
20
50
88
ENDCHAR
STARTCHAR 2190
ENCODING 8592
SWIDTH 990 0
DWIDTH 11 0
BBX 9 3 1 2
BITMAP
4000
FF80
4000
ENDCHAR
STARTCHAR 2191
ENCODING 8593
SWIDTH 720 0
DWIDTH 8 0
BBX 4 8 2 0
BITMAP
60
D0
40
40
40
40
40
40
ENDCHAR
STARTCHAR 2192
ENCODING 8594
SWIDTH 990 0
DWIDTH 11 0
BBX 9 3 1 2
BITMAP
0100
FF80
0100
ENDCHAR
STARTCHAR 2193
ENCODING 8595
SWIDTH 720 0
DWIDTH 8 0
BBX 4 8 2 0
BITMAP
40
40
40
40
40
40
D0
60
ENDCHAR
STARTCHAR 2194
ENCODING 8596
SWIDTH 990 0
DWIDTH 11 0
BBX 9 3 1 2
BITMAP
4100
FF80
4100
ENDCHAR
STARTCHAR 2195
ENCODING 8597
SWIDTH 720 0
DWIDTH 8 0
BBX 4 9 2 0
BITMAP
60
D0
40
40
40
40
D0
60
40
ENDCHAR
STARTCHAR 2196
ENCODING 8598
SWIDTH 990 0
DWIDTH 11 0
BBX 7 7 2 0
BITMAP
40
C0
20
10
08
04
02
ENDCHAR
STARTCHAR 2197
ENCODING 8599
SWIDTH 990 0
DWIDTH 11 0
BBX 6 6 2 0
BITMAP
0C
0C
10
20
40
80
ENDCHAR
STARTCHAR 2198
ENCODING 8600
SWIDTH 990 0
DWIDTH 11 0
BBX 6 6 2 2
BITMAP
80
40
20
10
0C
04
ENDCHAR
STARTCHAR 2199
ENCODING 8601
SWIDTH 990 0
DWIDTH 11 0
BBX 6 6 3 2
BITMAP
0C
10
20
40
80
C0
ENDCHAR
STARTCHAR 21A8
ENCODING 8616
SWIDTH 720 0
DWIDTH 8 0
BBX 4 9 2 0
BITMAP
60
50
40
40
40
40
70
60
F0
ENDCHAR
STARTCHAR 21D2
ENCODING 8658
SWIDTH 990 0
DWIDTH 11 0
BBX 7 4 3 2
BITMAP
08
FE
FC
08
ENDCHAR
STARTCHAR 21D4
ENCODING 8660
SWIDTH 990 0
DWIDTH 11 0
BBX 9 5 1 2
BITMAP
4200
FF80
FF00
4200
2000
ENDCHAR
STARTCHAR 2200
ENCODING 8704
SWIDTH 990 0
DWIDTH 11 0
BBX 7 8 2 1
BITMAP
82
84
7C
48
48
28
30
30
ENDCHAR
STARTCHAR 2202
ENCODING 8706
SWIDTH 540 0
DWIDTH 6 0
BBX 5 9 1 -1
BITMAP
30
50
08
70
90
90
90
A0
E0
ENDCHAR
STARTCHAR 2203
ENCODING 8707
SWIDTH 990 0
DWIDTH 11 0
BBX 5 8 3 0
BITMAP
F8
08
08
F8
08
08
08
F8
ENDCHAR
STARTCHAR 2206
ENCODING 8710
SWIDTH 630 0
DWIDTH 7 0
BBX 6 7 0 0
BITMAP
10
30
28
48
44
84
FC
ENDCHAR
STARTCHAR 2207
ENCODING 8711
SWIDTH 990 0
DWIDTH 11 0
BBX 8 6 1 1
BITMAP
FF
41
22
24
14
18
ENDCHAR
STARTCHAR 2208
ENCODING 8712
SWIDTH 990 0
DWIDTH 11 0
BBX 7 6 2 1
BITMAP
7E
80
80
FE
80
7E
ENDCHAR
STARTCHAR 220B
ENCODING 8715
SWIDTH 990 0
DWIDTH 11 0
BBX 7 6 2 1
BITMAP
FC
02
02
FE
02
FC
ENDCHAR
STARTCHAR 220F
ENCODING 8719
SWIDTH 720 0
DWIDTH 8 0
BBX 7 10 0 -2
BITMAP
FE
44
44
44
44
44
44
44
44
44
ENDCHAR
STARTCHAR 2211
ENCODING 8721
SWIDTH 810 0
DWIDTH 9 0
BBX 7 10 1 -2
BITMAP
FE
80
40
20
10
10
20
40
80
FE
ENDCHAR
STARTCHAR 2212
ENCODING 8722
SWIDTH 810 0
DWIDTH 9 0
BBX 7 1 1 3
BITMAP
FE
ENDCHAR
STARTCHAR 2215
ENCODING 8725
SWIDTH 450 0
DWIDTH 5 0
BBX 4 8 0 0
BITMAP
10
20
20
20
40
40
40
80
ENDCHAR
STARTCHAR 2219
ENCODING 8729
SWIDTH 270 0
DWIDTH 3 0
BBX 1 1 1 4
BITMAP
80
ENDCHAR
STARTCHAR 221A
ENCODING 8730
SWIDTH 540 0
DWIDTH 6 0
BBX 5 9 1 0
BITMAP
08
08
10
10
D0
50
30
30
10
ENDCHAR
STARTCHAR 221D
ENCODING 8733
SWIDTH 990 0
DWIDTH 11 0
BBX 8 4 1 2
BITMAP
77
98
98
77
ENDCHAR
STARTCHAR 221E
ENCODING 8734
SWIDTH 900 0
DWIDTH 10 0
BBX 8 4 1 2
BITMAP
E6
99
99
E7
ENDCHAR
STARTCHAR 221F
ENCODING 8735
SWIDTH 990 0
DWIDTH 11 0
BBX 8 7 1 0
BITMAP
80
80
80
80
80
80
FF
ENDCHAR
STARTCHAR 2220
ENCODING 8736
SWIDTH 990 0
DWIDTH 11 0
BBX 7 6 2 2
BITMAP
0C
10
20
40
80
FE
ENDCHAR
STARTCHAR 2225
ENCODING 8741
SWIDTH 990 0
DWIDTH 11 0
BBX 3 8 4 0
BITMAP
A0
A0
A0
A0
A0
A0
A0
A0
ENDCHAR
STARTCHAR 2227
ENCODING 8743
SWIDTH 990 0
DWIDTH 11 0
BBX 7 7 2 1
BITMAP
10
30
28
48
44
84
82
ENDCHAR
STARTCHAR 2228
ENCODING 8744
SWIDTH 990 0
DWIDTH 11 0
BBX 7 7 2 1
BITMAP
82
84
44
48
28
30
10
ENDCHAR
STARTCHAR 2229
ENCODING 8745
SWIDTH 720 0
DWIDTH 8 0
BBX 6 8 1 0
BITMAP
70
88
84
84
84
84
84
84
ENDCHAR
STARTCHAR 222A
ENCODING 8746
SWIDTH 990 0
DWIDTH 11 0
BBX 6 8 2 0
BITMAP
80
84
84
84
84
84
44
38
ENDCHAR
STARTCHAR 222B
ENCODING 8747
SWIDTH 360 0
DWIDTH 4 0
BBX 2 11 1 -2
BITMAP
40
80
80
80
80
80
80
80
80
80
80
ENDCHAR
STARTCHAR 222C
ENCODING 8748
SWIDTH 990 0
DWIDTH 11 0
BBX 7 10 2 -1
BITMAP
16
2A
28
28
28
48
48
48
68
D0
ENDCHAR
STARTCHAR 222E
ENCODING 8750
SWIDTH 990 0
DWIDTH 11 0
BBX 7 10 2 -1
BITMAP
0C
0A
10
30
38
58
38
10
A0
60
ENDCHAR
STARTCHAR 2234
ENCODING 8756
SWIDTH 990 0
DWIDTH 11 0
BBX 7 5 2 2
BITMAP
10
00
00
00
C6
ENDCHAR
STARTCHAR 2235
ENCODING 8757
SWIDTH 990 0
DWIDTH 11 0
BBX 7 7 2 1
BITMAP
C6
00
00
00
00
00
10
ENDCHAR
STARTCHAR 223C
ENCODING 8764
SWIDTH 990 0
DWIDTH 11 0
BBX 7 2 2 3
BITMAP
F0
1E
ENDCHAR
STARTCHAR 223D
ENCODING 8765
SWIDTH 990 0
DWIDTH 11 0
BBX 9 4 1 2
BITMAP
6700
8880
8880
7300
ENDCHAR
STARTCHAR 2248
ENCODING 8776
SWIDTH 810 0
DWIDTH 9 0
BBX 7 4 1 2
BITMAP
70
9E
70
9E
ENDCHAR
STARTCHAR 2252
ENCODING 8786
SWIDTH 990 0
DWIDTH 11 0
BBX 7 6 2 1
BITMAP
40
00
FE
FE
00
04
ENDCHAR
STARTCHAR 2260
ENCODING 8800
SWIDTH 810 0
DWIDTH 9 0
BBX 7 6 1 1
BITMAP
10
FE
10
FE
20
20
ENDCHAR
STARTCHAR 2261
ENCODING 8801
SWIDTH 810 0
DWIDTH 9 0
BBX 7 5 1 1
BITMAP
FE
00
FE
00
FE
ENDCHAR
STARTCHAR 2264
ENCODING 8804
SWIDTH 810 0
DWIDTH 9 0
BBX 7 7 1 1
BITMAP
02
1C
60
40
38
06
FE
ENDCHAR
STARTCHAR 2265
ENCODING 8805
SWIDTH 810 0
DWIDTH 9 0
BBX 7 7 1 1
BITMAP
80
70
0C
06
38
C0
FE
ENDCHAR
STARTCHAR 226A
ENCODING 8810
SWIDTH 990 0
DWIDTH 11 0
BBX 8 8 2 0
BITMAP
08
16
68
B0
A0
58
34
0B
ENDCHAR
STARTCHAR 226B
ENCODING 8811
SWIDTH 990 0
DWIDTH 11 0
BBX 8 8 1 0
BITMAP
90
48
36
09
0D
16
68
80
ENDCHAR
STARTCHAR 2282
ENCODING 8834
SWIDTH 990 0
DWIDTH 11 0
BBX 7 6 2 1
BITMAP
7E
80
80
80
80
7E
ENDCHAR
STARTCHAR 2283
ENCODING 8835
SWIDTH 990 0
DWIDTH 11 0
BBX 7 6 2 1
BITMAP
FC
02
02
02
02
FC
ENDCHAR
STARTCHAR 2286
ENCODING 8838
SWIDTH 990 0
DWIDTH 11 0
BBX 7 6 2 1
BITMAP
7E
80
80
7E
00
FE
ENDCHAR
STARTCHAR 2287
ENCODING 8839
SWIDTH 990 0
DWIDTH 11 0
BBX 7 6 2 1
BITMAP
FC
02
02
FC
00
FE
ENDCHAR
STARTCHAR 2299
ENCODING 8857
SWIDTH 990 0
DWIDTH 11 0
BBX 9 9 1 -1
BITMAP
7E00
8100
9C80
9C80
9C80
9C80
8080
4100
3E00
ENDCHAR
STARTCHAR 22A5
ENCODING 8869
SWIDTH 990 0
DWIDTH 11 0
BBX 7 7 2 1
BITMAP
10
10
10
10
10
10
FE
ENDCHAR
STARTCHAR 2302
ENCODING 8962
SWIDTH 630 0
DWIDTH 7 0
BBX 5 6 1 1
BITMAP
60
90
88
88
88
F8
ENDCHAR
STARTCHAR 2310
ENCODING 8976
SWIDTH 720 0
DWIDTH 8 0
BBX 8 3 0 3
BITMAP
FF
80
80
ENDCHAR
STARTCHAR 2312
ENCODING 8978
SWIDTH 990 0
DWIDTH 11 0
BBX 4 2 3 7
BITMAP
60
90
ENDCHAR
STARTCHAR 2320
ENCODING 8992
SWIDTH 630 0
DWIDTH 7 0
BBX 2 11 3 -2
BITMAP
C0
80
80
80
80
80
80
80
80
80
80
ENDCHAR
STARTCHAR 2321
ENCODING 8993
SWIDTH 630 0
DWIDTH 7 0
BBX 2 11 2 -2
BITMAP
40
40
40
40
40
40
40
40
40
40
80
ENDCHAR
STARTCHAR 2460
ENCODING 9312
SWIDTH 990 0
DWIDTH 11 0
BBX 9 10 1 -1
BITMAP
3E00
4100
8880
9880
8880
8880
8880
8880
4100
3E00
ENDCHAR
STARTCHAR 2461
ENCODING 9313
SWIDTH 990 0
DWIDTH 11 0
BBX 9 10 1 -1
BITMAP
3E00
4100
9C80
A480
8480
8880
9080
9E80
4100
3E00
ENDCHAR
STARTCHAR 2462
ENCODING 9314
SWIDTH 990 0
DWIDTH 11 0
BBX 9 10 1 -1
BITMAP
3E00
4100
9C80
A480
8480
8C80
A480
9C80
4100
3E00
ENDCHAR
STARTCHAR 2463
ENCODING 9315
SWIDTH 990 0
DWIDTH 11 0
BBX 9 10 1 -1
BITMAP
3E00
4100
8480
8C80
9480
A480
BE80
8480
4100
3E00
ENDCHAR
STARTCHAR 2464
ENCODING 9316
SWIDTH 990 0
DWIDTH 11 0
BBX 9 10 1 -1
BITMAP
3E00
4100
9C80
9080
9C80
8480
A480
9C80
4100
3E00
ENDCHAR
STARTCHAR 2465
ENCODING 9317
SWIDTH 990 0
DWIDTH 11 0
BBX 9 10 1 -1
BITMAP
3E00
4100
9C80
9080
9C80
A480
A480
9C80
4100
3E00
ENDCHAR
STARTCHAR 2466
ENCODING 9318
SWIDTH 990 0
DWIDTH 11 0
BBX 9 10 1 -1
BITMAP
3E00
4100
BC80
8480
8880
8880
9080
9080
4100
3E00
ENDCHAR
STARTCHAR 2467
ENCODING 9319
SWIDTH 990 0
DWIDTH 11 0
BBX 9 10 1 -1
BITMAP
3E00
4100
9C80
9480
9C80
A480
A480
9C80
4100
3E00
ENDCHAR
STARTCHAR 2468
ENCODING 9320
SWIDTH 990 0
DWIDTH 11 0
BBX 9 10 1 -1
BITMAP
3E00
4100
9C80
A480
A480
9C80
8480
9C80
4100
3E00
ENDCHAR
STARTCHAR 2469
ENCODING 9321
SWIDTH 990 0
DWIDTH 11 0
BBX 9 10 1 -1
BITMAP
3E00
4100
A680
E980
A980
A980
A980
A680
4100
3E00
ENDCHAR
STARTCHAR 246A
ENCODING 9322
SWIDTH 990 0
DWIDTH 11 0
BBX 9 10 1 -1
BITMAP
3E00
4100
A280
E680
A280
A280
A280
A280
4100
3E00
ENDCHAR
STARTCHAR 246B
ENCODING 9323
SWIDTH 990 0
DWIDTH 11 0
BBX 9 10 1 -1
BITMAP
3E00
4100
A680
E980
A280
A480
A880
AF80
4100
3E00
ENDCHAR
STARTCHAR 246C
ENCODING 9324
SWIDTH 990 0
DWIDTH 11 0
BBX 9 10 1 -1
BITMAP
3E00
4100
A680
EA80
A280
A680
A980
AE80
4100
3E00
ENDCHAR
STARTCHAR 246D
ENCODING 9325
SWIDTH 990 0
DWIDTH 11 0
BBX 9 10 1 -1
BITMAP
3E00
4100
A280
E680
AA80
AA80
AF80
A280
4100
3E00
ENDCHAR
STARTCHAR 246E
ENCODING 9326
SWIDTH 990 0
DWIDTH 11 0
BBX 9 10 1 -1
BITMAP
3E00
4100
AE80
E880
AE80
AA80
AA80
AE80
4100
3E00
ENDCHAR
STARTCHAR 2474
ENCODING 9332
SWIDTH 990 0
DWIDTH 11 0
BBX 9 10 1 -1
BITMAP
4100
8100
8880
9880
8880
8880
8880
8880
8100
4000
ENDCHAR
STARTCHAR 2475
ENCODING 9333
SWIDTH 990 0
DWIDTH 11 0
BBX 9 10 1 -1
BITMAP
4100
8100
9C80
A480
8480
8880
9080
9E80
8100
4000
ENDCHAR
STARTCHAR 2476
ENCODING 9334
SWIDTH 990 0
DWIDTH 11 0
BBX 9 10 1 -1
BITMAP
4100
8100
9C80
A480
8480
8C80
A480
9C80
8100
4000
ENDCHAR
STARTCHAR 2477
ENCODING 9335
SWIDTH 990 0
DWIDTH 11 0
BBX 9 10 1 -1
BITMAP
4100
8100
8480
8C80
9480
A480
BE80
8480
8100
4000
ENDCHAR
STARTCHAR 2478
ENCODING 9336
SWIDTH 990 0
DWIDTH 11 0
BBX 9 10 1 -1
BITMAP
4100
8100
9C80
9080
9C80
8480
A480
9C80
8100
4000
ENDCHAR
STARTCHAR 2479
ENCODING 9337
SWIDTH 990 0
DWIDTH 11 0
BBX 9 10 1 -1
BITMAP
4100
8100
9C80
9080
9C80
A480
A480
9C80
8100
4000
ENDCHAR
STARTCHAR 247A
ENCODING 9338
SWIDTH 990 0
DWIDTH 11 0
BBX 9 10 1 -1
BITMAP
4100
8100
BC80
8480
8880
8880
9080
9080
8100
4000
ENDCHAR
STARTCHAR 247B
ENCODING 9339
SWIDTH 990 0
DWIDTH 11 0
BBX 9 10 1 -1
BITMAP
4100
8100
9C80
9480
9C80
A480
A480
9C80
8100
4000
ENDCHAR
STARTCHAR 247C
ENCODING 9340
SWIDTH 990 0
DWIDTH 11 0
BBX 9 10 1 -1
BITMAP
4100
8100
9C80
A480
A480
9C80
8480
9C80
8100
4000
ENDCHAR
STARTCHAR 247D
ENCODING 9341
SWIDTH 990 0
DWIDTH 11 0
BBX 9 10 1 -1
BITMAP
4100
8100
A680
E980
A980
A980
A980
A680
8100
4000
ENDCHAR
STARTCHAR 247E
ENCODING 9342
SWIDTH 990 0
DWIDTH 11 0
BBX 9 10 1 -1
BITMAP
4100
8100
A280
E680
A280
A280
A280
A280
8100
4000
ENDCHAR
STARTCHAR 247F
ENCODING 9343
SWIDTH 990 0
DWIDTH 11 0
BBX 9 10 1 -1
BITMAP
4100
8100
A680
E980
A280
A680
A880
AF80
8100
4000
ENDCHAR
STARTCHAR 2480
ENCODING 9344
SWIDTH 990 0
DWIDTH 11 0
BBX 9 10 1 -1
BITMAP
4100
8100
AE80
EA80
A280
A680
A980
AE80
8100
4000
ENDCHAR
STARTCHAR 2481
ENCODING 9345
SWIDTH 990 0
DWIDTH 11 0
BBX 9 10 1 -1
BITMAP
4100
8100
A280
E680
A680
AA80
AF80
A280
8100
4000
ENDCHAR
STARTCHAR 2482
ENCODING 9346
SWIDTH 990 0
DWIDTH 11 0
BBX 9 10 1 -1
BITMAP
4100
8100
AE80
E880
AE80
A280
AA80
AE80
8100
4000
ENDCHAR
STARTCHAR 249C
ENCODING 9372
SWIDTH 990 0
DWIDTH 11 0
BBX 9 10 1 -1
BITMAP
4100
8100
9C80
A480
9C80
A480
A480
9E80
8100
4000
ENDCHAR
STARTCHAR 249D
ENCODING 9373
SWIDTH 990 0
DWIDTH 11 0
BBX 9 9 1 -1
BITMAP
4100
A080
9C80
9280
A280
9480
9C80
8080
4100
ENDCHAR
STARTCHAR 249E
ENCODING 9374
SWIDTH 990 0
DWIDTH 11 0
BBX 9 10 1 -1
BITMAP
4100
8100
9C80
9480
A080
A080
9480
9C80
8100
4000
ENDCHAR
STARTCHAR 249F
ENCODING 9375
SWIDTH 990 0
DWIDTH 11 0
BBX 9 9 1 -1
BITMAP
4100
8480
9C80
A480
A480
A480
9C80
8080
4100
ENDCHAR
STARTCHAR 24A0
ENCODING 9376
SWIDTH 990 0
DWIDTH 11 0
BBX 9 10 1 -1
BITMAP
4100
8100
9C80
A480
BE80
A080
A280
9C80
8100
4000
ENDCHAR
STARTCHAR 24A1
ENCODING 9377
SWIDTH 990 0
DWIDTH 11 0
BBX 9 10 1 -1
BITMAP
4100
8D00
8880
9C80
8880
8880
8880
8880
8100
4000
ENDCHAR
STARTCHAR 24A2
ENCODING 9378
SWIDTH 990 0
DWIDTH 11 0
BBX 9 10 1 -1
BITMAP
4100
8100
9E80
A280
A280
9E80
8480
9C80
8100
4000
ENDCHAR
STARTCHAR 24A3
ENCODING 9379
SWIDTH 990 0
DWIDTH 11 0
BBX 9 10 1 -1
BITMAP
4100
A100
A080
AC80
9480
A480
A480
A480
8100
4000
ENDCHAR
STARTCHAR 24A4
ENCODING 9380
SWIDTH 990 0
DWIDTH 11 0
BBX 9 10 1 -1
BITMAP
4100
8900
8080
8880
8880
8880
8880
8880
8100
4000
ENDCHAR
STARTCHAR 24A5
ENCODING 9381
SWIDTH 990 0
DWIDTH 11 0
BBX 9 10 1 -1
BITMAP
4100
8900
8080
8880
8880
8880
8880
8880
9900
4000
ENDCHAR
STARTCHAR 24A6
ENCODING 9382
SWIDTH 990 0
DWIDTH 11 0
BBX 9 10 1 -1
BITMAP
4100
9100
9080
9480
9880
9880
9480
9280
8100
4000
ENDCHAR
STARTCHAR 24A7
ENCODING 9383
SWIDTH 990 0
DWIDTH 11 0
BBX 9 10 1 -1
BITMAP
4100
8900
8880
8880
8880
8880
8880
8880
8100
4000
ENDCHAR
STARTCHAR 24A8
ENCODING 9384
SWIDTH 990 0
DWIDTH 11 0
BBX 9 10 1 -1
BITMAP
4100
8100
FE80
CA80
CA80
CA80
CA80
CA80
8100
4000
ENDCHAR
STARTCHAR 24A9
ENCODING 9385
SWIDTH 990 0
DWIDTH 11 0
BBX 9 10 1 -1
BITMAP
4100
8100
9C80
9480
A480
A480
A480
A480
8100
4000
ENDCHAR
STARTCHAR 24AA
ENCODING 9386
SWIDTH 990 0
DWIDTH 11 0
BBX 9 10 1 -1
BITMAP
4100
8100
9C80
A480
A280
A280
A480
9C80
8100
4000
ENDCHAR
STARTCHAR 24AB
ENCODING 9387
SWIDTH 990 0
DWIDTH 11 0
BBX 9 10 1 -1
BITMAP
4100
8100
9C80
9280
A280
9280
9C80
A080
A100
4000
ENDCHAR
STARTCHAR 24AC
ENCODING 9388
SWIDTH 990 0
DWIDTH 11 0
BBX 9 10 1 -1
BITMAP
4100
8100
9C80
A480
A480
A480
9C80
8480
8500
4000
ENDCHAR
STARTCHAR 24AD
ENCODING 9389
SWIDTH 990 0
DWIDTH 11 0
BBX 9 10 1 -1
BITMAP
4100
8100
9C80
9080
9080
9080
9080
9080
8100
4000
ENDCHAR
STARTCHAR 24AE
ENCODING 9390
SWIDTH 990 0
DWIDTH 11 0
BBX 9 10 1 -1
BITMAP
4100
8100
9C80
A480
9C80
8480
A480
9C80
8100
4000
ENDCHAR
STARTCHAR 24AF
ENCODING 9391
SWIDTH 990 0
DWIDTH 11 0
BBX 9 10 1 -1
BITMAP
4100
8100
8880
9880
8880
8880
8880
8C80
8100
4000
ENDCHAR
STARTCHAR 24B0
ENCODING 9392
SWIDTH 990 0
DWIDTH 11 0
BBX 9 10 1 -1
BITMAP
4100
8100
A480
A480
A480
A480
A480
9880
8100
4000
ENDCHAR
STARTCHAR 24B1
ENCODING 9393
SWIDTH 990 0
DWIDTH 11 0
BBX 9 10 1 -1
BITMAP
4100
8100
A280
9480
9480
9480
8880
8880
8100
4000
ENDCHAR
STARTCHAR 24B2
ENCODING 9394
SWIDTH 990 0
DWIDTH 11 0
BBX 9 10 1 -1
BITMAP
4100
8100
C980
AA80
BA80
B680
B680
9480
8100
4000
ENDCHAR
STARTCHAR 24B3
ENCODING 9395
SWIDTH 990 0
DWIDTH 11 0
BBX 9 10 1 -1
BITMAP
4100
8100
9480
9480
8880
8880
9480
A480
8100
4000
ENDCHAR
STARTCHAR 24B4
ENCODING 9396
SWIDTH 990 0
DWIDTH 11 0
BBX 9 10 1 -1
BITMAP
4100
8100
A480
9480
9480
9880
8880
9080
8100
4000
ENDCHAR
STARTCHAR 24B5
ENCODING 9397
SWIDTH 990 0
DWIDTH 11 0
BBX 9 10 1 -1
BITMAP
4100
8100
9C80
8480
8880
9080
9080
BC80
8100
4000
ENDCHAR
STARTCHAR 24D0
ENCODING 9424
SWIDTH 990 0
DWIDTH 11 0
BBX 9 10 1 -1
BITMAP
3E00
4100
9C80
8480
9C80
A480
A680
9880
4100
3E00
ENDCHAR
STARTCHAR 24D1
ENCODING 9425
SWIDTH 990 0
DWIDTH 11 0
BBX 9 10 1 -1
BITMAP
3E00
4100
A080
9C80
9280
A280
9480
9C80
4100
3E00
ENDCHAR
STARTCHAR 24D2
ENCODING 9426
SWIDTH 990 0
DWIDTH 11 0
BBX 9 10 1 -1
BITMAP
3E00
4100
9C80
9480
A080
A080
9480
9C80
4100
3E00
ENDCHAR
STARTCHAR 24D3
ENCODING 9427
SWIDTH 990 0
DWIDTH 11 0
BBX 9 10 1 -1
BITMAP
3E00
4100
8480
9C80
A480
A480
A480
9C80
4100
3E00
ENDCHAR
STARTCHAR 24D4
ENCODING 9428
SWIDTH 990 0
DWIDTH 11 0
BBX 9 10 1 -1
BITMAP
3E00
4100
9C80
A480
BE80
A080
A280
9C80
4100
3E00
ENDCHAR
STARTCHAR 24D5
ENCODING 9429
SWIDTH 990 0
DWIDTH 11 0
BBX 9 10 1 -1
BITMAP
3E00
4D00
8880
9C80
8880
8880
8880
8880
4100
3E00
ENDCHAR
STARTCHAR 24D6
ENCODING 9430
SWIDTH 990 0
DWIDTH 11 0
BBX 9 10 1 -1
BITMAP
3E00
4100
9E80
A280
A280
9E80
8480
9C80
4100
3E00
ENDCHAR
STARTCHAR 24D7
ENCODING 9431
SWIDTH 990 0
DWIDTH 11 0
BBX 9 10 1 -1
BITMAP
3E00
6100
A080
9C80
9480
A480
A480
A480
4100
3E00
ENDCHAR
STARTCHAR 24D8
ENCODING 9432
SWIDTH 990 0
DWIDTH 11 0
BBX 9 10 1 -1
BITMAP
3E00
4900
8080
8880
8880
8880
8880
8880
4100
3E00
ENDCHAR
STARTCHAR 24D9
ENCODING 9433
SWIDTH 990 0
DWIDTH 11 0
BBX 9 10 1 -1
BITMAP
3E00
4900
8080
8880
8880
8880
8880
8880
5900
3E00
ENDCHAR
STARTCHAR 24DA
ENCODING 9434
SWIDTH 990 0
DWIDTH 11 0
BBX 9 10 1 -1
BITMAP
3E00
5100
9080
9280
9480
9880
9480
9280
4100
3E00
ENDCHAR
STARTCHAR 24DB
ENCODING 9435
SWIDTH 990 0
DWIDTH 11 0
BBX 9 10 1 -1
BITMAP
3E00
4900
8880
8880
8880
8880
8880
8880
4100
3E00
ENDCHAR
STARTCHAR 24DC
ENCODING 9436
SWIDTH 990 0
DWIDTH 11 0
BBX 9 10 1 -1
BITMAP
3E00
4100
FE80
CA80
CA80
CA80
CA80
CA80
4100
3E00
ENDCHAR
STARTCHAR 24DD
ENCODING 9437
SWIDTH 990 0
DWIDTH 11 0
BBX 9 10 1 -1
BITMAP
3E00
4100
9C80
9480
A480
A480
A480
A480
4100
3E00
ENDCHAR
STARTCHAR 24DE
ENCODING 9438
SWIDTH 990 0
DWIDTH 11 0
BBX 9 10 1 -1
BITMAP
3E00
4100
9C80
A480
A280
A280
A480
9C80
4100
3E00
ENDCHAR
STARTCHAR 24DF
ENCODING 9439
SWIDTH 990 0
DWIDTH 11 0
BBX 9 10 1 -1
BITMAP
3E00
4100
9C80
9280
A280
9280
9C80
A080
6100
3E00
ENDCHAR
STARTCHAR 24E0
ENCODING 9440
SWIDTH 990 0
DWIDTH 11 0
BBX 9 10 1 -1
BITMAP
3E00
4100
9C80
A480
A480
A480
9C80
8480
4500
3E00
ENDCHAR
STARTCHAR 24E1
ENCODING 9441
SWIDTH 990 0
DWIDTH 11 0
BBX 9 10 1 -1
BITMAP
3E00
4100
9C80
9080
9080
9080
9080
9080
4100
3E00
ENDCHAR
STARTCHAR 24E2
ENCODING 9442
SWIDTH 990 0
DWIDTH 11 0
BBX 9 10 1 -1
BITMAP
3E00
4100
9C80
A480
9C80
8480
A480
9C80
4100
3E00
ENDCHAR
STARTCHAR 24E3
ENCODING 9443
SWIDTH 990 0
DWIDTH 11 0
BBX 9 10 1 -1
BITMAP
3E00
4100
8880
9880
8880
8880
8880
8C80
4100
3E00
ENDCHAR
STARTCHAR 24E4
ENCODING 9444
SWIDTH 990 0
DWIDTH 11 0
BBX 9 10 1 -1
BITMAP
3E00
4100
A480
A480
A480
A480
A480
9880
4100
3E00
ENDCHAR
STARTCHAR 24E5
ENCODING 9445
SWIDTH 990 0
DWIDTH 11 0
BBX 9 10 1 -1
BITMAP
3E00
4100
A280
9480
9480
9480
8880
8880
4100
3E00
ENDCHAR
STARTCHAR 24E6
ENCODING 9446
SWIDTH 990 0
DWIDTH 11 0
BBX 9 10 1 -1
BITMAP
3E00
4100
C980
CA80
BA80
B680
B680
9480
4100
3E00
ENDCHAR
STARTCHAR 24E7
ENCODING 9447
SWIDTH 990 0
DWIDTH 11 0
BBX 9 10 1 -1
BITMAP
3E00
4100
9480
9480
8880
8880
9480
A480
4100
3E00
ENDCHAR
STARTCHAR 24E8
ENCODING 9448
SWIDTH 990 0
DWIDTH 11 0
BBX 9 10 1 -1
BITMAP
3E00
4100
A480
9480
9480
9880
8880
9080
4100
3E00
ENDCHAR
STARTCHAR 24E9
ENCODING 9449
SWIDTH 990 0
DWIDTH 11 0
BBX 9 10 1 -1
BITMAP
3E00
4100
9C80
8480
8880
9080
9080
BC80
4100
3E00
ENDCHAR
STARTCHAR 2500
ENCODING 9472
SWIDTH 990 0
DWIDTH 11 0
BBX 11 1 0 3
BITMAP
FFE0
ENDCHAR
STARTCHAR 2501
ENCODING 9473
SWIDTH 990 0
DWIDTH 11 0
BBX 11 1 0 3
BITMAP
FFE0
ENDCHAR
STARTCHAR 2502
ENCODING 9474
SWIDTH 990 0
DWIDTH 11 0
BBX 1 11 5 -2
BITMAP
80
80
80
80
80
80
80
80
80
80
80
ENDCHAR
STARTCHAR 2503
ENCODING 9475
SWIDTH 990 0
DWIDTH 11 0
BBX 1 11 5 -2
BITMAP
80
80
80
80
80
80
80
80
80
80
80
ENDCHAR
STARTCHAR 250C
ENCODING 9484
SWIDTH 990 0
DWIDTH 11 0
BBX 6 6 5 -2
BITMAP
FC
80
80
80
80
80
ENDCHAR
STARTCHAR 250D
ENCODING 9485
SWIDTH 990 0
DWIDTH 11 0
BBX 6 6 5 -2
BITMAP
FC
80
80
80
80
80
ENDCHAR
STARTCHAR 250E
ENCODING 9486
SWIDTH 990 0
DWIDTH 11 0
BBX 6 6 5 -2
BITMAP
FC
80
80
80
80
80
ENDCHAR
STARTCHAR 250F
ENCODING 9487
SWIDTH 990 0
DWIDTH 11 0
BBX 6 6 5 -2
BITMAP
FC
80
80
80
80
80
ENDCHAR
STARTCHAR 2510
ENCODING 9488
SWIDTH 990 0
DWIDTH 11 0
BBX 6 6 0 -2
BITMAP
FC
04
04
04
04
04
ENDCHAR
STARTCHAR 2511
ENCODING 9489
SWIDTH 990 0
DWIDTH 11 0
BBX 6 6 0 -2
BITMAP
FC
04
04
04
04
04
ENDCHAR
STARTCHAR 2512
ENCODING 9490
SWIDTH 990 0
DWIDTH 11 0
BBX 6 6 0 -2
BITMAP
FC
04
04
04
04
04
ENDCHAR
STARTCHAR 2513
ENCODING 9491
SWIDTH 990 0
DWIDTH 11 0
BBX 6 6 0 -2
BITMAP
FC
04
04
04
04
04
ENDCHAR
STARTCHAR 2514
ENCODING 9492
SWIDTH 990 0
DWIDTH 11 0
BBX 6 6 5 3
BITMAP
80
80
80
80
80
FC
ENDCHAR
STARTCHAR 2515
ENCODING 9493
SWIDTH 990 0
DWIDTH 11 0
BBX 6 6 5 3
BITMAP
80
80
80
80
80
FC
ENDCHAR
STARTCHAR 2516
ENCODING 9494
SWIDTH 990 0
DWIDTH 11 0
BBX 6 6 5 3
BITMAP
80
80
80
80
80
FC
ENDCHAR
STARTCHAR 2517
ENCODING 9495
SWIDTH 990 0
DWIDTH 11 0
BBX 6 6 5 3
BITMAP
80
80
80
80
80
FC
ENDCHAR
STARTCHAR 2518
ENCODING 9496
SWIDTH 990 0
DWIDTH 11 0
BBX 6 6 0 3
BITMAP
04
04
04
04
04
FC
ENDCHAR
STARTCHAR 2519
ENCODING 9497
SWIDTH 990 0
DWIDTH 11 0
BBX 6 6 0 3
BITMAP
04
04
04
04
04
FC
ENDCHAR
STARTCHAR 251A
ENCODING 9498
SWIDTH 990 0
DWIDTH 11 0
BBX 6 6 0 3
BITMAP
04
04
04
04
04
FC
ENDCHAR
STARTCHAR 251B
ENCODING 9499
SWIDTH 990 0
DWIDTH 11 0
BBX 6 6 0 3
BITMAP
04
04
04
04
04
FC
ENDCHAR
STARTCHAR 251C
ENCODING 9500
SWIDTH 990 0
DWIDTH 11 0
BBX 6 11 5 -2
BITMAP
80
80
80
80
80
FC
80
80
80
80
80
ENDCHAR
STARTCHAR 251D
ENCODING 9501
SWIDTH 990 0
DWIDTH 11 0
BBX 6 11 5 -2
BITMAP
80
80
80
80
80
FC
80
80
80
80
80
ENDCHAR
STARTCHAR 251E
ENCODING 9502
SWIDTH 990 0
DWIDTH 11 0
BBX 6 11 5 -2
BITMAP
80
80
80
80
80
FC
80
80
80
80
80
ENDCHAR
STARTCHAR 251F
ENCODING 9503
SWIDTH 990 0
DWIDTH 11 0
BBX 6 11 5 -2
BITMAP
80
80
80
80
80
FC
80
80
80
80
80
ENDCHAR
STARTCHAR 2520
ENCODING 9504
SWIDTH 990 0
DWIDTH 11 0
BBX 6 11 5 -2
BITMAP
80
80
80
80
80
FC
80
80
80
80
80
ENDCHAR
STARTCHAR 2521
ENCODING 9505
SWIDTH 990 0
DWIDTH 11 0
BBX 6 11 5 -2
BITMAP
80
80
80
80
80
FC
80
80
80
80
80
ENDCHAR
STARTCHAR 2522
ENCODING 9506
SWIDTH 990 0
DWIDTH 11 0
BBX 6 11 5 -2
BITMAP
80
80
80
80
80
FC
80
80
80
80
80
ENDCHAR
STARTCHAR 2523
ENCODING 9507
SWIDTH 990 0
DWIDTH 11 0
BBX 6 11 5 -2
BITMAP
80
80
80
80
80
FC
80
80
80
80
80
ENDCHAR
STARTCHAR 2524
ENCODING 9508
SWIDTH 990 0
DWIDTH 11 0
BBX 6 11 0 -2
BITMAP
04
04
04
04
04
FC
04
04
04
04
04
ENDCHAR
STARTCHAR 2525
ENCODING 9509
SWIDTH 990 0
DWIDTH 11 0
BBX 6 11 0 -2
BITMAP
04
04
04
04
04
FC
04
04
04
04
04
ENDCHAR
STARTCHAR 2526
ENCODING 9510
SWIDTH 990 0
DWIDTH 11 0
BBX 6 11 0 -2
BITMAP
04
04
04
04
04
FC
04
04
04
04
04
ENDCHAR
STARTCHAR 2527
ENCODING 9511
SWIDTH 990 0
DWIDTH 11 0
BBX 6 11 0 -2
BITMAP
04
04
04
04
04
FC
04
04
04
04
04
ENDCHAR
STARTCHAR 2528
ENCODING 9512
SWIDTH 990 0
DWIDTH 11 0
BBX 6 11 0 -2
BITMAP
04
04
04
04
04
FC
04
04
04
04
04
ENDCHAR
STARTCHAR 2529
ENCODING 9513
SWIDTH 990 0
DWIDTH 11 0
BBX 6 11 0 -2
BITMAP
04
04
04
04
04
FC
04
04
04
04
04
ENDCHAR
STARTCHAR 252A
ENCODING 9514
SWIDTH 990 0
DWIDTH 11 0
BBX 6 11 0 -2
BITMAP
04
04
04
04
04
FC
04
04
04
04
04
ENDCHAR
STARTCHAR 252B
ENCODING 9515
SWIDTH 990 0
DWIDTH 11 0
BBX 6 11 0 -2
BITMAP
04
04
04
04
04
FC
04
04
04
04
04
ENDCHAR
STARTCHAR 252C
ENCODING 9516
SWIDTH 990 0
DWIDTH 11 0
BBX 11 6 0 -2
BITMAP
FFE0
0400
0400
0400
0400
0400
ENDCHAR
STARTCHAR 252D
ENCODING 9517
SWIDTH 990 0
DWIDTH 11 0
BBX 11 6 0 -2
BITMAP
FFE0
0400
0400
0400
0400
0400
ENDCHAR
STARTCHAR 252E
ENCODING 9518
SWIDTH 990 0
DWIDTH 11 0
BBX 11 6 0 -2
BITMAP
FFE0
0400
0400
0400
0400
0400
ENDCHAR
STARTCHAR 252F
ENCODING 9519
SWIDTH 990 0
DWIDTH 11 0
BBX 11 6 0 -2
BITMAP
FFE0
0400
0400
0400
0400
0400
ENDCHAR
STARTCHAR 2530
ENCODING 9520
SWIDTH 990 0
DWIDTH 11 0
BBX 11 6 0 -2
BITMAP
FFE0
0400
0400
0400
0400
0400
ENDCHAR
STARTCHAR 2531
ENCODING 9521
SWIDTH 990 0
DWIDTH 11 0
BBX 11 6 0 -2
BITMAP
FFE0
0400
0400
0400
0400
0400
ENDCHAR
STARTCHAR 2532
ENCODING 9522
SWIDTH 990 0
DWIDTH 11 0
BBX 11 6 0 -2
BITMAP
FFE0
0400
0400
0400
0400
0400
ENDCHAR
STARTCHAR 2533
ENCODING 9523
SWIDTH 990 0
DWIDTH 11 0
BBX 11 6 0 -2
BITMAP
FFE0
0400
0400
0400
0400
0400
ENDCHAR
STARTCHAR 2534
ENCODING 9524
SWIDTH 990 0
DWIDTH 11 0
BBX 11 6 0 3
BITMAP
0400
0400
0400
0400
0400
FFE0
ENDCHAR
STARTCHAR 2535
ENCODING 9525
SWIDTH 990 0
DWIDTH 11 0
BBX 11 6 0 3
BITMAP
0400
0400
0400
0400
0400
FFE0
ENDCHAR
STARTCHAR 2536
ENCODING 9526
SWIDTH 990 0
DWIDTH 11 0
BBX 11 6 0 3
BITMAP
0400
0400
0400
0400
0400
FFE0
ENDCHAR
STARTCHAR 2537
ENCODING 9527
SWIDTH 990 0
DWIDTH 11 0
BBX 11 6 0 3
BITMAP
0400
0400
0400
0400
0400
FFE0
ENDCHAR
STARTCHAR 2538
ENCODING 9528
SWIDTH 990 0
DWIDTH 11 0
BBX 11 6 0 3
BITMAP
0400
0400
0400
0400
0400
FFE0
ENDCHAR
STARTCHAR 2539
ENCODING 9529
SWIDTH 990 0
DWIDTH 11 0
BBX 11 6 0 3
BITMAP
0400
0400
0400
0400
0400
FFE0
ENDCHAR
STARTCHAR 253A
ENCODING 9530
SWIDTH 990 0
DWIDTH 11 0
BBX 11 6 0 3
BITMAP
0400
0400
0400
0400
0400
FFE0
ENDCHAR
STARTCHAR 253B
ENCODING 9531
SWIDTH 990 0
DWIDTH 11 0
BBX 11 6 0 3
BITMAP
0400
0400
0400
0400
0400
FFE0
ENDCHAR
STARTCHAR 253C
ENCODING 9532
SWIDTH 990 0
DWIDTH 11 0
BBX 11 11 0 -2
BITMAP
0400
0400
0400
0400
0400
FFE0
0400
0400
0400
0400
0400
ENDCHAR
STARTCHAR 253D
ENCODING 9533
SWIDTH 990 0
DWIDTH 11 0
BBX 11 11 0 -2
BITMAP
0400
0400
0400
0400
0400
FFE0
0400
0400
0400
0400
0400
ENDCHAR
STARTCHAR 253E
ENCODING 9534
SWIDTH 990 0
DWIDTH 11 0
BBX 11 11 0 -2
BITMAP
0400
0400
0400
0400
0400
FFE0
0400
0400
0400
0400
0400
ENDCHAR
STARTCHAR 253F
ENCODING 9535
SWIDTH 990 0
DWIDTH 11 0
BBX 11 11 0 -2
BITMAP
0400
0400
0400
0400
0400
FFE0
0400
0400
0400
0400
0400
ENDCHAR
STARTCHAR 2540
ENCODING 9536
SWIDTH 990 0
DWIDTH 11 0
BBX 11 11 0 -2
BITMAP
0400
0400
0400
0400
0400
FFE0
0400
0400
0400
0400
0400
ENDCHAR
STARTCHAR 2541
ENCODING 9537
SWIDTH 990 0
DWIDTH 11 0
BBX 11 11 0 -2
BITMAP
0400
0400
0400
0400
0400
FFE0
0400
0400
0400
0400
0400
ENDCHAR
STARTCHAR 2542
ENCODING 9538
SWIDTH 990 0
DWIDTH 11 0
BBX 11 11 0 -2
BITMAP
0400
0400
0400
0400
0400
FFE0
0400
0400
0400
0400
0400
ENDCHAR
STARTCHAR 2543
ENCODING 9539
SWIDTH 990 0
DWIDTH 11 0
BBX 11 11 0 -2
BITMAP
0400
0400
0400
0400
0400
FFE0
0400
0400
0400
0400
0400
ENDCHAR
STARTCHAR 2544
ENCODING 9540
SWIDTH 990 0
DWIDTH 11 0
BBX 11 11 0 -2
BITMAP
0400
0400
0400
0400
0400
FFE0
0400
0400
0400
0400
0400
ENDCHAR
STARTCHAR 2545
ENCODING 9541
SWIDTH 990 0
DWIDTH 11 0
BBX 11 11 0 -2
BITMAP
0400
0400
0400
0400
0400
FFE0
0400
0400
0400
0400
0400
ENDCHAR
STARTCHAR 2546
ENCODING 9542
SWIDTH 990 0
DWIDTH 11 0
BBX 11 11 0 -2
BITMAP
0400
0400
0400
0400
0400
FFE0
0400
0400
0400
0400
0400
ENDCHAR
STARTCHAR 2547
ENCODING 9543
SWIDTH 990 0
DWIDTH 11 0
BBX 11 11 0 -2
BITMAP
0400
0400
0400
0400
0400
FFE0
0400
0400
0400
0400
0400
ENDCHAR
STARTCHAR 2548
ENCODING 9544
SWIDTH 990 0
DWIDTH 11 0
BBX 11 11 0 -2
BITMAP
0400
0400
0400
0400
0400
FFE0
0400
0400
0400
0400
0400
ENDCHAR
STARTCHAR 2549
ENCODING 9545
SWIDTH 990 0
DWIDTH 11 0
BBX 11 11 0 -2
BITMAP
0400
0400
0400
0400
0400
FFE0
0400
0400
0400
0400
0400
ENDCHAR
STARTCHAR 254A
ENCODING 9546
SWIDTH 990 0
DWIDTH 11 0
BBX 11 11 0 -2
BITMAP
0400
0400
0400
0400
0400
FFE0
0400
0400
0400
0400
0400
ENDCHAR
STARTCHAR 254B
ENCODING 9547
SWIDTH 990 0
DWIDTH 11 0
BBX 11 11 0 -2
BITMAP
0400
0400
0400
0400
0400
FFE0
0400
0400
0400
0400
0400
ENDCHAR
STARTCHAR 2550
ENCODING 9552
SWIDTH 990 0
DWIDTH 11 0
BBX 11 2 0 3
BITMAP
FFE0
FFE0
ENDCHAR
STARTCHAR 2551
ENCODING 9553
SWIDTH 990 0
DWIDTH 11 0
BBX 1 10 5 -2
BITMAP
80
80
80
80
80
80
80
80
80
80
ENDCHAR
STARTCHAR 2552
ENCODING 9554
SWIDTH 990 0
DWIDTH 11 0
BBX 6 7 5 -2
BITMAP
FC
FC
80
80
80
80
80
ENDCHAR
STARTCHAR 2553
ENCODING 9555
SWIDTH 990 0
DWIDTH 11 0
BBX 6 6 5 -2
BITMAP
FC
80
80
80
80
80
ENDCHAR
STARTCHAR 2554
ENCODING 9556
SWIDTH 990 0
DWIDTH 11 0
BBX 6 6 5 -2
BITMAP
FC
FC
80
80
80
80
ENDCHAR
STARTCHAR 2555
ENCODING 9557
SWIDTH 990 0
DWIDTH 11 0
BBX 6 7 0 -2
BITMAP
FC
FC
04
04
04
04
04
ENDCHAR
STARTCHAR 2556
ENCODING 9558
SWIDTH 990 0
DWIDTH 11 0
BBX 6 6 0 -2
BITMAP
FC
0C
0C
0C
0C
0C
ENDCHAR
STARTCHAR 2557
ENCODING 9559
SWIDTH 990 0
DWIDTH 11 0
BBX 6 6 0 -2
BITMAP
FC
FC
0C
0C
0C
0C
ENDCHAR
STARTCHAR 2558
ENCODING 9560
SWIDTH 990 0
DWIDTH 11 0
BBX 6 7 5 3
BITMAP
80
80
80
80
80
FC
FC
ENDCHAR
STARTCHAR 2559
ENCODING 9561
SWIDTH 990 0
DWIDTH 11 0
BBX 6 6 5 3
BITMAP
80
80
80
80
80
FC
ENDCHAR
STARTCHAR 255A
ENCODING 9562
SWIDTH 990 0
DWIDTH 11 0
BBX 6 6 5 4
BITMAP
80
80
80
80
FC
FC
ENDCHAR
STARTCHAR 255B
ENCODING 9563
SWIDTH 990 0
DWIDTH 11 0
BBX 6 7 0 3
BITMAP
04
04
04
04
04
FC
FC
ENDCHAR
STARTCHAR 255C
ENCODING 9564
SWIDTH 990 0
DWIDTH 11 0
BBX 6 6 0 3
BITMAP
0C
0C
0C
0C
0C
FC
ENDCHAR
STARTCHAR 255D
ENCODING 9565
SWIDTH 990 0
DWIDTH 11 0
BBX 6 6 0 4
BITMAP
0C
0C
0C
0C
FC
FC
ENDCHAR
STARTCHAR 255E
ENCODING 9566
SWIDTH 990 0
DWIDTH 11 0
BBX 6 12 5 -2
BITMAP
80
80
80
80
80
FC
FC
80
80
80
80
80
ENDCHAR
STARTCHAR 255F
ENCODING 9567
SWIDTH 990 0
DWIDTH 11 0
BBX 6 11 5 -2
BITMAP
80
80
80
80
80
FC
80
80
80
80
80
ENDCHAR
STARTCHAR 2560
ENCODING 9568
SWIDTH 990 0
DWIDTH 11 0
BBX 6 10 5 -1
BITMAP
80
80
80
80
FC
FC
80
80
80
80
ENDCHAR
STARTCHAR 2561
ENCODING 9569
SWIDTH 990 0
DWIDTH 11 0
BBX 6 12 0 -2
BITMAP
04
04
04
04
04
FC
FC
04
04
04
04
04
ENDCHAR
STARTCHAR 2562
ENCODING 9570
SWIDTH 990 0
DWIDTH 11 0
BBX 6 11 0 -2
BITMAP
0C
0C
0C
0C
0C
FC
0C
0C
0C
0C
08
ENDCHAR
STARTCHAR 2563
ENCODING 9571
SWIDTH 990 0
DWIDTH 11 0
BBX 6 10 0 -1
BITMAP
0C
0C
0C
0C
FC
FC
0C
0C
0C
0C
ENDCHAR
STARTCHAR 2564
ENCODING 9572
SWIDTH 990 0
DWIDTH 11 0
BBX 11 7 0 -2
BITMAP
FFE0
FFE0
0400
0400
0400
0400
0400
ENDCHAR
STARTCHAR 2565
ENCODING 9573
SWIDTH 990 0
DWIDTH 11 0
BBX 11 6 0 -2
BITMAP
FFE0
0C00
0C00
0C00
0C00
0C00
ENDCHAR
STARTCHAR 2566
ENCODING 9574
SWIDTH 990 0
DWIDTH 11 0
BBX 11 6 0 -2
BITMAP
FFE0
FBE0
0C00
0C00
0C00
0C00
ENDCHAR
STARTCHAR 2567
ENCODING 9575
SWIDTH 990 0
DWIDTH 11 0
BBX 11 7 0 3
BITMAP
0400
0400
0400
0400
0400
FFE0
FFE0
ENDCHAR
STARTCHAR 2568
ENCODING 9576
SWIDTH 990 0
DWIDTH 11 0
BBX 11 6 0 3
BITMAP
0C00
0C00
0C00
0C00
0C00
FFE0
ENDCHAR
STARTCHAR 2569
ENCODING 9577
SWIDTH 990 0
DWIDTH 11 0
BBX 11 6 0 4
BITMAP
0C00
0C00
0C00
0C00
FBE0
FFE0
ENDCHAR
STARTCHAR 256A
ENCODING 9578
SWIDTH 990 0
DWIDTH 11 0
BBX 11 12 0 -2
BITMAP
0400
0400
0400
0400
0400
FFE0
FFE0
0400
0400
0400
0400
0400
ENDCHAR
STARTCHAR 256B
ENCODING 9579
SWIDTH 990 0
DWIDTH 11 0
BBX 11 11 0 -2
BITMAP
0C00
0C00
0C00
0C00
0C00
FFE0
0C00
0C00
0C00
0C00
0C00
ENDCHAR
STARTCHAR 256C
ENCODING 9580
SWIDTH 990 0
DWIDTH 11 0
BBX 11 10 0 -1
BITMAP
0C00
0C00
0C00
0C00
FBE0
FBE0
0C00
0C00
0C00
0C00
ENDCHAR
STARTCHAR 2580
ENCODING 9600
SWIDTH 990 0
DWIDTH 11 0
BBX 11 5 0 4
BITMAP
FFE0
FFE0
FFE0
FFE0
FFE0
ENDCHAR
STARTCHAR 2584
ENCODING 9604
SWIDTH 990 0
DWIDTH 11 0
BBX 11 6 0 -2
BITMAP
FFE0
FFE0
FFE0
FFE0
FFE0
FFE0
ENDCHAR
STARTCHAR 2588
ENCODING 9608
SWIDTH 990 0
DWIDTH 11 0
BBX 11 11 0 -2
BITMAP
FFE0
FFE0
FFE0
FFE0
FFE0
FFE0
FFE0
FFE0
FFE0
FFE0
FFE0
ENDCHAR
STARTCHAR 258C
ENCODING 9612
SWIDTH 990 0
DWIDTH 11 0
BBX 6 11 0 -2
BITMAP
FC
FC
FC
FC
FC
FC
FC
FC
FC
FC
FC
ENDCHAR
STARTCHAR 2590
ENCODING 9616
SWIDTH 990 0
DWIDTH 11 0
BBX 6 11 5 -2
BITMAP
FC
FC
FC
FC
FC
FC
FC
FC
FC
FC
FC
ENDCHAR
STARTCHAR 2591
ENCODING 9617
SWIDTH 990 0
DWIDTH 11 0
BBX 10 10 0 -1
BITMAP
B6C0
0000
B6C0
B6C0
0000
B6C0
B6C0
0000
B6C0
B6C0
ENDCHAR
STARTCHAR 2592
ENCODING 9618
SWIDTH 990 0
DWIDTH 11 0
BBX 11 10 0 -1
BITMAP
B5A0
B5A0
0000
B5A0
0000
B5A0
B5A0
0000
B5A0
B5A0
ENDCHAR
STARTCHAR 2593
ENCODING 9619
SWIDTH 990 0
DWIDTH 11 0
BBX 11 10 0 -1
BITMAP
B5A0
B5A0
0000
B5A0
0000
B5A0
B5A0
0000
B5A0
B5A0
ENDCHAR
STARTCHAR 25A0
ENCODING 9632
SWIDTH 900 0
DWIDTH 10 0
BBX 8 8 1 0
BITMAP
FF
FF
FF
FF
FF
FF
FF
FF
ENDCHAR
STARTCHAR 25A1
ENCODING 9633
SWIDTH 900 0
DWIDTH 10 0
BBX 8 9 1 -1
BITMAP
FF
81
81
81
81
81
81
81
FF
ENDCHAR
STARTCHAR 25A3
ENCODING 9635
SWIDTH 990 0
DWIDTH 11 0
BBX 9 8 1 0
BITMAP
FF80
8080
BE80
BE80
BE80
BE80
8080
FF80
ENDCHAR
STARTCHAR 25A4
ENCODING 9636
SWIDTH 990 0
DWIDTH 11 0
BBX 9 8 1 0
BITMAP
FF80
8080
FF80
8080
FF80
FF80
8080
FF80
ENDCHAR
STARTCHAR 25A5
ENCODING 9637
SWIDTH 990 0
DWIDTH 11 0
BBX 9 9 1 0
BITMAP
0500
FA80
AA80
AA80
AA80
AA80
AA80
AA80
FF80
ENDCHAR
STARTCHAR 25A6
ENCODING 9638
SWIDTH 990 0
DWIDTH 11 0
BBX 9 8 1 0
BITMAP
FF80
AA80
FF80
AA80
FF80
FF80
AA80
FF80
ENDCHAR
STARTCHAR 25A7
ENCODING 9639
SWIDTH 990 0
DWIDTH 11 0
BBX 9 9 1 0
BITMAP
FF80
E880
B480
9A80
CD80
A680
9380
FE80
0100
ENDCHAR
STARTCHAR 25A8
ENCODING 9640
SWIDTH 990 0
DWIDTH 11 0
BBX 9 9 1 0
BITMAP
FF80
9380
A680
CC80
9B80
B480
E880
BF80
4000
ENDCHAR
STARTCHAR 25A9
ENCODING 9641
SWIDTH 990 0
DWIDTH 11 0
BBX 9 8 1 0
BITMAP
FF80
D580
A280
DD80
9880
E780
D580
FF80
ENDCHAR
STARTCHAR 25AA
ENCODING 9642
SWIDTH 360 0
DWIDTH 4 0
BBX 2 2 1 3
BITMAP
C0
C0
ENDCHAR
STARTCHAR 25AB
ENCODING 9643
SWIDTH 360 0
DWIDTH 4 0
BBX 2 3 1 2
BITMAP
C0
C0
C0
ENDCHAR
STARTCHAR 25AC
ENCODING 9644
SWIDTH 990 0
DWIDTH 11 0
BBX 11 2 0 3
BITMAP
FFE0
FFE0
ENDCHAR
STARTCHAR 25B2
ENCODING 9650
SWIDTH 900 0
DWIDTH 10 0
BBX 8 6 1 1
BITMAP
08
18
3C
3E
7E
FF
ENDCHAR
STARTCHAR 25B3
ENCODING 9651
SWIDTH 990 0
DWIDTH 11 0
BBX 8 6 1 1
BITMAP
08
14
24
42
81
FF
ENDCHAR
STARTCHAR 25B6
ENCODING 9654
SWIDTH 990 0
DWIDTH 11 0
BBX 6 8 2 0
BITMAP
80
E0
F0
FC
FC
F8
E0
C0
ENDCHAR
STARTCHAR 25B7
ENCODING 9655
SWIDTH 990 0
DWIDTH 11 0
BBX 6 8 2 0
BITMAP
80
E0
90
8C
84
88
B0
C0
ENDCHAR
STARTCHAR 25BA
ENCODING 9658
SWIDTH 720 0
DWIDTH 8 0
BBX 6 4 1 2
BITMAP
C0
F8
FC
C0
ENDCHAR
STARTCHAR 25BC
ENCODING 9660
SWIDTH 900 0
DWIDTH 10 0
BBX 8 6 1 1
BITMAP
FF
7E
3E
3C
18
18
ENDCHAR
STARTCHAR 25BD
ENCODING 9661
SWIDTH 990 0
DWIDTH 11 0
BBX 9 6 1 1
BITMAP
7F80
8100
4200
2400
1400
0800
ENDCHAR
STARTCHAR 25C0
ENCODING 9664
SWIDTH 990 0
DWIDTH 11 0
BBX 6 8 3 0
BITMAP
04
1C
3C
FC
FC
7C
1C
04
ENDCHAR
STARTCHAR 25C1
ENCODING 9665
SWIDTH 990 0
DWIDTH 11 0
BBX 7 8 2 0
BITMAP
06
0A
32
42
82
62
1A
06
ENDCHAR
STARTCHAR 25C4
ENCODING 9668
SWIDTH 720 0
DWIDTH 8 0
BBX 6 4 1 2
BITMAP
0C
7C
FC
0C
ENDCHAR
STARTCHAR 25C6
ENCODING 9670
SWIDTH 990 0
DWIDTH 11 0
BBX 9 10 1 -1
BITMAP
0800
1C00
3E00
7F00
FF80
FF80
7F00
3E00
1C00
0800
ENDCHAR
STARTCHAR 25C7
ENCODING 9671
SWIDTH 990 0
DWIDTH 11 0
BBX 9 10 1 -1
BITMAP
0800
1400
2200
4100
8080
8080
4100
2200
1400
0800
ENDCHAR
STARTCHAR 25C8
ENCODING 9672
SWIDTH 990 0
DWIDTH 11 0
BBX 9 10 1 -1
BITMAP
0800
1400
2A00
5D00
BE80
BF80
5F00
2E00
1400
0800
ENDCHAR
STARTCHAR 25CA
ENCODING 9674
SWIDTH 810 0
DWIDTH 9 0
BBX 7 8 1 0
BITMAP
10
68
44
84
82
84
48
30
ENDCHAR
STARTCHAR 25CB
ENCODING 9675
SWIDTH 990 0
DWIDTH 11 0
BBX 9 9 1 -1
BITMAP
3E00
4100
8080
8080
8080
8080
8080
4100
3E00
ENDCHAR
STARTCHAR 25CE
ENCODING 9678
SWIDTH 990 0
DWIDTH 11 0
BBX 9 9 1 -1
BITMAP
3E00
5D00
A280
C280
C280
A280
9C80
4100
3E00
ENDCHAR
STARTCHAR 25CF
ENCODING 9679
SWIDTH 990 0
DWIDTH 11 0
BBX 9 9 1 -1
BITMAP
3E00
7F00
FF80
FF80
FF80
FF80
7F00
3E00
0800
ENDCHAR
STARTCHAR 25D0
ENCODING 9680
SWIDTH 990 0
DWIDTH 11 0
BBX 9 9 1 -1
BITMAP
3E00
7100
F080
F080
F080
F080
F080
7100
3E00
ENDCHAR
STARTCHAR 25D1
ENCODING 9681
SWIDTH 990 0
DWIDTH 11 0
BBX 9 9 1 -1
BITMAP
3E00
4F00
8F80
8F80
8F80
8F80
8F80
4F00
3E00
ENDCHAR
STARTCHAR 25D8
ENCODING 9688
SWIDTH 990 0
DWIDTH 11 0
BBX 11 11 0 -2
BITMAP
FFE0
FFE0
F1E0
E0E0
E0E0
E0E0
E0E0
F1E0
FFE0
FFE0
FFE0
ENDCHAR
STARTCHAR 25D9
ENCODING 9689
SWIDTH 990 0
DWIDTH 11 0
BBX 11 11 0 -2
BITMAP
FFE0
E0E0
DF60
BFA0
BFA0
FFE0
BFA0
BFA0
DF60
E0E0
FFE0
ENDCHAR
STARTCHAR 25E6
ENCODING 9702
SWIDTH 360 0
DWIDTH 4 0
BBX 2 3 1 2
BITMAP
C0
C0
C0
ENDCHAR
STARTCHAR 2605
ENCODING 9733
SWIDTH 990 0
DWIDTH 11 0
BBX 7 8 2 0
BITMAP
10
10
18
FE
3C
3C
6C
84
ENDCHAR
STARTCHAR 2606
ENCODING 9734
SWIDTH 990 0
DWIDTH 11 0
BBX 7 8 2 0
BITMAP
10
30
28
EE
44
44
74
4C
ENDCHAR
STARTCHAR 260E
ENCODING 9742
SWIDTH 990 0
DWIDTH 11 0
BBX 9 7 1 0
BITMAP
FF80
E580
FA80
4200
4100
6300
FF00
ENDCHAR
STARTCHAR 260F
ENCODING 9743
SWIDTH 990 0
DWIDTH 11 0
BBX 10 7 0 0
BITMAP
3F00
5FC0
9F40
71C0
7180
4E80
7FC0
ENDCHAR
STARTCHAR 261C
ENCODING 9756
SWIDTH 990 0
DWIDTH 11 0
BBX 11 4 0 2
BITMAP
FFE0
7E60
2B60
1FE0
ENDCHAR
STARTCHAR 261E
ENCODING 9758
SWIDTH 990 0
DWIDTH 11 0
BBX 11 4 0 2
BITMAP
FFE0
CFC0
DB00
FE00
ENDCHAR
STARTCHAR 263A
ENCODING 9786
SWIDTH 990 0
DWIDTH 11 0
BBX 9 9 1 -1
BITMAP
3C00
6300
5500
8100
8080
8100
5D00
6300
3C00
ENDCHAR
STARTCHAR 263B
ENCODING 9787
SWIDTH 990 0
DWIDTH 11 0
BBX 9 8 1 0
BITMAP
3E00
7F00
6B00
FF80
FF80
7F00
6300
3E00
ENDCHAR
STARTCHAR 263C
ENCODING 9788
SWIDTH 900 0
DWIDTH 10 0
BBX 10 9 0 -1
BITMAP
0880
4F00
3100
4100
C0C0
4100
2100
3F00
4880
ENDCHAR
STARTCHAR 2640
ENCODING 9792
SWIDTH 630 0
DWIDTH 7 0
BBX 5 9 1 -1
BITMAP
70
88
88
90
50
20
F8
20
20
ENDCHAR
STARTCHAR 2642
ENCODING 9794
SWIDTH 630 0
DWIDTH 7 0
BBX 7 9 0 -1
BITMAP
04
1C
0C
12
70
88
88
88
70
ENDCHAR
STARTCHAR 2660
ENCODING 9824
SWIDTH 720 0
DWIDTH 8 0
BBX 7 8 1 0
BITMAP
10
38
78
FC
FC
FE
DC
30
ENDCHAR
STARTCHAR 2661
ENCODING 9825
SWIDTH 990 0
DWIDTH 11 0
BBX 9 10 1 -1
BITMAP
7700
9480
8880
8080
8100
4100
2200
2200
1400
0800
ENDCHAR
STARTCHAR 2663
ENCODING 9827
SWIDTH 810 0
DWIDTH 9 0
BBX 8 8 1 0
BITMAP
38
38
38
F6
FF
FE
56
10
ENDCHAR
STARTCHAR 2664
ENCODING 9828
SWIDTH 990 0
DWIDTH 11 0
BBX 7 10 2 -1
BITMAP
10
28
48
84
82
82
82
EE
28
38
ENDCHAR
STARTCHAR 2665
ENCODING 9829
SWIDTH 810 0
DWIDTH 9 0
BBX 7 8 1 0
BITMAP
EC
FE
FE
FE
7C
78
38
10
ENDCHAR
STARTCHAR 2666
ENCODING 9830
SWIDTH 810 0
DWIDTH 9 0
BBX 7 8 1 0
BITMAP
10
38
7C
FC
FE
7C
38
10
ENDCHAR
STARTCHAR 2667
ENCODING 9831
SWIDTH 990 0
DWIDTH 11 0
BBX 9 10 1 -1
BITMAP
1C00
2200
2200
2400
F780
8080
9480
7B00
1400
1C00
ENDCHAR
STARTCHAR 2668
ENCODING 9832
SWIDTH 990 0
DWIDTH 11 0
BBX 9 9 1 0
BITMAP
0800
2C00
2C00
1A00
1A00
5B00
8880
8180
7F00
ENDCHAR
STARTCHAR 2669
ENCODING 9833
SWIDTH 990 0
DWIDTH 11 0
BBX 2 8 4 0
BITMAP
40
40
40
40
40
40
C0
C0
ENDCHAR
STARTCHAR 266A
ENCODING 9834
SWIDTH 720 0
DWIDTH 8 0
BBX 5 8 1 1
BITMAP
20
30
48
48
48
48
40
C0
ENDCHAR
STARTCHAR 266B
ENCODING 9835
SWIDTH 720 0
DWIDTH 8 0
BBX 6 8 1 1
BITMAP
3C
44
44
44
44
44
C4
0C
ENDCHAR
STARTCHAR 266C
ENCODING 9836
SWIDTH 990 0
DWIDTH 11 0
BBX 8 10 1 -1
BITMAP
01
1F
33
3F
21
21
23
26
C0
80
ENDCHAR
STARTCHAR 266D
ENCODING 9837
SWIDTH 990 0
DWIDTH 11 0
BBX 3 6 4 1
BITMAP
80
E0
A0
A0
E0
80
ENDCHAR
STARTCHAR 3000
ENCODING 12288
SWIDTH 990 0
DWIDTH 11 0
BBX 0 0 0 0
BITMAP
ENDCHAR
STARTCHAR 3001
ENCODING 12289
SWIDTH 990 0
DWIDTH 11 0
BBX 2 2 1 0
BITMAP
80
40
ENDCHAR
STARTCHAR 3002
ENCODING 12290
SWIDTH 990 0
DWIDTH 11 0
BBX 2 3 1 -1
BITMAP
C0
C0
C0
ENDCHAR
STARTCHAR 3003
ENCODING 12291
SWIDTH 990 0
DWIDTH 11 0
BBX 3 3 4 2
BITMAP
60
A0
C0
ENDCHAR
STARTCHAR 3008
ENCODING 12296
SWIDTH 990 0
DWIDTH 11 0
BBX 4 10 6 -1
BITMAP
10
20
40
80
80
80
80
40
20
10
ENDCHAR
STARTCHAR 3009
ENCODING 12297
SWIDTH 990 0
DWIDTH 11 0
BBX 4 10 1 -1
BITMAP
80
40
40
20
10
10
20
40
40
80
ENDCHAR
STARTCHAR 300A
ENCODING 12298
SWIDTH 990 0
DWIDTH 11 0
BBX 4 9 6 0
BITMAP
70
60
C0
C0
C0
C0
60
50
20
ENDCHAR
STARTCHAR 300B
ENCODING 12299
SWIDTH 990 0
DWIDTH 11 0
BBX 4 8 1 0
BITMAP
C0
A0
60
30
30
60
A0
C0
ENDCHAR
STARTCHAR 300C
ENCODING 12300
SWIDTH 990 0
DWIDTH 11 0
BBX 3 5 7 3
BITMAP
E0
80
80
80
80
ENDCHAR
STARTCHAR 300D
ENCODING 12301
SWIDTH 990 0
DWIDTH 11 0
BBX 3 5 1 0
BITMAP
20
20
20
20
E0
ENDCHAR
STARTCHAR 300E
ENCODING 12302
SWIDTH 990 0
DWIDTH 11 0
BBX 3 5 7 4
BITMAP
E0
80
80
80
80
ENDCHAR
STARTCHAR 300F
ENCODING 12303
SWIDTH 990 0
DWIDTH 11 0
BBX 3 5 1 -1
BITMAP
20
60
60
60
E0
ENDCHAR
STARTCHAR 3010
ENCODING 12304
SWIDTH 990 0
DWIDTH 11 0
BBX 3 10 7 -1
BITMAP
E0
C0
C0
C0
80
80
C0
C0
C0
E0
ENDCHAR
STARTCHAR 3011
ENCODING 12305
SWIDTH 990 0
DWIDTH 11 0
BBX 3 10 1 -1
BITMAP
E0
E0
60
60
60
60
60
60
60
E0
ENDCHAR
STARTCHAR 3013
ENCODING 12307
SWIDTH 990 0
DWIDTH 11 0
BBX 11 4 0 2
BITMAP
FFE0
0000
0000
FFE0
ENDCHAR
STARTCHAR 3014
ENCODING 12308
SWIDTH 990 0
DWIDTH 11 0
BBX 3 10 7 -1
BITMAP
60
80
80
80
80
80
80
80
80
60
ENDCHAR
STARTCHAR 3015
ENCODING 12309
SWIDTH 990 0
DWIDTH 11 0
BBX 3 10 1 -1
BITMAP
E0
20
20
20
20
20
20
20
20
C0
ENDCHAR
STARTCHAR 3041
ENCODING 12353
SWIDTH 990 0
DWIDTH 11 0
BBX 7 7 2 0
BITMAP
20
68
38
3C
6A
92
7C
ENDCHAR
STARTCHAR 3042
ENCODING 12354
SWIDTH 990 0
DWIDTH 11 0
BBX 8 9 1 0
BITMAP
10
14
78
14
3E
59
99
91
66
ENDCHAR
STARTCHAR 3043
ENCODING 12355
SWIDTH 990 0
DWIDTH 11 0
BBX 7 5 2 0
BITMAP
80
84
82
50
60
ENDCHAR
STARTCHAR 3044
ENCODING 12356
SWIDTH 990 0
DWIDTH 11 0
BBX 8 6 2 2
BITMAP
84
82
82
81
A0
60
ENDCHAR
STARTCHAR 3045
ENCODING 12357
SWIDTH 990 0
DWIDTH 11 0
BBX 4 7 3 -1
BITMAP
30
00
30
D0
10
10
10
ENDCHAR
STARTCHAR 3046
ENCODING 12358
SWIDTH 990 0
DWIDTH 11 0
BBX 6 9 2 0
BITMAP
20
18
00
38
C4
04
08
08
10
ENDCHAR
STARTCHAR 3047
ENCODING 12359
SWIDTH 990 0
DWIDTH 11 0
BBX 6 7 3 1
BITMAP
10
00
F0
20
30
50
8C
ENDCHAR
STARTCHAR 3048
ENCODING 12360
SWIDTH 990 0
DWIDTH 11 0
BBX 7 9 2 0
BITMAP
20
18
00
F8
10
20
70
C8
8E
ENDCHAR
STARTCHAR 3049
ENCODING 12361
SWIDTH 990 0
DWIDTH 11 0
BBX 6 6 3 1
BITMAP
40
E4
60
D8
C4
D8
ENDCHAR
STARTCHAR 304A
ENCODING 12362
SWIDTH 990 0
DWIDTH 11 0
BBX 7 8 2 1
BITMAP
40
D2
60
5C
62
C2
C2
CC
ENDCHAR
STARTCHAR 304B
ENCODING 12363
SWIDTH 990 0
DWIDTH 11 0
BBX 9 8 1 0
BITMAP
2000
2000
F900
2480
4400
4400
8800
1800
ENDCHAR
STARTCHAR 304C
ENCODING 12364
SWIDTH 990 0
DWIDTH 11 0
BBX 9 9 1 0
BITMAP
0080
2100
2000
F900
2480
4400
4400
8800
1800
ENDCHAR
STARTCHAR 304D
ENCODING 12365
SWIDTH 990 0
DWIDTH 11 0
BBX 6 9 2 0
BITMAP
20
28
7C
18
68
08
7C
84
78
ENDCHAR
STARTCHAR 304E
ENCODING 12366
SWIDTH 990 0
DWIDTH 11 0
BBX 8 9 2 0
BITMAP
20
2B
7C
38
F0
08
F8
84
70
ENDCHAR
STARTCHAR 304F
ENCODING 12367
SWIDTH 990 0
DWIDTH 11 0
BBX 4 8 3 0
BITMAP
20
20
40
80
40
20
10
10
ENDCHAR
STARTCHAR 3050
ENCODING 12368
SWIDTH 990 0
DWIDTH 11 0
BBX 6 8 3 0
BITMAP
20
4C
80
80
40
20
20
10
ENDCHAR
STARTCHAR 3051
ENCODING 12369
SWIDTH 990 0
DWIDTH 11 0
BBX 8 8 1 -1
BITMAP
42
43
9F
82
82
82
44
44
ENDCHAR
STARTCHAR 3052
ENCODING 12370
SWIDTH 990 0
DWIDTH 11 0
BBX 9 9 1 -1
BITMAP
0080
4080
8300
9E00
8200
8200
8200
4400
4400
ENDCHAR
STARTCHAR 3053
ENCODING 12371
SWIDTH 990 0
DWIDTH 11 0
BBX 6 7 2 1
BITMAP
48
38
00
00
00
80
7C
ENDCHAR
STARTCHAR 3054
ENCODING 12372
SWIDTH 990 0
DWIDTH 11 0
BBX 8 7 2 1
BITMAP
48
38
01
00
00
80
7C
ENDCHAR
STARTCHAR 3055
ENCODING 12373
SWIDTH 990 0
DWIDTH 11 0
BBX 6 8 2 1
BITMAP
14
F8
10
08
7C
84
80
78
ENDCHAR
STARTCHAR 3056
ENCODING 12374
SWIDTH 990 0
DWIDTH 11 0
BBX 8 9 2 0
BITMAP
01
16
F8
10
08
78
84
80
70
ENDCHAR
STARTCHAR 3057
ENCODING 12375
SWIDTH 990 0
DWIDTH 11 0
BBX 6 8 3 0
BITMAP
80
80
80
80
80
84
88
70
ENDCHAR
STARTCHAR 3058
ENCODING 12376
SWIDTH 990 0
DWIDTH 11 0
BBX 6 8 3 0
BITMAP
88
90
80
80
80
84
88
70
ENDCHAR
STARTCHAR 3059
ENCODING 12377
SWIDTH 990 0
DWIDTH 11 0
BBX 8 8 1 0
BITMAP
08
FF
18
28
28
18
08
10
ENDCHAR
STARTCHAR 305A
ENCODING 12378
SWIDTH 990 0
DWIDTH 11 0
BBX 9 9 1 -1
BITMAP
0080
0900
FF00
0800
1800
2800
3800
0800
1000
ENDCHAR
STARTCHAR 305B
ENCODING 12379
SWIDTH 990 0
DWIDTH 11 0
BBX 9 8 1 0
BITMAP
2200
2200
3F80
E400
2400
2400
2200
1C00
ENDCHAR
STARTCHAR 305C
ENCODING 12380
SWIDTH 990 0
DWIDTH 11 0
BBX 10 8 1 1
BITMAP
2540
2400
7F80
E400
2400
2C00
2200
1C00
ENDCHAR
STARTCHAR 305D
ENCODING 12381
SWIDTH 990 0
DWIDTH 11 0
BBX 7 8 2 0
BITMAP
48
30
1E
E8
10
20
10
0C
ENDCHAR
STARTCHAR 305E
ENCODING 12382
SWIDTH 990 0
DWIDTH 11 0
BBX 8 8 2 0
BITMAP
4A
11
1E
E8
30
20
10
0C
ENDCHAR
STARTCHAR 305F
ENCODING 12383
SWIDTH 990 0
DWIDTH 11 0
BBX 8 9 1 0
BITMAP
20
20
38
E7
20
40
40
48
47
ENDCHAR
STARTCHAR 3060
ENCODING 12384
SWIDTH 990 0
DWIDTH 11 0
BBX 9 9 1 0
BITMAP
2000
2180
3000
E700
2000
4000
4000
4800
8700
ENDCHAR
STARTCHAR 3061
ENCODING 12385
SWIDTH 990 0
DWIDTH 11 0
BBX 7 8 2 1
BITMAP
40
78
C0
40
5C
62
42
1C
ENDCHAR
STARTCHAR 3062
ENCODING 12386
SWIDTH 990 0
DWIDTH 11 0
BBX 7 9 2 0
BITMAP
40
40
7A
C0
40
7C
62
04
18
ENDCHAR
STARTCHAR 3063
ENCODING 12387
SWIDTH 990 0
DWIDTH 11 0
BBX 7 5 2 0
BITMAP
FC
02
02
04
18
ENDCHAR
STARTCHAR 3064
ENCODING 12388
SWIDTH 990 0
DWIDTH 11 0
BBX 8 6 1 1
BITMAP
1E
E1
01
01
03
0C
ENDCHAR
STARTCHAR 3065
ENCODING 12389
SWIDTH 990 0
DWIDTH 11 0
BBX 9 8 1 1
BITMAP
0080
0100
1E00
E100
0100
0100
0200
0C00
ENDCHAR
STARTCHAR 3066
ENCODING 12390
SWIDTH 990 0
DWIDTH 11 0
BBX 8 7 1 1
BITMAP
1F
E4
18
10
10
08
06
ENDCHAR
STARTCHAR 3067
ENCODING 12391
SWIDTH 990 0
DWIDTH 11 0
BBX 8 7 1 1
BITMAP
1F
E4
19
10
10
08
06
ENDCHAR
STARTCHAR 3068
ENCODING 12392
SWIDTH 990 0
DWIDTH 11 0
BBX 6 8 2 0
BITMAP
40
24
38
20
C0
80
44
78
ENDCHAR
STARTCHAR 3069
ENCODING 12393
SWIDTH 990 0
DWIDTH 11 0
BBX 8 8 2 1
BITMAP
43
24
38
20
C0
80
44
78
ENDCHAR
STARTCHAR 306A
ENCODING 12394
SWIDTH 990 0
DWIDTH 11 0
BBX 7 8 2 0
BITMAP
40
F0
42
88
88
08
3E
38
ENDCHAR
STARTCHAR 306B
ENCODING 12395
SWIDTH 990 0
DWIDTH 11 0
BBX 7 7 2 0
BITMAP
80
9E
80
80
80
90
9E
ENDCHAR
STARTCHAR 306C
ENCODING 12396
SWIDTH 990 0
DWIDTH 11 0
BBX 9 8 1 1
BITMAP
0800
0800
5E00
6900
5100
B100
9700
6780
ENDCHAR
STARTCHAR 306D
ENCODING 12397
SWIDTH 990 0
DWIDTH 11 0
BBX 9 9 1 0
BITMAP
2000
2000
3700
F900
2100
6100
6700
2780
2000
ENDCHAR
STARTCHAR 306E
ENCODING 12398
SWIDTH 990 0
DWIDTH 11 0
BBX 9 7 1 1
BITMAP
1E00
6900
8880
9080
9080
9100
6200
ENDCHAR
STARTCHAR 306F
ENCODING 12399
SWIDTH 990 0
DWIDTH 11 0
BBX 8 8 1 0
BITMAP
42
53
8F
82
82
8E
53
4C
ENDCHAR
STARTCHAR 3070
ENCODING 12400
SWIDTH 990 0
DWIDTH 11 0
BBX 9 9 1 0
BITMAP
0080
4300
4200
9F00
8200
8200
8E00
5300
4C00
ENDCHAR
STARTCHAR 3071
ENCODING 12401
SWIDTH 990 0
DWIDTH 11 0
BBX 9 9 1 0
BITMAP
0080
4480
8400
9F00
8400
8400
8E00
5300
4C00
ENDCHAR
STARTCHAR 3072
ENCODING 12402
SWIDTH 990 0
DWIDTH 11 0
BBX 8 8 1 1
BITMAP
22
E5
43
82
84
84
44
38
ENDCHAR
STARTCHAR 3073
ENCODING 12403
SWIDTH 990 0
DWIDTH 11 0
BBX 8 8 1 1
BITMAP
23
E5
43
82
84
84
44
38
ENDCHAR
STARTCHAR 3074
ENCODING 12404
SWIDTH 990 0
DWIDTH 11 0
BBX 9 8 1 0
BITMAP
2280
E680
4300
8200
8400
8400
4400
3800
ENDCHAR
STARTCHAR 3075
ENCODING 12405
SWIDTH 990 0
DWIDTH 11 0
BBX 8 7 1 1
BITMAP
10
08
10
10
09
85
D8
ENDCHAR
STARTCHAR 3076
ENCODING 12406
SWIDTH 990 0
DWIDTH 11 0
BBX 8 7 1 1
BITMAP
10
09
11
10
09
85
D8
ENDCHAR
STARTCHAR 3077
ENCODING 12407
SWIDTH 990 0
DWIDTH 11 0
BBX 9 7 1 1
BITMAP
1000
0980
1100
1000
0900
8500
DC00
ENDCHAR
STARTCHAR 3078
ENCODING 12408
SWIDTH 990 0
DWIDTH 11 0
BBX 9 4 1 2
BITMAP
3000
4C00
8600
0180
ENDCHAR
STARTCHAR 3079
ENCODING 12409
SWIDTH 990 0
DWIDTH 11 0
BBX 9 5 1 2
BITMAP
0100
3000
4C00
8600
0180
ENDCHAR
STARTCHAR 307A
ENCODING 12410
SWIDTH 990 0
DWIDTH 11 0
BBX 9 5 1 2
BITMAP
0100
3300
4C00
8200
0180
ENDCHAR
STARTCHAR 307B
ENCODING 12411
SWIDTH 990 0
DWIDTH 11 0
BBX 8 9 1 0
BITMAP
41
9E
84
83
9C
82
4E
53
0C
ENDCHAR
STARTCHAR 307C
ENCODING 12412
SWIDTH 990 0
DWIDTH 11 0
BBX 9 9 1 0
BITMAP
4100
9E80
8480
9F00
8400
8200
4E00
5300
0C00
ENDCHAR
STARTCHAR 307D
ENCODING 12413
SWIDTH 990 0
DWIDTH 11 0
BBX 9 9 1 0
BITMAP
4100
9E80
8480
8700
9C00
8400
DE00
9500
1C00
ENDCHAR
STARTCHAR 307E
ENCODING 12414
SWIDTH 990 0
DWIDTH 11 0
BBX 5 8 3 0
BITMAP
20
F8
38
E0
20
F0
A8
E0
ENDCHAR
STARTCHAR 307F
ENCODING 12415
SWIDTH 990 0
DWIDTH 11 0
BBX 9 7 1 0
BITMAP
3800
0800
1200
7E00
A700
A280
4400
ENDCHAR
STARTCHAR 3080
ENCODING 12416
SWIDTH 990 0
DWIDTH 11 0
BBX 9 8 1 1
BITMAP
2800
7100
2080
6000
A000
6000
2200
3E00
ENDCHAR
STARTCHAR 3081
ENCODING 12417
SWIDTH 990 0
DWIDTH 11 0
BBX 8 8 1 1
BITMAP
04
44
5E
69
A9
B1
B1
66
ENDCHAR
STARTCHAR 3082
ENCODING 12418
SWIDTH 990 0
DWIDTH 11 0
BBX 6 9 3 0
BITMAP
40
40
E0
60
A8
E8
84
48
70
ENDCHAR
STARTCHAR 3083
ENCODING 12419
SWIDTH 990 0
DWIDTH 11 0
BBX 7 6 2 1
BITMAP
10
4E
FE
20
20
10
ENDCHAR
STARTCHAR 3084
ENCODING 12420
SWIDTH 990 0
DWIDTH 11 0
BBX 9 7 1 0
BITMAP
4800
4F00
7080
E100
1700
1000
1000
ENDCHAR
STARTCHAR 3085
ENCODING 12421
SWIDTH 990 0
DWIDTH 11 0
BBX 7 6 2 0
BITMAP
08
9C
AA
DA
9C
90
ENDCHAR
STARTCHAR 3086
ENCODING 12422
SWIDTH 990 0
DWIDTH 11 0
BBX 8 7 1 1
BITMAP
44
8E
95
A5
D5
8F
48
ENDCHAR
STARTCHAR 3087
ENCODING 12423
SWIDTH 990 0
DWIDTH 11 0
BBX 5 7 3 0
BITMAP
20
28
30
20
E0
F8
E0
ENDCHAR
STARTCHAR 3088
ENCODING 12424
SWIDTH 990 0
DWIDTH 11 0
BBX 6 8 2 0
BITMAP
10
14
18
10
10
F0
9C
E0
ENDCHAR
STARTCHAR 3089
ENCODING 12425
SWIDTH 990 0
DWIDTH 11 0
BBX 7 8 2 0
BITMAP
30
00
80
9C
62
02
04
18
ENDCHAR
STARTCHAR 308A
ENCODING 12426
SWIDTH 990 0
DWIDTH 11 0
BBX 5 8 3 0
BITMAP
88
88
88
88
88
90
10
20
ENDCHAR
STARTCHAR 308B
ENCODING 12427
SWIDTH 990 0
DWIDTH 11 0
BBX 7 7 2 1
BITMAP
78
10
20
3C
42
B2
3C
ENDCHAR
STARTCHAR 308C
ENCODING 12428
SWIDTH 990 0
DWIDTH 11 0
BBX 9 9 1 0
BITMAP
2000
2000
2E00
F200
2200
6200
A280
A300
2000
ENDCHAR
STARTCHAR 308D
ENCODING 12429
SWIDTH 990 0
DWIDTH 11 0
BBX 7 9 2 0
BITMAP
18
70
10
20
3C
42
82
04
18
ENDCHAR
STARTCHAR 308E
ENCODING 12430
SWIDTH 990 0
DWIDTH 11 0
BBX 7 7 2 0
BITMAP
20
20
FC
22
62
A2
2C
ENDCHAR
STARTCHAR 308F
ENCODING 12431
SWIDTH 990 0
DWIDTH 11 0
BBX 9 8 1 0
BITMAP
2000
2000
EE00
3100
6080
6100
A600
2000
ENDCHAR
STARTCHAR 3090
ENCODING 12432
SWIDTH 990 0
DWIDTH 11 0
BBX 7 8 2 0
BITMAP
70
10
3C
E2
A2
DA
E6
1C
ENDCHAR
STARTCHAR 3091
ENCODING 12433
SWIDTH 990 0
DWIDTH 11 0
BBX 7 9 2 -1
BITMAP
08
78
10
3C
74
3C
40
7C
92
ENDCHAR
STARTCHAR 3092
ENCODING 12434
SWIDTH 990 0
DWIDTH 11 0
BBX 7 9 2 0
BITMAP
20
38
C0
40
76
48
B8
40
3C
ENDCHAR
STARTCHAR 3093
ENCODING 12435
SWIDTH 990 0
DWIDTH 11 0
BBX 7 8 2 0
BITMAP
10
20
20
40
70
50
8A
8C
ENDCHAR
STARTCHAR 30A1
ENCODING 12449
SWIDTH 990 0
DWIDTH 11 0
BBX 6 5 3 1
BITMAP
FC
28
20
20
40
ENDCHAR
STARTCHAR 30A2
ENCODING 12450
SWIDTH 990 0
DWIDTH 11 0
BBX 7 7 2 0
BITMAP
FE
02
14
10
20
20
40
ENDCHAR
STARTCHAR 30A3
ENCODING 12451
SWIDTH 990 0
DWIDTH 11 0
BBX 5 7 3 0
BITMAP
08
10
60
A0
20
20
20
ENDCHAR
STARTCHAR 30A4
ENCODING 12452
SWIDTH 990 0
DWIDTH 11 0
BBX 6 8 2 0
BITMAP
04
08
30
D0
10
10
10
10
ENDCHAR
STARTCHAR 30A5
ENCODING 12453
SWIDTH 990 0
DWIDTH 11 0
BBX 5 6 3 0
BITMAP
20
F8
88
88
10
20
ENDCHAR
STARTCHAR 30A6
ENCODING 12454
SWIDTH 990 0
DWIDTH 11 0
BBX 7 8 2 1
BITMAP
10
FE
82
84
04
04
08
30
ENDCHAR
STARTCHAR 30A7
ENCODING 12455
SWIDTH 990 0
DWIDTH 11 0
BBX 7 4 2 1
BITMAP
7C
10
10
FE
ENDCHAR
STARTCHAR 30A8
ENCODING 12456
SWIDTH 990 0
DWIDTH 11 0
BBX 7 5 2 2
BITMAP
FE
10
10
10
FE
ENDCHAR
STARTCHAR 30A9
ENCODING 12457
SWIDTH 990 0
DWIDTH 11 0
BBX 7 6 2 0
BITMAP
08
7E
18
28
C8
18
ENDCHAR
STARTCHAR 30AA
ENCODING 12458
SWIDTH 990 0
DWIDTH 11 0
BBX 7 7 2 1
BITMAP
08
08
FE
18
68
C8
38
ENDCHAR
STARTCHAR 30AB
ENCODING 12459
SWIDTH 990 0
DWIDTH 11 0
BBX 7 7 2 1
BITMAP
20
20
FE
22
24
44
8C
ENDCHAR
STARTCHAR 30AC
ENCODING 12460
SWIDTH 990 0
DWIDTH 11 0
BBX 8 8 2 1
BITMAP
01
20
21
FE
22
24
64
CC
ENDCHAR
STARTCHAR 30AD
ENCODING 12461
SWIDTH 990 0
DWIDTH 11 0
BBX 7 8 2 0
BITMAP
20
24
F8
1E
F0
10
10
10
ENDCHAR
STARTCHAR 30AE
ENCODING 12462
SWIDTH 990 0
DWIDTH 11 0
BBX 8 9 2 0
BITMAP
01
22
24
F8
1E
F0
10
10
10
ENDCHAR
STARTCHAR 30AF
ENCODING 12463
SWIDTH 990 0
DWIDTH 11 0
BBX 6 8 2 1
BITMAP
20
3C
44
88
08
10
60
C0
ENDCHAR
STARTCHAR 30B0
ENCODING 12464
SWIDTH 990 0
DWIDTH 11 0
BBX 8 9 2 0
BITMAP
01
22
3C
44
88
08
10
60
C0
ENDCHAR
STARTCHAR 30B1
ENCODING 12465
SWIDTH 990 0
DWIDTH 11 0
BBX 8 8 1 0
BITMAP
10
20
3F
44
84
08
08
10
ENDCHAR
STARTCHAR 30B2
ENCODING 12466
SWIDTH 990 0
DWIDTH 11 0
BBX 9 9 1 0
BITMAP
0080
1100
2000
3F00
4400
8400
0800
0800
1000
ENDCHAR
STARTCHAR 30B3
ENCODING 12467
SWIDTH 990 0
DWIDTH 11 0
BBX 6 5 2 1
BITMAP
FC
04
04
04
FC
ENDCHAR
STARTCHAR 30B4
ENCODING 12468
SWIDTH 990 0
DWIDTH 11 0
BBX 8 7 2 1
BITMAP
01
02
FC
04
04
04
FC
ENDCHAR
STARTCHAR 30B5
ENCODING 12469
SWIDTH 990 0
DWIDTH 11 0
BBX 9 8 1 0
BITMAP
2400
2400
FF80
2400
2400
2400
0800
1000
ENDCHAR
STARTCHAR 30B6
ENCODING 12470
SWIDTH 990 0
DWIDTH 11 0
BBX 9 9 1 0
BITMAP
0080
2500
2400
FF80
2400
2400
2400
0800
1000
ENDCHAR
STARTCHAR 30B7
ENCODING 12471
SWIDTH 990 0
DWIDTH 11 0
BBX 7 7 2 0
BITMAP
20
80
42
04
08
30
40
ENDCHAR
STARTCHAR 30B8
ENCODING 12472
SWIDTH 990 0
DWIDTH 11 0
BBX 7 7 2 1
BITMAP
26
80
42
04
08
30
40
ENDCHAR
STARTCHAR 30B9
ENCODING 12473
SWIDTH 990 0
DWIDTH 11 0
BBX 7 6 2 1
BITMAP
FC
08
10
38
64
82
ENDCHAR
STARTCHAR 30BA
ENCODING 12474
SWIDTH 990 0
DWIDTH 11 0
BBX 8 8 2 1
BITMAP
01
02
FC
08
10
18
64
82
ENDCHAR
STARTCHAR 30BB
ENCODING 12475
SWIDTH 990 0
DWIDTH 11 0
BBX 8 6 1 2
BITMAP
20
27
FA
24
20
1F
ENDCHAR
STARTCHAR 30BC
ENCODING 12476
SWIDTH 990 0
DWIDTH 11 0
BBX 9 8 1 1
BITMAP
0080
0100
2080
2300
FE00
2400
2000
1F00
ENDCHAR
STARTCHAR 30BD
ENCODING 12477
SWIDTH 990 0
DWIDTH 11 0
BBX 6 7 2 1
BITMAP
80
84
44
04
08
10
20
ENDCHAR
STARTCHAR 30BE
ENCODING 12478
SWIDTH 990 0
DWIDTH 11 0
BBX 8 8 2 1
BITMAP
01
02
84
84
08
08
10
20
ENDCHAR
STARTCHAR 30BF
ENCODING 12479
SWIDTH 990 0
DWIDTH 11 0
BBX 6 8 2 0
BITMAP
20
3C
44
A4
18
18
24
C0
ENDCHAR
STARTCHAR 30C0
ENCODING 12480
SWIDTH 990 0
DWIDTH 11 0
BBX 8 9 2 0
BITMAP
01
21
3C
44
A4
18
18
24
40
ENDCHAR
STARTCHAR 30C1
ENCODING 12481
SWIDTH 990 0
DWIDTH 11 0
BBX 8 8 1 0
BITMAP
06
38
08
FF
08
10
10
60
ENDCHAR
STARTCHAR 30C2
ENCODING 12482
SWIDTH 990 0
DWIDTH 11 0
BBX 9 8 1 0
BITMAP
0680
3880
0800
FF00
0800
1000
1000
6000
ENDCHAR
STARTCHAR 30C3
ENCODING 12483
SWIDTH 990 0
DWIDTH 11 0
BBX 5 5 3 1
BITMAP
A8
88
10
20
40
ENDCHAR
STARTCHAR 30C4
ENCODING 12484
SWIDTH 990 0
DWIDTH 11 0
BBX 7 7 2 1
BITMAP
22
A2
84
04
08
10
20
ENDCHAR
STARTCHAR 30C5
ENCODING 12485
SWIDTH 990 0
DWIDTH 11 0
BBX 9 8 1 1
BITMAP
0080
1100
9200
4200
0400
0400
0800
3000
ENDCHAR
STARTCHAR 30C6
ENCODING 12486
SWIDTH 990 0
DWIDTH 11 0
BBX 8 8 1 0
BITMAP
3E
00
00
FF
08
10
10
20
ENDCHAR
STARTCHAR 30C7
ENCODING 12487
SWIDTH 990 0
DWIDTH 11 0
BBX 9 8 1 1
BITMAP
3E80
0100
0000
FF00
0800
0800
1000
2000
ENDCHAR
STARTCHAR 30C8
ENCODING 12488
SWIDTH 990 0
DWIDTH 11 0
BBX 4 8 4 0
BITMAP
80
80
80
A0
90
80
80
80
ENDCHAR
STARTCHAR 30C9
ENCODING 12489
SWIDTH 990 0
DWIDTH 11 0
BBX 5 8 4 1
BITMAP
98
80
80
A0
90
80
80
80
ENDCHAR
STARTCHAR 30CA
ENCODING 12490
SWIDTH 990 0
DWIDTH 11 0
BBX 8 8 1 0
BITMAP
08
08
FF
08
08
10
30
20
ENDCHAR
STARTCHAR 30CB
ENCODING 12491
SWIDTH 990 0
DWIDTH 11 0
BBX 7 6 2 1
BITMAP
7C
00
00
00
00
FE
ENDCHAR
STARTCHAR 30CC
ENCODING 12492
SWIDTH 990 0
DWIDTH 11 0
BBX 6 7 2 1
BITMAP
7C
04
08
28
10
68
C0
ENDCHAR
STARTCHAR 30CD
ENCODING 12493
SWIDTH 990 0
DWIDTH 11 0
BBX 7 8 2 0
BITMAP
10
FC
08
10
74
92
10
10
ENDCHAR
STARTCHAR 30CE
ENCODING 12494
SWIDTH 990 0
DWIDTH 11 0
BBX 5 7 3 1
BITMAP
08
08
10
10
20
40
80
ENDCHAR
STARTCHAR 30CF
ENCODING 12495
SWIDTH 990 0
DWIDTH 11 0
BBX 8 5 1 2
BITMAP
22
22
41
81
80
ENDCHAR
STARTCHAR 30D0
ENCODING 12496
SWIDTH 990 0
DWIDTH 11 0
BBX 9 7 1 1
BITMAP
0080
0100
2200
2200
4100
8100
8000
ENDCHAR
STARTCHAR 30D1
ENCODING 12497
SWIDTH 990 0
DWIDTH 11 0
BBX 9 7 1 1
BITMAP
0180
0080
2200
2200
4100
8100
8000
ENDCHAR
STARTCHAR 30D2
ENCODING 12498
SWIDTH 990 0
DWIDTH 11 0
BBX 6 7 3 1
BITMAP
80
88
B0
C0
80
80
FC
ENDCHAR
STARTCHAR 30D3
ENCODING 12499
SWIDTH 990 0
DWIDTH 11 0
BBX 7 8 3 1
BITMAP
02
84
88
B0
C0
80
80
FC
ENDCHAR
STARTCHAR 30D4
ENCODING 12500
SWIDTH 990 0
DWIDTH 11 0
BBX 7 8 3 1
BITMAP
02
82
88
B0
C0
80
80
FC
ENDCHAR
STARTCHAR 30D5
ENCODING 12501
SWIDTH 990 0
DWIDTH 11 0
BBX 7 6 2 1
BITMAP
FE
04
04
08
10
60
ENDCHAR
STARTCHAR 30D6
ENCODING 12502
SWIDTH 990 0
DWIDTH 11 0
BBX 8 8 2 1
BITMAP
01
01
FE
04
04
08
10
60
ENDCHAR
STARTCHAR 30D7
ENCODING 12503
SWIDTH 990 0
DWIDTH 11 0
BBX 8 8 2 1
BITMAP
01
01
FE
04
04
08
10
60
ENDCHAR
STARTCHAR 30D8
ENCODING 12504
SWIDTH 990 0
DWIDTH 11 0
BBX 9 4 1 2
BITMAP
3000
4C00
8600
0180
ENDCHAR
STARTCHAR 30D9
ENCODING 12505
SWIDTH 990 0
DWIDTH 11 0
BBX 9 6 1 2
BITMAP
0200
0200
3000
4C00
8600
0180
ENDCHAR
STARTCHAR 30DA
ENCODING 12506
SWIDTH 990 0
DWIDTH 11 0
BBX 9 6 1 2
BITMAP
0200
0600
3000
4C00
8600
0180
ENDCHAR
STARTCHAR 30DB
ENCODING 12507
SWIDTH 990 0
DWIDTH 11 0
BBX 8 8 1 0
BITMAP
08
08
7F
08
4A
49
88
18
ENDCHAR
STARTCHAR 30DC
ENCODING 12508
SWIDTH 990 0
DWIDTH 11 0
BBX 8 9 1 0
BITMAP
01
08
08
7F
08
4A
49
88
18
ENDCHAR
STARTCHAR 30DD
ENCODING 12509
SWIDTH 990 0
DWIDTH 11 0
BBX 8 9 1 0
BITMAP
01
09
08
7F
08
4A
49
88
18
ENDCHAR
STARTCHAR 30DE
ENCODING 12510
SWIDTH 990 0
DWIDTH 11 0
BBX 7 6 2 1
BITMAP
FE
04
48
38
10
08
ENDCHAR
STARTCHAR 30DF
ENCODING 12511
SWIDTH 990 0
DWIDTH 11 0
BBX 4 7 3 1
BITMAP
40
30
80
60
00
E0
30
ENDCHAR
STARTCHAR 30E0
ENCODING 12512
SWIDTH 990 0
DWIDTH 11 0
BBX 7 7 2 1
BITMAP
10
20
20
44
44
86
F8
ENDCHAR
STARTCHAR 30E1
ENCODING 12513
SWIDTH 990 0
DWIDTH 11 0
BBX 6 7 2 1
BITMAP
04
04
28
18
24
40
80
ENDCHAR
STARTCHAR 30E2
ENCODING 12514
SWIDTH 990 0
DWIDTH 11 0
BBX 8 6 1 1
BITMAP
7E
10
FF
10
10
0F
ENDCHAR
STARTCHAR 30E3
ENCODING 12515
SWIDTH 990 0
DWIDTH 11 0
BBX 6 7 2 0
BITMAP
20
2C
F4
24
20
10
10
ENDCHAR
STARTCHAR 30E4
ENCODING 12516
SWIDTH 990 0
DWIDTH 11 0
BBX 7 7 2 1
BITMAP
20
26
FA
24
20
10
10
ENDCHAR
STARTCHAR 30E5
ENCODING 12517
SWIDTH 990 0
DWIDTH 11 0
BBX 7 4 2 1
BITMAP
78
08
08
FE
ENDCHAR
STARTCHAR 30E6
ENCODING 12518
SWIDTH 990 0
DWIDTH 11 0
BBX 9 5 1 2
BITMAP
3C00
0400
0400
0400
FF80
ENDCHAR
STARTCHAR 30E7
ENCODING 12519
SWIDTH 990 0
DWIDTH 11 0
BBX 5 5 3 1
BITMAP
F8
08
F8
08
F8
ENDCHAR
STARTCHAR 30E8
ENCODING 12520
SWIDTH 990 0
DWIDTH 11 0
BBX 6 6 2 0
BITMAP
FC
04
FC
04
04
FC
ENDCHAR
STARTCHAR 30E9
ENCODING 12521
SWIDTH 990 0
DWIDTH 11 0
BBX 6 8 2 0
BITMAP
7C
00
FC
04
04
08
10
20
ENDCHAR
STARTCHAR 30EA
ENCODING 12522
SWIDTH 990 0
DWIDTH 11 0
BBX 5 8 3 0
BITMAP
88
88
88
88
90
10
10
20
ENDCHAR
STARTCHAR 30EB
ENCODING 12523
SWIDTH 990 0
DWIDTH 11 0
BBX 9 7 1 1
BITMAP
0800
2800
2800
2880
2900
4A00
8C00
ENDCHAR
STARTCHAR 30EC
ENCODING 12524
SWIDTH 990 0
DWIDTH 11 0
BBX 7 7 2 1
BITMAP
80
80
80
82
8C
90
E0
ENDCHAR
STARTCHAR 30ED
ENCODING 12525
SWIDTH 990 0
DWIDTH 11 0
BBX 5 5 3 1
BITMAP
F8
88
88
88
F8
ENDCHAR
STARTCHAR 30EE
ENCODING 12526
SWIDTH 990 0
DWIDTH 11 0
BBX 5 6 3 0
BITMAP
F8
88
88
08
10
20
ENDCHAR
STARTCHAR 30EF
ENCODING 12527
SWIDTH 990 0
DWIDTH 11 0
BBX 7 8 2 0
BITMAP
FE
82
82
84
04
04
08
10
ENDCHAR
STARTCHAR 30F0
ENCODING 12528
SWIDTH 990 0
DWIDTH 11 0
BBX 9 9 1 0
BITMAP
0400
0400
7F00
2400
2400
FF80
0400
0400
0400
ENDCHAR
STARTCHAR 30F1
ENCODING 12529
SWIDTH 990 0
DWIDTH 11 0
BBX 9 5 1 2
BITMAP
7F00
0C00
0800
0800
FF80
ENDCHAR
STARTCHAR 30F2
ENCODING 12530
SWIDTH 990 0
DWIDTH 11 0
BBX 6 7 2 1
BITMAP
FC
04
FC
04
08
10
60
ENDCHAR
STARTCHAR 30F3
ENCODING 12531
SWIDTH 990 0
DWIDTH 11 0
BBX 7 6 2 1
BITMAP
40
02
06
0C
30
C0
ENDCHAR
STARTCHAR 30F4
ENCODING 12532
SWIDTH 990 0
DWIDTH 11 0
BBX 8 9 2 0
BITMAP
01
01
10
FE
82
82
04
08
10
ENDCHAR
STARTCHAR 30F5
ENCODING 12533
SWIDTH 990 0
DWIDTH 11 0
BBX 5 5 3 1
BITMAP
20
F8
48
48
98
ENDCHAR
STARTCHAR 30F6
ENCODING 12534
SWIDTH 990 0
DWIDTH 11 0
BBX 7 7 2 0
BITMAP
20
20
7E
88
10
10
20
ENDCHAR
STARTCHAR 3131
ENCODING 12593
SWIDTH 990 0
DWIDTH 11 0
BBX 6 5 2 1
BITMAP
F8
04
04
04
04
ENDCHAR
STARTCHAR 3132
ENCODING 12594
SWIDTH 990 0
DWIDTH 11 0
BBX 9 5 1 1
BITMAP
E700
1080
1080
1080
1080
ENDCHAR
STARTCHAR 3133
ENCODING 12595
SWIDTH 990 0
DWIDTH 11 0
BBX 9 5 1 1
BITMAP
E200
1200
1200
1500
1880
ENDCHAR
STARTCHAR 3134
ENCODING 12596
SWIDTH 990 0
DWIDTH 11 0
BBX 6 5 3 1
BITMAP
80
80
80
80
7C
ENDCHAR
STARTCHAR 3135
ENCODING 12597
SWIDTH 990 0
DWIDTH 11 0
BBX 8 5 2 1
BITMAP
9F
84
84
8A
71
ENDCHAR
STARTCHAR 3136
ENCODING 12598
SWIDTH 990 0
DWIDTH 11 0
BBX 10 5 1 1
BITMAP
8200
9FC0
8500
8880
7700
ENDCHAR
STARTCHAR 3137
ENCODING 12599
SWIDTH 990 0
DWIDTH 11 0
BBX 6 5 3 1
BITMAP
7C
80
80
80
7C
ENDCHAR
STARTCHAR 3138
ENCODING 12600
SWIDTH 990 0
DWIDTH 11 0
BBX 7 5 2 1
BITMAP
66
88
88
88
66
ENDCHAR
STARTCHAR 3139
ENCODING 12601
SWIDTH 990 0
DWIDTH 11 0
BBX 6 5 3 1
BITMAP
F8
04
78
80
7C
ENDCHAR
STARTCHAR 313A
ENCODING 12602
SWIDTH 990 0
DWIDTH 11 0
BBX 9 5 1 1
BITMAP
E700
1080
6080
8080
7080
ENDCHAR
STARTCHAR 313B
ENCODING 12603
SWIDTH 990 0
DWIDTH 11 0
BBX 9 5 1 1
BITMAP
E780
1480
6480
8480
7780
ENDCHAR
STARTCHAR 313C
ENCODING 12604
SWIDTH 990 0
DWIDTH 11 0
BBX 9 5 1 1
BITMAP
E480
1780
6480
8480
7300
ENDCHAR
STARTCHAR 313D
ENCODING 12605
SWIDTH 990 0
DWIDTH 11 0
BBX 9 5 1 1
BITMAP
E200
1200
6200
8500
7880
ENDCHAR
STARTCHAR 313E
ENCODING 12606
SWIDTH 990 0
DWIDTH 11 0
BBX 9 5 1 1
BITMAP
E380
1400
6780
8400
7380
ENDCHAR
STARTCHAR 313F
ENCODING 12607
SWIDTH 990 0
DWIDTH 11 0
BBX 10 5 1 1
BITMAP
E7C0
1000
6280
8280
77C0
ENDCHAR
STARTCHAR 3140
ENCODING 12608
SWIDTH 990 0
DWIDTH 11 0
BBX 10 5 1 1
BITMAP
E200
1FC0
6500
8880
7700
ENDCHAR
STARTCHAR 3141
ENCODING 12609
SWIDTH 990 0
DWIDTH 11 0
BBX 6 5 3 1
BITMAP
FC
84
84
84
FC
ENDCHAR
STARTCHAR 3142
ENCODING 12610
SWIDTH 990 0
DWIDTH 11 0
BBX 6 5 3 1
BITMAP
84
FC
84
84
78
ENDCHAR
STARTCHAR 3143
ENCODING 12611
SWIDTH 990 0
DWIDTH 11 0
BBX 9 5 1 1
BITMAP
9480
F780
9480
9480
6300
ENDCHAR
STARTCHAR 3144
ENCODING 12612
SWIDTH 990 0
DWIDTH 11 0
BBX 9 5 1 1
BITMAP
9200
F200
9200
9500
6880
ENDCHAR
STARTCHAR 3145
ENCODING 12613
SWIDTH 990 0
DWIDTH 11 0
BBX 7 5 2 1
BITMAP
10
10
28
44
82
ENDCHAR
STARTCHAR 3146
ENCODING 12614
SWIDTH 990 0
DWIDTH 11 0
BBX 9 5 1 1
BITMAP
2200
2200
2200
5500
8880
ENDCHAR
STARTCHAR 3147
ENCODING 12615
SWIDTH 990 0
DWIDTH 11 0
BBX 6 5 3 1
BITMAP
78
84
84
84
78
ENDCHAR
STARTCHAR 3148
ENCODING 12616
SWIDTH 990 0
DWIDTH 11 0
BBX 7 5 2 1
BITMAP
FE
10
10
28
C6
ENDCHAR
STARTCHAR 3149
ENCODING 12617
SWIDTH 990 0
DWIDTH 11 0
BBX 9 5 1 1
BITMAP
FF80
2200
2200
5500
8880
ENDCHAR
STARTCHAR 314A
ENCODING 12618
SWIDTH 990 0
DWIDTH 11 0
BBX 7 6 2 0
BITMAP
38
00
FE
10
28
C6
ENDCHAR
STARTCHAR 314B
ENCODING 12619
SWIDTH 990 0
DWIDTH 11 0
BBX 6 5 2 1
BITMAP
F8
04
FC
04
04
ENDCHAR
STARTCHAR 314C
ENCODING 12620
SWIDTH 990 0
DWIDTH 11 0
BBX 6 5 2 1
BITMAP
7C
80
FC
80
7C
ENDCHAR
STARTCHAR 314D
ENCODING 12621
SWIDTH 990 0
DWIDTH 11 0
BBX 6 5 2 1
BITMAP
FC
00
48
48
FC
ENDCHAR
STARTCHAR 314E
ENCODING 12622
SWIDTH 990 0
DWIDTH 11 0
BBX 7 6 2 0
BITMAP
38
00
FE
28
44
38
ENDCHAR
STARTCHAR 314F
ENCODING 12623
SWIDTH 990 0
DWIDTH 11 0
BBX 3 10 5 -2
BITMAP
80
80
80
80
E0
80
80
80
80
80
ENDCHAR
STARTCHAR 3150
ENCODING 12624
SWIDTH 990 0
DWIDTH 11 0
BBX 4 10 4 -2
BITMAP
10
90
90
90
F0
90
90
90
90
10
ENDCHAR
STARTCHAR 3151
ENCODING 12625
SWIDTH 990 0
DWIDTH 11 0
BBX 3 10 5 -2
BITMAP
80
80
80
E0
80
80
E0
80
80
80
ENDCHAR
STARTCHAR 3152
ENCODING 12626
SWIDTH 990 0
DWIDTH 11 0
BBX 4 10 4 -2
BITMAP
10
90
90
F0
90
90
F0
90
90
10
ENDCHAR
STARTCHAR 3153
ENCODING 12627
SWIDTH 990 0
DWIDTH 11 0
BBX 3 10 4 -2
BITMAP
20
20
20
20
E0
20
20
20
20
20
ENDCHAR
STARTCHAR 3154
ENCODING 12628
SWIDTH 990 0
DWIDTH 11 0
BBX 6 10 2 -2
BITMAP
04
24
24
24
E4
24
24
24
24
04
ENDCHAR
STARTCHAR 3155
ENCODING 12629
SWIDTH 990 0
DWIDTH 11 0
BBX 3 10 4 -2
BITMAP
20
20
20
E0
20
20
E0
20
20
20
ENDCHAR
STARTCHAR 3156
ENCODING 12630
SWIDTH 990 0
DWIDTH 11 0
BBX 6 10 2 -2
BITMAP
04
24
24
E4
24
24
E4
24
24
04
ENDCHAR
STARTCHAR 3157
ENCODING 12631
SWIDTH 990 0
DWIDTH 11 0
BBX 9 5 1 1
BITMAP
0800
0800
0800
0800
FF80
ENDCHAR
STARTCHAR 3158
ENCODING 12632
SWIDTH 990 0
DWIDTH 11 0
BBX 9 10 1 -2
BITMAP
0100
0100
0100
2100
2180
2100
2100
FD00
0100
0100
ENDCHAR
STARTCHAR 3159
ENCODING 12633
SWIDTH 990 0
DWIDTH 11 0
BBX 8 10 1 -2
BITMAP
01
05
05
05
25
27
25
FD
05
01
ENDCHAR
STARTCHAR 315A
ENCODING 12634
SWIDTH 990 0
DWIDTH 11 0
BBX 8 10 1 -2
BITMAP
01
01
01
21
21
21
21
FD
01
01
ENDCHAR
STARTCHAR 315B
ENCODING 12635
SWIDTH 990 0
DWIDTH 11 0
BBX 9 5 1 1
BITMAP
2400
2400
2400
2400
FF80
ENDCHAR
STARTCHAR 315C
ENCODING 12636
SWIDTH 990 0
DWIDTH 11 0
BBX 9 5 1 3
BITMAP
FF80
0800
0800
0800
0800
ENDCHAR
STARTCHAR 315D
ENCODING 12637
SWIDTH 990 0
DWIDTH 11 0
BBX 8 10 1 -2
BITMAP
01
01
01
01
01
FD
11
17
21
01
ENDCHAR
STARTCHAR 315E
ENCODING 12638
SWIDTH 990 0
DWIDTH 11 0
BBX 8 10 1 -2
BITMAP
01
05
05
05
05
F5
25
2D
45
01
ENDCHAR
STARTCHAR 315F
ENCODING 12639
SWIDTH 990 0
DWIDTH 11 0
BBX 8 10 1 -2
BITMAP
01
01
01
01
01
FD
11
11
21
01
ENDCHAR
STARTCHAR 3160
ENCODING 12640
SWIDTH 990 0
DWIDTH 11 0
BBX 9 5 1 3
BITMAP
FF80
1200
1200
1200
1200
ENDCHAR
STARTCHAR 3161
ENCODING 12641
SWIDTH 990 0
DWIDTH 11 0
BBX 9 1 1 3
BITMAP
FF80
ENDCHAR
STARTCHAR 3162
ENCODING 12642
SWIDTH 990 0
DWIDTH 11 0
BBX 8 10 1 -2
BITMAP
01
01
01
01
01
01
01
FF
01
01
ENDCHAR
STARTCHAR 3163
ENCODING 12643
SWIDTH 990 0
DWIDTH 11 0
BBX 1 10 5 -2
BITMAP
80
80
80
80
80
80
80
80
80
80
ENDCHAR
STARTCHAR 3164
ENCODING 12644
SWIDTH 990 0
DWIDTH 11 0
BBX 0 0 0 -2
BITMAP
ENDCHAR
STARTCHAR 3165
ENCODING 12645
SWIDTH 990 0
DWIDTH 11 0
BBX 9 5 1 1
BITMAP
8400
8400
8400
8400
7380
ENDCHAR
STARTCHAR 3166
ENCODING 12646
SWIDTH 990 0
DWIDTH 11 0
BBX 9 5 1 1
BITMAP
8380
8400
8400
8400
7380
ENDCHAR
STARTCHAR 3167
ENCODING 12647
SWIDTH 990 0
DWIDTH 11 0
BBX 9 5 1 1
BITMAP
8200
8200
8200
8500
7880
ENDCHAR
STARTCHAR 3168
ENCODING 12648
SWIDTH 990 0
DWIDTH 11 0
BBX 9 5 1 1
BITMAP
8200
8500
8500
8880
7F80
ENDCHAR
STARTCHAR 3169
ENCODING 12649
SWIDTH 990 0
DWIDTH 11 0
BBX 10 5 1 1
BITMAP
D880
2480
C480
8540
6640
ENDCHAR
STARTCHAR 316A
ENCODING 12650
SWIDTH 990 0
DWIDTH 11 0
BBX 9 5 1 1
BITMAP
E380
1400
6400
8400
7380
ENDCHAR
STARTCHAR 316B
ENCODING 12651
SWIDTH 990 0
DWIDTH 11 0
BBX 10 5 1 1
BITMAP
CA80
2E80
CA80
8B40
6E40
ENDCHAR
STARTCHAR 316C
ENCODING 12652
SWIDTH 990 0
DWIDTH 11 0
BBX 9 5 1 1
BITMAP
E200
1500
6500
8880
7F80
ENDCHAR
STARTCHAR 316D
ENCODING 12653
SWIDTH 990 0
DWIDTH 11 0
BBX 9 5 1 1
BITMAP
E780
1000
6300
8480
7300
ENDCHAR
STARTCHAR 316E
ENCODING 12654
SWIDTH 990 0
DWIDTH 11 0
BBX 9 5 1 1
BITMAP
F480
9780
9480
9480
F300
ENDCHAR
STARTCHAR 316F
ENCODING 12655
SWIDTH 990 0
DWIDTH 11 0
BBX 9 5 1 1
BITMAP
F200
9200
9200
9500
F880
ENDCHAR
STARTCHAR 3170
ENCODING 12656
SWIDTH 990 0
DWIDTH 11 0
BBX 9 5 1 1
BITMAP
F200
9500
9500
9880
FF80
ENDCHAR
STARTCHAR 3171
ENCODING 12657
SWIDTH 990 0
DWIDTH 11 0
BBX 5 9 3 -1
BITMAP
F8
88
88
F8
00
70
88
88
70
ENDCHAR
STARTCHAR 3172
ENCODING 12658
SWIDTH 990 0
DWIDTH 11 0
BBX 9 5 1 1
BITMAP
9700
F080
9080
9080
6080
ENDCHAR
STARTCHAR 3173
ENCODING 12659
SWIDTH 990 0
DWIDTH 11 0
BBX 9 5 1 1
BITMAP
9380
F400
9400
9400
6380
ENDCHAR
STARTCHAR 3174
ENCODING 12660
SWIDTH 990 0
DWIDTH 11 0
BBX 10 5 1 1
BITMAP
A580
E440
A440
AA40
F140
ENDCHAR
STARTCHAR 3175
ENCODING 12661
SWIDTH 990 0
DWIDTH 11 0
BBX 9 5 1 1
BITMAP
A980
EA00
AA00
B600
E580
ENDCHAR
STARTCHAR 3176
ENCODING 12662
SWIDTH 990 0
DWIDTH 11 0
BBX 9 5 1 1
BITMAP
9F80
F200
9200
9500
6880
ENDCHAR
STARTCHAR 3177
ENCODING 12663
SWIDTH 990 0
DWIDTH 11 0
BBX 9 5 1 1
BITMAP
9380
F400
9780
9400
6380
ENDCHAR
STARTCHAR 3178
ENCODING 12664
SWIDTH 990 0
DWIDTH 11 0
BBX 5 9 3 -1
BITMAP
88
F8
88
70
00
70
88
88
70
ENDCHAR
STARTCHAR 3179
ENCODING 12665
SWIDTH 990 0
DWIDTH 11 0
BBX 7 9 2 -1
BITMAP
AA
EE
AA
EE
00
38
44
44
38
ENDCHAR
STARTCHAR 317A
ENCODING 12666
SWIDTH 990 0
DWIDTH 11 0
BBX 8 5 1 1
BITMAP
2E
21
21
51
89
ENDCHAR
STARTCHAR 317B
ENCODING 12667
SWIDTH 990 0
DWIDTH 11 0
BBX 9 5 1 1
BITMAP
2400
2400
2400
5400
8B80
ENDCHAR
STARTCHAR 317C
ENCODING 12668
SWIDTH 990 0
DWIDTH 11 0
BBX 9 5 1 1
BITMAP
2380
2400
2400
5400
8B80
ENDCHAR
STARTCHAR 317D
ENCODING 12669
SWIDTH 990 0
DWIDTH 11 0
BBX 9 5 1 1
BITMAP
2480
2780
2480
5480
8B00
ENDCHAR
STARTCHAR 317E
ENCODING 12670
SWIDTH 990 0
DWIDTH 11 0
BBX 9 5 1 1
BITMAP
2F80
2200
2200
5500
8880
ENDCHAR
STARTCHAR 317F
ENCODING 12671
SWIDTH 990 0
DWIDTH 11 0
BBX 7 5 2 1
BITMAP
10
28
44
82
FE
ENDCHAR
STARTCHAR 3180
ENCODING 12672
SWIDTH 990 0
DWIDTH 11 0
BBX 9 5 1 1
BITMAP
6300
9480
9480
9480
6300
ENDCHAR
STARTCHAR 3181
ENCODING 12673
SWIDTH 990 0
DWIDTH 11 0
BBX 6 5 3 1
BITMAP
10
78
84
84
78
ENDCHAR
STARTCHAR 3182
ENCODING 12674
SWIDTH 990 0
DWIDTH 11 0
BBX 9 5 1 1
BITMAP
6200
9200
9200
9500
6880
ENDCHAR
STARTCHAR 3183
ENCODING 12675
SWIDTH 990 0
DWIDTH 11 0
BBX 9 5 1 1
BITMAP
4200
6500
9500
9880
6F80
ENDCHAR
STARTCHAR 3184
ENCODING 12676
SWIDTH 990 0
DWIDTH 11 0
BBX 5 9 3 -1
BITMAP
F8
50
50
F8
00
70
88
88
70
ENDCHAR
STARTCHAR 3185
ENCODING 12677
SWIDTH 990 0
DWIDTH 11 0
BBX 9 6 1 0
BITMAP
6300
0000
F780
6300
9480
6300
ENDCHAR
STARTCHAR 3186
ENCODING 12678
SWIDTH 990 0
DWIDTH 11 0
BBX 7 5 2 1
BITMAP
FE
00
38
44
38
ENDCHAR
STARTCHAR 3187
ENCODING 12679
SWIDTH 990 0
DWIDTH 11 0
BBX 9 10 1 -2
BITMAP
0100
0100
0100
5180
5100
5100
5180
FD00
0100
0100
ENDCHAR
STARTCHAR 3188
ENCODING 12680
SWIDTH 990 0
DWIDTH 11 0
BBX 8 10 1 -2
BITMAP
01
05
05
07
55
55
57
FD
05
01
ENDCHAR
STARTCHAR 3189
ENCODING 12681
SWIDTH 990 0
DWIDTH 11 0
BBX 8 10 1 -2
BITMAP
01
01
01
51
51
51
51
FD
01
01
ENDCHAR
STARTCHAR 318A
ENCODING 12682
SWIDTH 990 0
DWIDTH 11 0
BBX 8 10 1 -2
BITMAP
01
01
01
07
01
F9
57
51
51
01
ENDCHAR
STARTCHAR 318B
ENCODING 12683
SWIDTH 990 0
DWIDTH 11 0
BBX 9 10 1 -2
BITMAP
0080
0280
0280
0680
0280
FA80
5680
5280
5280
0080
ENDCHAR
STARTCHAR 318C
ENCODING 12684
SWIDTH 990 0
DWIDTH 11 0
BBX 8 10 1 -2
BITMAP
01
01
01
01
01
FD
29
29
29
01
ENDCHAR
STARTCHAR 318D
ENCODING 12685
SWIDTH 990 0
DWIDTH 11 0
BBX 1 2 5 2
BITMAP
80
80
ENDCHAR
STARTCHAR 318E
ENCODING 12686
SWIDTH 990 0
DWIDTH 11 0
BBX 5 10 3 -2
BITMAP
08
08
08
08
88
88
08
08
08
08
ENDCHAR
STARTCHAR 3200
ENCODING 12800
SWIDTH 990 0
DWIDTH 11 0
BBX 9 10 1 -1
BITMAP
4100
8100
8080
BE80
8280
8280
8280
8280
8100
4000
ENDCHAR
STARTCHAR 3201
ENCODING 12801
SWIDTH 990 0
DWIDTH 11 0
BBX 9 10 1 -1
BITMAP
4100
8100
A080
A080
A080
A080
BE80
8080
8100
4000
ENDCHAR
STARTCHAR 3202
ENCODING 12802
SWIDTH 990 0
DWIDTH 11 0
BBX 9 10 1 -1
BITMAP
4100
8100
8080
BE80
A080
A080
BF80
8080
8100
4000
ENDCHAR
STARTCHAR 3203
ENCODING 12803
SWIDTH 990 0
DWIDTH 11 0
BBX 9 10 1 -1
BITMAP
4100
8100
8080
BE80
8280
BE80
BE80
8080
8100
4000
ENDCHAR
STARTCHAR 3204
ENCODING 12804
SWIDTH 990 0
DWIDTH 11 0
BBX 9 10 1 -1
BITMAP
4100
8100
8080
BE80
A280
A280
BE80
8080
8100
4000
ENDCHAR
STARTCHAR 3205
ENCODING 12805
SWIDTH 990 0
DWIDTH 11 0
BBX 9 10 1 -1
BITMAP
4100
8100
8080
A280
BE80
A280
BE80
8080
8100
4000
ENDCHAR
STARTCHAR 3206
ENCODING 12806
SWIDTH 990 0
DWIDTH 11 0
BBX 9 10 1 -1
BITMAP
4100
8100
8880
8880
9880
9480
E380
8080
8100
4000
ENDCHAR
STARTCHAR 3207
ENCODING 12807
SWIDTH 990 0
DWIDTH 11 0
BBX 9 10 1 -1
BITMAP
4100
8100
9C80
A280
A280
A280
A280
9C80
8100
4000
ENDCHAR
STARTCHAR 3208
ENCODING 12808
SWIDTH 990 0
DWIDTH 11 0
BBX 9 10 1 -1
BITMAP
4100
8100
8080
FF80
8880
9480
E380
8080
8100
4000
ENDCHAR
STARTCHAR 3209
ENCODING 12809
SWIDTH 990 0
DWIDTH 11 0
BBX 9 10 1 -1
BITMAP
4100
8100
9C80
FF80
8880
9480
E380
8080
8100
4000
ENDCHAR
STARTCHAR 320A
ENCODING 12810
SWIDTH 990 0
DWIDTH 11 0
BBX 9 10 1 -1
BITMAP
4100
8100
8080
BE80
BE80
8280
8280
8280
8100
4000
ENDCHAR
STARTCHAR 320B
ENCODING 12811
SWIDTH 990 0
DWIDTH 11 0
BBX 9 10 1 -1
BITMAP
4100
8100
8080
BE80
A080
BE80
BE80
8080
8100
4000
ENDCHAR
STARTCHAR 320C
ENCODING 12812
SWIDTH 990 0
DWIDTH 11 0
BBX 9 9 1 0
BITMAP
4100
8080
8080
BE80
A480
9480
FF80
8080
4100
ENDCHAR
STARTCHAR 320D
ENCODING 12813
SWIDTH 990 0
DWIDTH 11 0
BBX 9 10 1 -1
BITMAP
4100
8100
9C80
FF80
8080
BE80
C280
BE80
8100
4000
ENDCHAR
STARTCHAR 320E
ENCODING 12814
SWIDTH 990 0
DWIDTH 11 0
BBX 9 10 1 -1
BITMAP
4100
8100
FA80
8A80
8B80
8A80
9280
E280
8100
4000
ENDCHAR
STARTCHAR 320F
ENCODING 12815
SWIDTH 990 0
DWIDTH 11 0
BBX 9 10 1 -1
BITMAP
4100
8100
C280
C280
C380
C280
CE80
B280
8100
4000
ENDCHAR
STARTCHAR 3210
ENCODING 12816
SWIDTH 990 0
DWIDTH 11 0
BBX 9 10 1 -1
BITMAP
4100
8100
BA80
C280
C280
C380
C680
FA80
8100
4000
ENDCHAR
STARTCHAR 3211
ENCODING 12817
SWIDTH 990 0
DWIDTH 11 0
BBX 9 10 1 -1
BITMAP
4100
8100
FA80
8A80
BA80
C380
C680
FA80
8100
4000
ENDCHAR
STARTCHAR 3212
ENCODING 12818
SWIDTH 990 0
DWIDTH 11 0
BBX 9 10 1 -1
BITMAP
4100
8100
FA80
CA80
CA80
CB80
CA80
FA80
8100
4000
ENDCHAR
STARTCHAR 3213
ENCODING 12819
SWIDTH 990 0
DWIDTH 11 0
BBX 9 10 1 -1
BITMAP
4100
8100
CA80
CA80
FA80
CB80
CA80
FA80
8100
4000
ENDCHAR
STARTCHAR 3214
ENCODING 12820
SWIDTH 990 0
DWIDTH 11 0
BBX 9 10 1 -1
BITMAP
4100
8100
9280
9280
9280
AB80
C680
8280
8100
4000
ENDCHAR
STARTCHAR 3215
ENCODING 12821
SWIDTH 990 0
DWIDTH 11 0
BBX 9 10 1 -1
BITMAP
4100
8100
B280
CA80
CA80
CB80
CA80
B280
8100
4000
ENDCHAR
STARTCHAR 3216
ENCODING 12822
SWIDTH 990 0
DWIDTH 11 0
BBX 9 10 1 -1
BITMAP
4100
8100
FA80
9280
9280
AB80
C680
8280
8100
4000
ENDCHAR
STARTCHAR 3217
ENCODING 12823
SWIDTH 990 0
DWIDTH 11 0
BBX 9 10 1 -1
BITMAP
4100
8100
BA80
FE80
9280
B380
CE80
8280
8100
4000
ENDCHAR
STARTCHAR 3218
ENCODING 12824
SWIDTH 990 0
DWIDTH 11 0
BBX 9 10 1 -1
BITMAP
4100
8100
FA80
8A80
FA80
8B80
9280
E280
8100
4000
ENDCHAR
STARTCHAR 3219
ENCODING 12825
SWIDTH 990 0
DWIDTH 11 0
BBX 9 10 1 -1
BITMAP
4100
8100
FA80
C280
FA80
C380
CE80
F280
8100
4000
ENDCHAR
STARTCHAR 321A
ENCODING 12826
SWIDTH 990 0
DWIDTH 11 0
BBX 9 10 1 -1
BITMAP
4100
8100
FE80
AA80
AA80
AB80
AE80
FA80
8100
4000
ENDCHAR
STARTCHAR 321B
ENCODING 12827
SWIDTH 990 0
DWIDTH 11 0
BBX 9 10 1 -2
BITMAP
4100
BB00
FE80
BA80
CB80
CA80
BA80
8080
8100
4000
ENDCHAR
STARTCHAR 321C
ENCODING 12828
SWIDTH 990 0
DWIDTH 11 0
BBX 9 8 1 0
BITMAP
FF80
8880
9480
E380
FF80
8880
8880
8880
ENDCHAR
STARTCHAR 3260
ENCODING 12896
SWIDTH 990 0
DWIDTH 11 0
BBX 9 10 1 -1
BITMAP
3E00
4100
8080
BE80
8280
8280
8280
8280
4100
3E00
ENDCHAR
STARTCHAR 3261
ENCODING 12897
SWIDTH 990 0
DWIDTH 11 0
BBX 9 10 1 -1
BITMAP
3E00
4100
8080
A080
A080
A080
BE80
8080
4100
3E00
ENDCHAR
STARTCHAR 3262
ENCODING 12898
SWIDTH 990 0
DWIDTH 11 0
BBX 9 10 1 -1
BITMAP
3E00
4100
8080
BE80
A080
A080
BF80
8080
4100
3E00
ENDCHAR
STARTCHAR 3263
ENCODING 12899
SWIDTH 990 0
DWIDTH 11 0
BBX 9 10 1 -1
BITMAP
3E00
4100
8080
BE80
8280
BE80
BE80
8080
4100
3E00
ENDCHAR
STARTCHAR 3264
ENCODING 12900
SWIDTH 990 0
DWIDTH 11 0
BBX 9 10 1 -1
BITMAP
3E00
4100
8080
BE80
A280
A280
BE80
8080
4100
3E00
ENDCHAR
STARTCHAR 3265
ENCODING 12901
SWIDTH 990 0
DWIDTH 11 0
BBX 9 10 1 -1
BITMAP
3E00
4100
8080
A280
BE80
A280
BE80
8080
4100
3E00
ENDCHAR
STARTCHAR 3266
ENCODING 12902
SWIDTH 990 0
DWIDTH 11 0
BBX 9 10 1 -1
BITMAP
3E00
4100
8880
8880
9880
9480
E380
8080
4100
3E00
ENDCHAR
STARTCHAR 3267
ENCODING 12903
SWIDTH 990 0
DWIDTH 11 0
BBX 9 10 1 -1
BITMAP
3E00
4100
9C80
A280
A280
A280
A280
9C80
4100
3E00
ENDCHAR
STARTCHAR 3268
ENCODING 12904
SWIDTH 990 0
DWIDTH 11 0
BBX 9 10 1 -1
BITMAP
3E00
4100
8080
FF80
8880
9480
E380
8080
4100
3E00
ENDCHAR
STARTCHAR 3269
ENCODING 12905
SWIDTH 990 0
DWIDTH 11 0
BBX 9 10 1 -1
BITMAP
3E00
4100
9C80
FF80
8880
9480
E380
8080
4100
3E00
ENDCHAR
STARTCHAR 326A
ENCODING 12906
SWIDTH 990 0
DWIDTH 11 0
BBX 9 10 1 -1
BITMAP
3E00
4100
8080
BE80
BE80
8280
8280
8080
4100
3E00
ENDCHAR
STARTCHAR 326B
ENCODING 12907
SWIDTH 990 0
DWIDTH 11 0
BBX 9 10 1 -1
BITMAP
3E00
4100
8080
BE80
A080
BE80
BE80
8080
4100
3E00
ENDCHAR
STARTCHAR 326C
ENCODING 12908
SWIDTH 990 0
DWIDTH 11 0
BBX 9 10 1 -1
BITMAP
3E00
4100
8080
BE80
A480
9480
FF80
8080
4100
3E00
ENDCHAR
STARTCHAR 326D
ENCODING 12909
SWIDTH 990 0
DWIDTH 11 0
BBX 9 10 1 -1
BITMAP
3E00
4100
9C80
FF80
8080
BE80
C280
BE80
4100
3E00
ENDCHAR
STARTCHAR 326E
ENCODING 12910
SWIDTH 990 0
DWIDTH 11 0
BBX 9 10 1 -1
BITMAP
3E00
4100
FA80
8A80
8A80
8B80
9280
E280
4100
3E00
ENDCHAR
STARTCHAR 326F
ENCODING 12911
SWIDTH 990 0
DWIDTH 11 0
BBX 9 10 1 -1
BITMAP
3E00
4100
C280
C280
C280
C380
CE80
B280
4100
3E00
ENDCHAR
STARTCHAR 3270
ENCODING 12912
SWIDTH 990 0
DWIDTH 11 0
BBX 9 10 1 -1
BITMAP
3E00
4100
FA80
C280
C380
C280
FE80
8280
4100
3E00
ENDCHAR
STARTCHAR 3271
ENCODING 12913
SWIDTH 990 0
DWIDTH 11 0
BBX 9 10 1 -1
BITMAP
3E00
4100
FA80
8A80
BA80
C380
CE80
F280
4100
3E00
ENDCHAR
STARTCHAR 3272
ENCODING 12914
SWIDTH 990 0
DWIDTH 11 0
BBX 9 10 1 -1
BITMAP
3E00
4100
FA80
CA80
CA80
CB80
CA80
FA80
4100
3E00
ENDCHAR
STARTCHAR 3273
ENCODING 12915
SWIDTH 990 0
DWIDTH 11 0
BBX 9 10 1 -1
BITMAP
3E00
4100
CA80
CA80
FA80
CB80
CA80
FA80
4100
3E00
ENDCHAR
STARTCHAR 3274
ENCODING 12916
SWIDTH 990 0
DWIDTH 11 0
BBX 9 10 1 -1
BITMAP
3E00
4100
9280
9280
9280
AB80
C680
8280
4100
3E00
ENDCHAR
STARTCHAR 3275
ENCODING 12917
SWIDTH 990 0
DWIDTH 11 0
BBX 9 10 1 -1
BITMAP
3E00
4100
B280
CA80
CA80
CB80
CA80
B280
4300
3E00
ENDCHAR
STARTCHAR 3276
ENCODING 12918
SWIDTH 990 0
DWIDTH 11 0
BBX 9 10 1 -1
BITMAP
3E00
4100
FA80
9280
9280
AB80
C680
8280
4100
3E00
ENDCHAR
STARTCHAR 3277
ENCODING 12919
SWIDTH 990 0
DWIDTH 11 0
BBX 9 10 1 -1
BITMAP
3E00
4100
BA80
FE80
9280
B380
CE80
C280
4100
3E00
ENDCHAR
STARTCHAR 3278
ENCODING 12920
SWIDTH 990 0
DWIDTH 11 0
BBX 9 10 1 -1
BITMAP
3E00
4100
FA80
8A80
FA80
8B80
9280
E280
4100
3E00
ENDCHAR
STARTCHAR 3279
ENCODING 12921
SWIDTH 990 0
DWIDTH 11 0
BBX 9 10 1 -1
BITMAP
3E00
4100
FA80
C280
FA80
C380
C680
FA80
4100
3E00
ENDCHAR
STARTCHAR 327A
ENCODING 12922
SWIDTH 990 0
DWIDTH 11 0
BBX 9 10 1 -1
BITMAP
3E00
4100
FE80
AA80
AA80
AB80
AE80
FA80
4100
3E00
ENDCHAR
STARTCHAR 327B
ENCODING 12923
SWIDTH 990 0
DWIDTH 11 0
BBX 9 10 1 -1
BITMAP
3E00
4100
BA80
FE80
BA80
CB80
CA80
BA80
4100
3E00
ENDCHAR
STARTCHAR 327F
ENCODING 12927
SWIDTH 990 0
DWIDTH 11 0
BBX 9 10 1 -1
BITMAP
3C00
6300
8100
9480
9800
D780
9280
8080
6100
1E00
ENDCHAR
STARTCHAR 3380
ENCODING 13184
SWIDTH 990 0
DWIDTH 11 0
BBX 9 9 1 -1
BITMAP
0200
E300
9500
9500
9700
9480
E880
8000
8000
ENDCHAR
STARTCHAR 3381
ENCODING 13185
SWIDTH 990 0
DWIDTH 11 0
BBX 9 7 1 1
BITMAP
0200
F300
9500
9500
9700
9480
9880
ENDCHAR
STARTCHAR 3382
ENCODING 13186
SWIDTH 990 0
DWIDTH 11 0
BBX 9 8 1 0
BITMAP
0200
0B00
4D00
5500
9700
9C80
F880
8000
ENDCHAR
STARTCHAR 3383
ENCODING 13187
SWIDTH 990 0
DWIDTH 11 0
BBX 9 7 1 1
BITMAP
0200
F300
B300
B500
B780
B480
B880
ENDCHAR
STARTCHAR 3384
ENCODING 13188
SWIDTH 990 0
DWIDTH 11 0
BBX 9 7 1 1
BITMAP
8200
9300
A500
C500
A700
A480
9880
ENDCHAR
STARTCHAR 3388
ENCODING 13192
SWIDTH 990 0
DWIDTH 11 0
BBX 9 7 1 1
BITMAP
0080
C680
AA80
8280
8E80
B280
CD80
ENDCHAR
STARTCHAR 3389
ENCODING 13193
SWIDTH 990 0
DWIDTH 11 0
BBX 9 7 1 1
BITMAP
8080
D380
ED80
A180
E380
ED80
D300
ENDCHAR
STARTCHAR 338A
ENCODING 13194
SWIDTH 990 0
DWIDTH 11 0
BBX 9 9 1 -1
BITMAP
0780
F400
9400
9780
9400
9400
E400
8000
8000
ENDCHAR
STARTCHAR 338B
ENCODING 13195
SWIDTH 990 0
DWIDTH 11 0
BBX 9 7 1 1
BITMAP
0780
F400
9400
9780
9400
9400
9400
ENDCHAR
STARTCHAR 338C
ENCODING 13196
SWIDTH 990 0
DWIDTH 11 0
BBX 9 8 1 -1
BITMAP
0780
0C00
5780
5400
9400
9C00
F400
8000
ENDCHAR
STARTCHAR 338D
ENCODING 13197
SWIDTH 990 0
DWIDTH 11 0
BBX 9 8 1 -1
BITMAP
0B80
4C80
5480
5300
9C00
F780
8480
0380
ENDCHAR
STARTCHAR 338E
ENCODING 13198
SWIDTH 990 0
DWIDTH 11 0
BBX 9 8 1 -1
BITMAP
F380
B480
B480
B300
B400
B780
0480
0380
ENDCHAR
STARTCHAR 338F
ENCODING 13199
SWIDTH 990 0
DWIDTH 11 0
BBX 9 9 1 -1
BITMAP
8000
9780
A900
C900
A700
A800
9700
0880
0700
ENDCHAR
STARTCHAR 3390
ENCODING 13200
SWIDTH 990 0
DWIDTH 11 0
BBX 9 7 1 1
BITMAP
9000
9780
9100
F100
9200
9400
9780
ENDCHAR
STARTCHAR 3391
ENCODING 13201
SWIDTH 990 0
DWIDTH 11 0
BBX 9 7 1 1
BITMAP
9400
D580
D480
9D00
D500
D600
D780
ENDCHAR
STARTCHAR 3392
ENCODING 13202
SWIDTH 990 0
DWIDTH 11 0
BBX 9 7 1 1
BITMAP
AA00
AB80
AA80
AE80
EB00
EB00
CB80
ENDCHAR
STARTCHAR 3393
ENCODING 13203
SWIDTH 990 0
DWIDTH 11 0
BBX 9 7 1 1
BITMAP
D400
D580
B480
FD00
B500
B600
F580
ENDCHAR
STARTCHAR 3394
ENCODING 13204
SWIDTH 990 0
DWIDTH 11 0
BBX 10 7 0 1
BITMAP
FA00
4AC0
4A40
4E80
4A80
4B00
4AC0
ENDCHAR
STARTCHAR 3395
ENCODING 13205
SWIDTH 990 0
DWIDTH 11 0
BBX 9 8 1 -1
BITMAP
0180
0A80
4A80
5300
9200
9280
FF00
8000
ENDCHAR
STARTCHAR 3396
ENCODING 13206
SWIDTH 990 0
DWIDTH 11 0
BBX 9 7 1 1
BITMAP
0180
F980
AA80
AB00
AA00
AA80
A500
ENDCHAR
STARTCHAR 3397
ENCODING 13207
SWIDTH 990 0
DWIDTH 11 0
BBX 9 7 1 1
BITMAP
1180
7280
9280
9300
9200
9280
7700
ENDCHAR
STARTCHAR 3398
ENCODING 13208
SWIDTH 990 0
DWIDTH 11 0
BBX 7 7 2 1
BITMAP
82
A6
CA
8C
C4
AA
B4
ENDCHAR
STARTCHAR 3399
ENCODING 13209
SWIDTH 990 0
DWIDTH 11 0
BBX 8 7 1 1
BITMAP
60
EF
55
55
55
55
55
ENDCHAR
STARTCHAR 339A
ENCODING 13210
SWIDTH 990 0
DWIDTH 11 0
BBX 9 6 1 1
BITMAP
E780
AA80
9A80
9A80
9A80
9A80
ENDCHAR
STARTCHAR 339B
ENCODING 13211
SWIDTH 990 0
DWIDTH 11 0
BBX 9 7 1 -1
BITMAP
0F80
5580
5680
9680
9E80
F680
8000
ENDCHAR
STARTCHAR 339C
ENCODING 13212
SWIDTH 990 0
DWIDTH 11 0
BBX 9 6 1 1
BITMAP
F780
D680
D680
D680
D680
D680
ENDCHAR
STARTCHAR 339D
ENCODING 13213
SWIDTH 990 0
DWIDTH 11 0
BBX 9 6 1 1
BITMAP
6780
9A80
8A80
8A80
9A80
6A80
ENDCHAR
STARTCHAR 339E
ENCODING 13214
SWIDTH 990 0
DWIDTH 11 0
BBX 9 7 1 1
BITMAP
8000
9780
AA80
CA80
AA80
AA80
9A80
ENDCHAR
STARTCHAR 339F
ENCODING 13215
SWIDTH 990 0
DWIDTH 11 0
BBX 10 7 1 1
BITMAP
0040
EF40
DD00
DD00
DD00
DD00
DD00
ENDCHAR
STARTCHAR 33A0
ENCODING 13216
SWIDTH 990 0
DWIDTH 11 0
BBX 10 7 1 1
BITMAP
0040
6F40
AD00
8D00
8D00
AD00
ED00
ENDCHAR
STARTCHAR 33A1
ENCODING 13217
SWIDTH 990 0
DWIDTH 11 0
BBX 7 7 2 1
BITMAP
02
FA
A8
A8
A8
A8
A8
ENDCHAR
STARTCHAR 33A2
ENCODING 13218
SWIDTH 990 0
DWIDTH 11 0
BBX 10 7 1 1
BITMAP
8040
AF40
CD00
CD00
CD00
AD00
9D00
ENDCHAR
STARTCHAR 33A3
ENCODING 13219
SWIDTH 990 0
DWIDTH 11 0
BBX 10 7 1 1
BITMAP
0040
EFC0
DCC0
DD00
DD00
DD00
DD00
ENDCHAR
STARTCHAR 33A4
ENCODING 13220
SWIDTH 990 0
DWIDTH 11 0
BBX 10 7 1 1
BITMAP
0040
6FC0
AC80
8D00
8D00
AD00
ED00
ENDCHAR
STARTCHAR 33A5
ENCODING 13221
SWIDTH 990 0
DWIDTH 11 0
BBX 7 7 2 1
BITMAP
02
FA
AA
A8
A8
A8
A8
ENDCHAR
STARTCHAR 33A6
ENCODING 13222
SWIDTH 990 0
DWIDTH 11 0
BBX 10 7 1 1
BITMAP
8040
A7C0
CCC0
CD00
CD00
AD00
9D00
ENDCHAR
STARTCHAR 33A7
ENCODING 13223
SWIDTH 990 0
DWIDTH 11 0
BBX 9 8 1 0
BITMAP
0400
F780
D680
DA00
D980
DA80
D980
0800
ENDCHAR
STARTCHAR 33A8
ENCODING 13224
SWIDTH 990 0
DWIDTH 11 0
BBX 10 9 1 -1
BITMAP
08C0
EAC0
ED00
EC00
F300
F500
F300
1000
1000
ENDCHAR
STARTCHAR 33A9
ENCODING 13225
SWIDTH 990 0
DWIDTH 11 0
BBX 9 7 1 1
BITMAP
F000
8B00
8C80
F380
8480
8480
8780
ENDCHAR
STARTCHAR 33AA
ENCODING 13226
SWIDTH 990 0
DWIDTH 11 0
BBX 10 7 1 1
BITMAP
9C00
D580
D280
9D80
D280
D280
D1C0
ENDCHAR
STARTCHAR 33AB
ENCODING 13227
SWIDTH 990 0
DWIDTH 11 0
BBX 10 7 1 1
BITMAP
AC00
B380
B380
EC80
F380
F280
F1C0
ENDCHAR
STARTCHAR 33AC
ENCODING 13228
SWIDTH 990 0
DWIDTH 11 0
BBX 10 7 1 1
BITMAP
DC00
D580
9680
FD80
B280
B280
F1C0
ENDCHAR
STARTCHAR 33AD
ENCODING 13229
SWIDTH 990 0
DWIDTH 11 0
BBX 9 7 1 1
BITMAP
0080
D980
AA80
8A80
BA80
AA80
BD80
ENDCHAR
STARTCHAR 33AE
ENCODING 13230
SWIDTH 990 0
DWIDTH 11 0
BBX 9 9 1 -1
BITMAP
0400
AC00
F400
E880
0300
0D80
1A00
6380
8180
ENDCHAR
STARTCHAR 33AF
ENCODING 13231
SWIDTH 990 0
DWIDTH 11 0
BBX 9 9 1 -1
BITMAP
0400
AC00
F480
E980
0680
0B00
3300
4100
8300
ENDCHAR
STARTCHAR 33B0
ENCODING 13232
SWIDTH 990 0
DWIDTH 11 0
BBX 9 8 1 -1
BITMAP
E300
9480
9400
9300
9480
E780
8000
8000
ENDCHAR
STARTCHAR 33B1
ENCODING 13233
SWIDTH 990 0
DWIDTH 11 0
BBX 9 6 1 1
BITMAP
F300
9480
9400
9300
9480
9780
ENDCHAR
STARTCHAR 33B2
ENCODING 13234
SWIDTH 990 0
DWIDTH 11 0
BBX 9 7 1 -1
BITMAP
0B00
4C80
5400
9300
9C80
FB80
8000
ENDCHAR
STARTCHAR 33B3
ENCODING 13235
SWIDTH 990 0
DWIDTH 11 0
BBX 9 6 1 1
BITMAP
F300
B480
B400
B300
B480
B380
ENDCHAR
STARTCHAR 33B4
ENCODING 13236
SWIDTH 990 0
DWIDTH 11 0
BBX 9 9 1 -1
BITMAP
0880
F880
9900
9500
9500
9600
F200
8000
8000
ENDCHAR
STARTCHAR 33B5
ENCODING 13237
SWIDTH 990 0
DWIDTH 11 0
BBX 9 7 1 1
BITMAP
0880
F880
9900
9500
9500
9600
9200
ENDCHAR
STARTCHAR 33B6
ENCODING 13238
SWIDTH 990 0
DWIDTH 11 0
BBX 9 8 1 -1
BITMAP
0880
0880
5500
5500
9500
9B00
F200
8000
ENDCHAR
STARTCHAR 33B7
ENCODING 13239
SWIDTH 990 0
DWIDTH 11 0
BBX 9 7 1 1
BITMAP
0880
F880
B480
B500
B500
B300
B200
ENDCHAR
STARTCHAR 33B8
ENCODING 13240
SWIDTH 990 0
DWIDTH 11 0
BBX 9 7 1 1
BITMAP
8880
9880
A900
C500
E500
A600
9200
ENDCHAR
STARTCHAR 33B9
ENCODING 13241
SWIDTH 990 0
DWIDTH 11 0
BBX 9 7 1 1
BITMAP
9880
9480
9480
B500
F300
F300
D100
ENDCHAR
STARTCHAR 33BA
ENCODING 13242
SWIDTH 990 0
DWIDTH 11 0
BBX 9 9 1 -1
BITMAP
1280
EE80
9E80
9E80
9580
9500
E500
8000
8000
ENDCHAR
STARTCHAR 33BB
ENCODING 13243
SWIDTH 990 0
DWIDTH 11 0
BBX 9 7 1 1
BITMAP
1280
EE80
9E80
9E80
9D80
9500
9500
ENDCHAR
STARTCHAR 33BC
ENCODING 13244
SWIDTH 990 0
DWIDTH 11 0
BBX 10 8 1 0
BITMAP
0A40
4A80
5B80
9B80
9D80
9C80
F480
8000
ENDCHAR
STARTCHAR 33BD
ENCODING 13245
SWIDTH 990 0
DWIDTH 11 0
BBX 10 7 1 1
BITMAP
0A40
FA80
DB80
DB80
DD80
D480
D480
ENDCHAR
STARTCHAR 33BE
ENCODING 13246
SWIDTH 990 0
DWIDTH 11 0
BBX 9 7 1 1
BITMAP
9280
AE80
AE80
CE80
C580
A500
9500
ENDCHAR
STARTCHAR 33BF
ENCODING 13247
SWIDTH 990 0
DWIDTH 11 0
BBX 10 7 1 1
BITMAP
9A40
9A80
9B80
BB80
BD80
D480
D480
ENDCHAR
STARTCHAR 33C0
ENCODING 13248
SWIDTH 990 0
DWIDTH 11 0
BBX 9 7 1 1
BITMAP
8700
A880
C880
C880
C580
AD80
9D80
ENDCHAR
STARTCHAR 33C1
ENCODING 13249
SWIDTH 990 0
DWIDTH 11 0
BBX 9 7 1 1
BITMAP
9700
9880
9880
B880
B580
DB80
DD80
ENDCHAR
STARTCHAR 33C2
ENCODING 13250
SWIDTH 990 0
DWIDTH 11 0
BBX 11 5 0 0
BITMAP
6380
9580
7580
9580
7920
ENDCHAR
STARTCHAR 33C3
ENCODING 13251
SWIDTH 990 0
DWIDTH 11 0
BBX 9 9 1 -1
BITMAP
F000
9380
9480
F480
9480
9480
F380
0080
0080
ENDCHAR
STARTCHAR 33C4
ENCODING 13252
SWIDTH 990 0
DWIDTH 11 0
BBX 9 6 1 1
BITMAP
6300
9480
8800
8800
9480
6300
ENDCHAR
STARTCHAR 33C5
ENCODING 13253
SWIDTH 990 0
DWIDTH 11 0
BBX 9 7 1 1
BITMAP
0080
6380
9480
8880
8880
9480
6380
ENDCHAR
STARTCHAR 33C6
ENCODING 13254
SWIDTH 990 0
DWIDTH 11 0
BBX 11 10 0 -1
BITMAP
0800
7800
9AE0
9D40
9540
7CC0
1B00
2AC0
2120
20C0
ENDCHAR
STARTCHAR 33C7
ENCODING 13255
SWIDTH 990 0
DWIDTH 11 0
BBX 10 8 1 0
BITMAP
7000
9000
8700
8480
8880
9480
9740
7000
ENDCHAR
STARTCHAR 33C8
ENCODING 13256
SWIDTH 990 0
DWIDTH 11 0
BBX 9 7 1 1
BITMAP
1780
F880
9880
9780
9880
9880
F700
ENDCHAR
STARTCHAR 33C9
ENCODING 13257
SWIDTH 990 0
DWIDTH 11 0
BBX 9 9 1 -1
BITMAP
7000
9480
8480
B500
9300
9300
7200
0200
0600
ENDCHAR
STARTCHAR 33CA
ENCODING 13258
SWIDTH 990 0
DWIDTH 11 0
BBX 9 7 1 1
BITMAP
8000
F300
9500
9300
9500
9900
9780
ENDCHAR
STARTCHAR 33CF
ENCODING 13263
SWIDTH 990 0
DWIDTH 11 0
BBX 7 7 2 1
BITMAP
84
AE
C4
84
C4
A4
A6
ENDCHAR
STARTCHAR 33D0
ENCODING 13264
SWIDTH 990 0
DWIDTH 11 0
BBX 7 7 2 1
BITMAP
80
BE
AA
AA
AA
AA
AA
ENDCHAR
STARTCHAR 33D3
ENCODING 13267
SWIDTH 990 0
DWIDTH 11 0
BBX 7 7 2 1
BITMAP
80
A2
94
88
88
94
A2
ENDCHAR
STARTCHAR 33D6
ENCODING 13270
SWIDTH 990 0
DWIDTH 11 0
BBX 9 7 1 1
BITMAP
0080
F680
D980
D980
D980
D980
D680
ENDCHAR
STARTCHAR 33D8
ENCODING 13272
SWIDTH 990 0
DWIDTH 11 0
BBX 10 6 1 -1
BITMAP
E500
AB00
AB00
AB00
F240
8000
ENDCHAR
STARTCHAR 33DB
ENCODING 13275
SWIDTH 990 0
DWIDTH 11 0
BBX 9 6 1 1
BITMAP
7380
9200
4400
7400
8C00
7400
ENDCHAR
STARTCHAR 33DC
ENCODING 13276
SWIDTH 990 0
DWIDTH 11 0
BBX 9 7 1 1
BITMAP
7000
9480
8480
6480
9300
9300
7200
ENDCHAR
STARTCHAR 33DD
ENCODING 13277
SWIDTH 990 0
DWIDTH 11 0
BBX 10 7 0 1
BITMAP
1600
97C0
BA40
7A40
7A40
4A40
4BC0
ENDCHAR
STARTCHAR 4E00
ENCODING 19968
SWIDTH 990 0
DWIDTH 11 0
BBX 9 1 1 3
BITMAP
FF80
ENDCHAR
STARTCHAR 4E01
ENCODING 19969
SWIDTH 990 0
DWIDTH 11 0
BBX 9 9 1 -1
BITMAP
FF80
0800
0800
0800
0800
0800
0800
0800
1800
ENDCHAR
STARTCHAR 4E03
ENCODING 19971
SWIDTH 990 0
DWIDTH 11 0
BBX 9 8 1 0
BITMAP
1000
1000
1380
7C00
D000
1000
1100
1F00
ENDCHAR
STARTCHAR 4E07
ENCODING 19975
SWIDTH 990 0
DWIDTH 11 0
BBX 9 9 1 -1
BITMAP
FF80
0800
1000
0F00
1100
1100
2200
2200
4600
ENDCHAR
STARTCHAR 4E08
ENCODING 19976
SWIDTH 990 0
DWIDTH 11 0
BBX 9 10 1 -1
BITMAP
0800
0800
FF80
0800
2800
2800
1800
1800
2600
C180
ENDCHAR
STARTCHAR 4E09
ENCODING 19977
SWIDTH 990 0
DWIDTH 11 0
BBX 9 8 1 0
BITMAP
7F00
0000
0000
0000
7F00
0000
0000
FF80
ENDCHAR
STARTCHAR 4E0A
ENCODING 19978
SWIDTH 990 0
DWIDTH 11 0
BBX 9 9 1 -1
BITMAP
0800
0800
0800
0F00
0800
0800
0800
0800
FF80
ENDCHAR
STARTCHAR 4E0B
ENCODING 19979
SWIDTH 990 0
DWIDTH 11 0
BBX 9 9 1 -1
BITMAP
FF80
0800
0800
0C00
0B00
0800
0800
0800
0800
ENDCHAR
STARTCHAR 4E0D
ENCODING 19981
SWIDTH 990 0
DWIDTH 11 0
BBX 9 9 1 -1
BITMAP
FF80
0800
0800
1B00
2900
C880
0800
0800
0800
ENDCHAR
STARTCHAR 4E11
ENCODING 19985
SWIDTH 990 0
DWIDTH 11 0
BBX 9 8 1 0
BITMAP
7E00
1200
1200
FF80
1200
1200
1200
FF80
ENDCHAR
STARTCHAR 4E14
ENCODING 19988
SWIDTH 990 0
DWIDTH 11 0
BBX 9 8 1 0
BITMAP
3E00
2200
3E00
2200
2200
3E00
2200
FF80
ENDCHAR
STARTCHAR 4E15
ENCODING 19989
SWIDTH 990 0
DWIDTH 11 0
BBX 9 9 1 -1
BITMAP
FF80
0800
0A00
1900
2880
C800
0800
0800
FF80
ENDCHAR
STARTCHAR 4E16
ENCODING 19990
SWIDTH 990 0
DWIDTH 11 0
BBX 9 8 1 -1
BITMAP
4A00
4A00
FF80
4A00
4A00
4E00
4A00
3F80
ENDCHAR
STARTCHAR 4E18
ENCODING 19992
SWIDTH 990 0
DWIDTH 11 0
BBX 9 8 1 0
BITMAP
0600
3800
2000
3F80
2400
2400
2400
FF80
ENDCHAR
STARTCHAR 4E19
ENCODING 19993
SWIDTH 990 0
DWIDTH 11 0
BBX 9 9 1 -1
BITMAP
FF80
0800
7F00
8900
9500
9300
A100
8100
0100
ENDCHAR
STARTCHAR 4E1E
ENCODING 19998
SWIDTH 990 0
DWIDTH 11 0
BBX 9 9 1 -1
BITMAP
7E00
0400
7D00
2A00
2A00
4900
8880
1000
7F00
ENDCHAR
STARTCHAR 4E1F
ENCODING 19999
SWIDTH 990 0
DWIDTH 11 0
BBX 9 10 1 -2
BITMAP
0100
FE00
0800
7F00
0800
FF80
0800
1200
2100
7F80
ENDCHAR
STARTCHAR 4E26
ENCODING 20006
SWIDTH 990 0
DWIDTH 11 0
BBX 9 10 1 -1
BITMAP
2200
2400
FF80
1400
9480
5500
5600
3600
1400
FF80
ENDCHAR
STARTCHAR 4E2B
ENCODING 20011
SWIDTH 990 0
DWIDTH 11 0
BBX 7 10 2 -1
BITMAP
82
44
28
10
10
10
10
10
10
10
ENDCHAR
STARTCHAR 4E2D
ENCODING 20013
SWIDTH 990 0
DWIDTH 11 0
BBX 7 9 2 -1
BITMAP
10
10
FE
92
FE
10
10
10
10
ENDCHAR
STARTCHAR 4E30
ENCODING 20016
SWIDTH 990 0
DWIDTH 11 0
BBX 9 11 1 -2
BITMAP
0800
0800
FF80
0800
7F00
0800
0800
FF80
0800
0800
0800
ENDCHAR
STARTCHAR 4E31
ENCODING 20017
SWIDTH 990 0
DWIDTH 11 0
BBX 9 10 1 -1
BITMAP
1400
9480
9480
9480
9480
F780
9480
1400
2400
4400
ENDCHAR
STARTCHAR 4E32
ENCODING 20018
SWIDTH 990 0
DWIDTH 11 0
BBX 7 9 2 -1
BITMAP
10
FE
FE
10
FE
92
FE
10
10
ENDCHAR
STARTCHAR 4E38
ENCODING 20024
SWIDTH 990 0
DWIDTH 11 0
BBX 8 9 2 -1
BITMAP
20
20
F8
28
28
68
39
47
80
ENDCHAR
STARTCHAR 4E39
ENCODING 20025
SWIDTH 990 0
DWIDTH 11 0
BBX 9 8 1 0
BITMAP
3E00
4A00
4A00
FF80
4200
4200
4200
8200
ENDCHAR
STARTCHAR 4E3B
ENCODING 20027
SWIDTH 990 0
DWIDTH 11 0
BBX 9 9 1 0
BITMAP
1000
0800
0000
7F00
0800
0800
7F00
0800
FF80
ENDCHAR
STARTCHAR 4E42
ENCODING 20034
SWIDTH 990 0
DWIDTH 11 0
BBX 9 8 1 0
BITMAP
4200
6200
2400
1400
0800
1400
2200
C180
ENDCHAR
STARTCHAR 4E43
ENCODING 20035
SWIDTH 990 0
DWIDTH 11 0
BBX 9 9 1 -1
BITMAP
FC00
1400
2400
2780
2500
2100
4100
4100
8700
ENDCHAR
STARTCHAR 4E45
ENCODING 20037
SWIDTH 990 0
DWIDTH 11 0
BBX 8 8 2 -1
BITMAP
20
3C
44
88
08
18
24
C3
ENDCHAR
STARTCHAR 4E4B
ENCODING 20043
SWIDTH 990 0
DWIDTH 11 0
BBX 9 8 1 1
BITMAP
1000
FF00
0200
0400
0800
5000
A000
9F80
ENDCHAR
STARTCHAR 4E4D
ENCODING 20045
SWIDTH 990 0
DWIDTH 11 0
BBX 9 10 1 -1
BITMAP
1000
2000
3F80
4800
8800
0F00
0F00
0800
0800
0800
ENDCHAR
STARTCHAR 4E4E
ENCODING 20046
SWIDTH 990 0
DWIDTH 11 0
BBX 9 10 1 -1
BITMAP
0300
7C00
0900
2A00
2A00
FF80
0800
0800
0800
1800
ENDCHAR
STARTCHAR 4E4F
ENCODING 20047
SWIDTH 990 0
DWIDTH 11 0
BBX 9 8 1 0
BITMAP
1F00
6800
0800
7F00
0400
0800
7000
9F80
ENDCHAR
STARTCHAR 4E56
ENCODING 20054
SWIDTH 990 0
DWIDTH 11 0
BBX 9 9 1 -1
BITMAP
0300
7C00
FF80
2800
ED00
2A00
2C80
EB80
0800
ENDCHAR
STARTCHAR 4E58
ENCODING 20056
SWIDTH 990 0
DWIDTH 11 0
BBX 9 10 1 -1
BITMAP
0600
3800
FF80
0800
6B00
2C80
DF00
2A00
C980
0800
ENDCHAR
STARTCHAR 4E59
ENCODING 20057
SWIDTH 990 0
DWIDTH 11 0
BBX 9 8 1 0
BITMAP
FC00
0400
1800
2000
4000
8000
8080
7F00
ENDCHAR
STARTCHAR 4E5D
ENCODING 20061
SWIDTH 990 0
DWIDTH 11 0
BBX 8 8 2 0
BITMAP
20
20
F8
28
28
48
49
87
ENDCHAR
STARTCHAR 4E5E
ENCODING 20062
SWIDTH 990 0
DWIDTH 11 0
BBX 9 9 1 0
BITMAP
2000
3F80
4000
BE00
0400
1800
2080
4080
3F00
ENDCHAR
STARTCHAR 4E5F
ENCODING 20063
SWIDTH 990 0
DWIDTH 11 0
BBX 9 9 1 0
BITMAP
0800
0800
4900
5F00
6900
C900
4900
4A80
3F00
ENDCHAR
STARTCHAR 4E67
ENCODING 20071
SWIDTH 990 0
DWIDTH 11 0
BBX 9 9 1 0
BITMAP
1A00
2200
0780
FA00
FC00
1800
6000
8080
7F00
ENDCHAR
STARTCHAR 4E6B
ENCODING 20075
SWIDTH 990 0
DWIDTH 11 0
BBX 9 9 1 0
BITMAP
2000
FB80
2C80
4B80
9080
0000
FE80
2080
FF00
ENDCHAR
STARTCHAR 4E6C
ENCODING 20076
SWIDTH 990 0
DWIDTH 11 0
BBX 9 10 1 -1
BITMAP
FF80
4000
7F00
7F00
FF80
0000
FF00
0C00
7000
FF80
ENDCHAR
STARTCHAR 4E6D
ENCODING 20077
SWIDTH 990 0
DWIDTH 11 0
BBX 9 9 1 -1
BITMAP
FF80
1F00
6100
BF00
FC00
0800
3000
C080
FF80
ENDCHAR
STARTCHAR 4E73
ENCODING 20083
SWIDTH 990 0
DWIDTH 11 0
BBX 9 9 1 0
BITMAP
7200
AA00
7A00
1200
3A00
E200
2200
2280
2380
ENDCHAR
STARTCHAR 4E76
ENCODING 20086
SWIDTH 990 0
DWIDTH 11 0
BBX 9 10 1 -1
BITMAP
0800
FF80
7F00
7F00
7F00
4900
7E00
1000
6080
7F80
ENDCHAR
STARTCHAR 4E77
ENCODING 20087
SWIDTH 990 0
DWIDTH 11 0
BBX 9 10 1 -1
BITMAP
4400
2C00
5500
4580
8600
9800
7E00
1000
6080
7F80
ENDCHAR
STARTCHAR 4E7C
ENCODING 20092
SWIDTH 990 0
DWIDTH 11 0
BBX 9 10 1 -1
BITMAP
4000
0400
9F80
1F00
4400
BF80
FE00
0C00
7080
FF80
ENDCHAR
STARTCHAR 4E7E
ENCODING 20094
SWIDTH 990 0
DWIDTH 11 0
BBX 9 10 1 -1
BITMAP
0200
2400
F780
F800
F700
F200
2400
F480
2780
2000
ENDCHAR
STARTCHAR 4E82
ENCODING 20098
SWIDTH 990 0
DWIDTH 11 0
BBX 9 10 1 -1
BITMAP
0800
FA00
7A00
3200
FA00
DA00
FA00
BA00
BA80
8900
ENDCHAR
STARTCHAR 4E86
ENCODING 20102
SWIDTH 990 0
DWIDTH 11 0
BBX 7 9 2 -1
BITMAP
FE
04
08
10
10
10
10
10
30
ENDCHAR
STARTCHAR 4E88
ENCODING 20104
SWIDTH 990 0
DWIDTH 11 0
BBX 9 9 1 -1
BITMAP
7E00
0400
0800
FF80
0900
0800
0800
0800
0800
ENDCHAR
STARTCHAR 4E8B
ENCODING 20107
SWIDTH 990 0
DWIDTH 11 0
BBX 9 10 1 -1
BITMAP
0800
FF80
0800
7F00
7F00
7F00
FF80
7F00
0800
1800
ENDCHAR
STARTCHAR 4E8C
ENCODING 20108
SWIDTH 990 0
DWIDTH 11 0
BBX 9 7 1 0
BITMAP
7F00
0000
0000
0000
0000
0000
FF80
ENDCHAR
STARTCHAR 4E8E
ENCODING 20110
SWIDTH 990 0
DWIDTH 11 0
BBX 9 9 1 -1
BITMAP
7F00
0800
0800
FF80
0800
0800
0800
0800
1800
ENDCHAR
STARTCHAR 4E8F
ENCODING 20111
SWIDTH 990 0
DWIDTH 11 0
BBX 9 9 1 -1
BITMAP
7F00
0000
FF80
4000
7F00
4100
0100
0200
0E00
ENDCHAR
STARTCHAR 4E90
ENCODING 20112
SWIDTH 990 0
DWIDTH 11 0
BBX 9 9 1 -1
BITMAP
7F00
1000
FF80
2000
3F00
4100
0100
0100
0E00
ENDCHAR
STARTCHAR 4E91
ENCODING 20113
SWIDTH 990 0
DWIDTH 11 0
BBX 9 9 1 -1
BITMAP
7F00
0000
0000
FF80
1000
1000
1200
2300
7C80
ENDCHAR
STARTCHAR 4E92
ENCODING 20114
SWIDTH 990 0
DWIDTH 11 0
BBX 9 8 1 0
BITMAP
FF80
2000
3E00
2200
2200
3E00
0400
FF80
ENDCHAR
STARTCHAR 4E94
ENCODING 20116
SWIDTH 990 0
DWIDTH 11 0
BBX 9 9 1 -1
BITMAP
FF80
1000
1000
7E00
1200
1200
1200
1200
FF80
ENDCHAR
STARTCHAR 4E95
ENCODING 20117
SWIDTH 990 0
DWIDTH 11 0
BBX 9 9 1 -1
BITMAP
1200
1200
FF80
1200
FF80
2200
2200
4200
0200
ENDCHAR
STARTCHAR 4E98
ENCODING 20120
SWIDTH 990 0
DWIDTH 11 0
BBX 9 8 1 0
BITMAP
FF80
0000
7F00
4100
7F00
7F00
0000
FF80
ENDCHAR
STARTCHAR 4E99
ENCODING 20121
SWIDTH 990 0
DWIDTH 11 0
BBX 9 9 1 -1
BITMAP
FF80
1000
1E00
2A00
2200
3C00
4400
0400
FF80
ENDCHAR
STARTCHAR 4E9B
ENCODING 20123
SWIDTH 990 0
DWIDTH 11 0
BBX 9 10 1 -1
BITMAP
2000
2400
BD80
A600
A480
F780
0000
3F00
0000
FF80
ENDCHAR
STARTCHAR 4E9E
ENCODING 20126
SWIDTH 990 0
DWIDTH 11 0
BBX 9 9 1 -1
BITMAP
FF80
1400
7700
8100
8100
7700
1400
1400
FF80
ENDCHAR
STARTCHAR 4E9F
ENCODING 20127
SWIDTH 990 0
DWIDTH 11 0
BBX 9 9 1 -1
BITMAP
FF80
1800
EB80
AA80
AA80
E900
0A80
1C00
FF80
ENDCHAR
STARTCHAR 4EA1
ENCODING 20129
SWIDTH 990 0
DWIDTH 11 0
BBX 9 9 1 0
BITMAP
0800
0800
FF80
4000
4000
4000
4000
4000
7F80
ENDCHAR
STARTCHAR 4EA2
ENCODING 20130
SWIDTH 990 0
DWIDTH 11 0
BBX 9 9 1 -1
BITMAP
0800
FF80
0000
1C00
2400
2480
2480
2780
C000
ENDCHAR
STARTCHAR 4EA4
ENCODING 20132
SWIDTH 990 0
DWIDTH 11 0
BBX 9 8 1 0
BITMAP
0800
FF80
2200
C180
1400
1800
1800
E700
ENDCHAR
STARTCHAR 4EA5
ENCODING 20133
SWIDTH 990 0
DWIDTH 11 0
BBX 9 10 1 -1
BITMAP
0800
0800
FF80
0800
3200
0D00
1200
6E00
3100
4000
ENDCHAR
STARTCHAR 4EA6
ENCODING 20134
SWIDTH 990 0
DWIDTH 11 0
BBX 9 10 1 -1
BITMAP
0800
0800
FF80
1400
5500
9500
9480
2400
2400
CC00
ENDCHAR
STARTCHAR 4EA8
ENCODING 20136
SWIDTH 990 0
DWIDTH 11 0
BBX 9 10 1 -1
BITMAP
0800
FF80
3E00
3E00
0000
7F00
0600
0800
0800
1800
ENDCHAR
STARTCHAR 4EAB
ENCODING 20139
SWIDTH 990 0
DWIDTH 11 0
BBX 9 10 1 -1
BITMAP
0800
FF80
3E00
3E00
0000
7E00
0400
FF80
0800
1800
ENDCHAR
STARTCHAR 4EAC
ENCODING 20140
SWIDTH 990 0
DWIDTH 11 0
BBX 9 9 1 -1
BITMAP
0800
FF80
7F00
4100
7F00
0800
6A00
8900
1880
ENDCHAR
STARTCHAR 4EAD
ENCODING 20141
SWIDTH 990 0
DWIDTH 11 0
BBX 9 10 1 -1
BITMAP
0800
FF80
0000
3E00
3E00
FF80
FF80
0800
0800
1800
ENDCHAR
STARTCHAR 4EAE
ENCODING 20142
SWIDTH 990 0
DWIDTH 11 0
BBX 9 8 1 0
BITMAP
0800
7F80
3E00
3E00
FF80
9480
2400
6780
ENDCHAR
STARTCHAR 4EB3
ENCODING 20147
SWIDTH 990 0
DWIDTH 11 0
BBX 9 10 1 -1
BITMAP
0800
FF80
3E00
3E00
FF80
8680
3800
FF80
0880
0F80
ENDCHAR
STARTCHAR 4EB4
ENCODING 20148
SWIDTH 990 0
DWIDTH 11 0
BBX 10 10 1 -1
BITMAP
0800
FF80
3E00
FF80
8880
7E00
FF00
7E00
1240
E180
ENDCHAR
STARTCHAR 4EB6
ENCODING 20150
SWIDTH 990 0
DWIDTH 11 0
BBX 9 9 1 -1
BITMAP
0800
FF80
7F00
7F00
7F00
3E00
3E00
3E00
FF80
ENDCHAR
STARTCHAR 4EB9
ENCODING 20153
SWIDTH 990 0
DWIDTH 11 0
BBX 10 10 0 -1
BITMAP
0400
FFC0
4EC0
76C0
76C0
7FC0
BFC0
3F80
3F80
FFC0
ENDCHAR
STARTCHAR 4EBA
ENCODING 20154
SWIDTH 990 0
DWIDTH 11 0
BBX 9 8 1 0
BITMAP
0800
0800
0800
1800
1400
2200
4200
C180
ENDCHAR
STARTCHAR 4EC0
ENCODING 20160
SWIDTH 990 0
DWIDTH 11 0
BBX 9 9 1 0
BITMAP
2400
4400
4400
DF80
4400
4400
4400
4400
4400
ENDCHAR
STARTCHAR 4EC1
ENCODING 20161
SWIDTH 990 0
DWIDTH 11 0
BBX 9 9 1 0
BITMAP
2000
5F00
4000
C000
4000
4000
4000
7F80
4000
ENDCHAR
STARTCHAR 4EC4
ENCODING 20164
SWIDTH 990 0
DWIDTH 11 0
BBX 9 9 1 -1
BITMAP
7F80
4000
4800
4800
4C00
4C00
9200
A100
8080
ENDCHAR
STARTCHAR 4EC6
ENCODING 20166
SWIDTH 990 0
DWIDTH 11 0
BBX 9 9 1 -1
BITMAP
1000
2400
4400
4200
C500
4480
4400
4400
4400
ENDCHAR
STARTCHAR 4EC7
ENCODING 20167
SWIDTH 990 0
DWIDTH 11 0
BBX 10 9 1 0
BITMAP
2400
4400
5E00
C600
4A00
4A00
4A40
4980
5000
ENDCHAR
STARTCHAR 4ECA
ENCODING 20170
SWIDTH 990 0
DWIDTH 11 0
BBX 9 10 1 -1
BITMAP
0800
1800
2400
4300
BE80
0000
7E00
0200
0400
0800
ENDCHAR
STARTCHAR 4ECB
ENCODING 20171
SWIDTH 990 0
DWIDTH 11 0
BBX 9 9 1 -1
BITMAP
0800
0800
1400
6300
A480
2400
2400
4400
4400
ENDCHAR
STARTCHAR 4ECD
ENCODING 20173
SWIDTH 990 0
DWIDTH 11 0
BBX 9 10 1 -1
BITMAP
2000
3F00
4A00
CA00
4B80
4880
4880
5080
5080
4300
ENDCHAR
STARTCHAR 4ED4
ENCODING 20180
SWIDTH 990 0
DWIDTH 11 0
BBX 9 9 1 -2
BITMAP
2F00
4200
4400
C400
5F80
4400
4400
4400
4400
ENDCHAR
STARTCHAR 4ED5
ENCODING 20181
SWIDTH 990 0
DWIDTH 11 0
BBX 9 8 1 0
BITMAP
2400
2400
4400
DF80
4400
4400
4400
5F80
ENDCHAR
STARTCHAR 4ED6
ENCODING 20182
SWIDTH 990 0
DWIDTH 11 0
BBX 9 8 1 0
BITMAP
4400
4400
5700
FD00
5500
5500
5580
4F00
ENDCHAR
STARTCHAR 4ED7
ENCODING 20183
SWIDTH 990 0
DWIDTH 11 0
BBX 9 10 1 -2
BITMAP
2200
4200
5F80
C200
4A00
4A00
4400
4600
4900
1080
ENDCHAR
STARTCHAR 4ED8
ENCODING 20184
SWIDTH 990 0
DWIDTH 11 0
BBX 9 9 1 -1
BITMAP
2200
4200
5F80
C200
4A00
4200
4200
4200
4200
ENDCHAR
STARTCHAR 4ED9
ENCODING 20185
SWIDTH 990 0
DWIDTH 11 0
BBX 9 9 1 -1
BITMAP
2400
4400
5480
D480
5480
5480
5480
4F80
4080
ENDCHAR
STARTCHAR 4EDD
ENCODING 20189
SWIDTH 990 0
DWIDTH 11 0
BBX 9 9 1 -1
BITMAP
0800
1400
2200
C180
7E00
0800
0800
0800
FF80
ENDCHAR
STARTCHAR 4EDE
ENCODING 20190
SWIDTH 990 0
DWIDTH 11 0
BBX 9 10 1 -1
BITMAP
2000
5F80
4480
CC80
5480
5480
4480
4880
5080
6300
ENDCHAR
STARTCHAR 4EDF
ENCODING 20191
SWIDTH 990 0
DWIDTH 11 0
BBX 9 9 1 -1
BITMAP
3F00
4400
4400
DF80
4400
4400
4400
4400
4400
ENDCHAR
STARTCHAR 4EE1
ENCODING 20193
SWIDTH 990 0
DWIDTH 11 0
BBX 10 10 1 -1
BITMAP
2000
4800
4F80
D000
5F00
4200
4400
4840
5040
4F80
ENDCHAR
STARTCHAR 4EE3
ENCODING 20195
SWIDTH 990 0
DWIDTH 11 0
BBX 9 9 1 -1
BITMAP
2A00
4400
4F80
D400
4400
4400
4200
4180
4000
ENDCHAR
STARTCHAR 4EE4
ENCODING 20196
SWIDTH 990 0
DWIDTH 11 0
BBX 9 8 1 0
BITMAP
1800
2400
4300
BE80
7F00
1100
1100
1200
ENDCHAR
STARTCHAR 4EE5
ENCODING 20197
SWIDTH 990 0
DWIDTH 11 0
BBX 9 8 1 0
BITMAP
8100
9100
8A00
8200
8200
9200
6500
9880
ENDCHAR
STARTCHAR 4EEE
ENCODING 20206
SWIDTH 990 0
DWIDTH 11 0
BBX 11 10 0 -1
BITMAP
1000
17C0
2800
67C0
AA40
2A80
2A80
2900
3180
3660
ENDCHAR
STARTCHAR 4EF0
ENCODING 20208
SWIDTH 990 0
DWIDTH 11 0
BBX 9 9 1 -1
BITMAP
2780
5A80
D280
5280
5280
5680
7A80
4200
4200
ENDCHAR
STARTCHAR 4EF2
ENCODING 20210
SWIDTH 990 0
DWIDTH 11 0
BBX 9 8 1 0
BITMAP
2400
4400
5F80
D480
5F80
5480
4400
4400
ENDCHAR
STARTCHAR 4EF3
ENCODING 20211
SWIDTH 990 0
DWIDTH 11 0
BBX 10 10 0 -1
BITMAP
1400
1900
2900
6900
A6C0
2900
2900
2900
2940
3EC0
ENDCHAR
STARTCHAR 4EF5
ENCODING 20213
SWIDTH 990 0
DWIDTH 11 0
BBX 9 10 1 -1
BITMAP
0400
2800
4F80
5200
C200
5F80
4200
4200
4200
4200
ENDCHAR
STARTCHAR 4EF6
ENCODING 20214
SWIDTH 990 0
DWIDTH 11 0
BBX 9 9 1 0
BITMAP
6C00
5400
5F80
E400
4400
7F80
4400
4400
4400
ENDCHAR
STARTCHAR 4EF7
ENCODING 20215
SWIDTH 990 0
DWIDTH 11 0
BBX 9 9 1 0
BITMAP
6600
4A00
5180
C900
4900
4900
4900
5100
4100
ENDCHAR
STARTCHAR 4EFB
ENCODING 20219
SWIDTH 990 0
DWIDTH 11 0
BBX 9 9 1 -1
BITMAP
2100
5E00
4400
C400
5F80
4400
4400
4400
5F80
ENDCHAR
STARTCHAR 4EFF
ENCODING 20223
SWIDTH 990 0
DWIDTH 11 0
BBX 10 10 0 -1
BITMAP
1200
1200
2FC0
6200
A3C0
2440
2440
2440
2840
3180
ENDCHAR
STARTCHAR 4F00
ENCODING 20224
SWIDTH 990 0
DWIDTH 11 0
BBX 9 10 1 -1
BITMAP
2600
2A00
4900
5100
D480
4400
4800
4900
5F80
4000
ENDCHAR
STARTCHAR 4F01
ENCODING 20225
SWIDTH 990 0
DWIDTH 11 0
BBX 9 8 1 0
BITMAP
0800
1400
6300
8880
2800
2E00
2800
FF80
ENDCHAR
STARTCHAR 4F09
ENCODING 20233
SWIDTH 990 0
DWIDTH 11 0
BBX 9 10 1 -1
BITMAP
0400
2400
5F80
4000
CE00
4A00
4A00
4A80
4B80
7000
ENDCHAR
STARTCHAR 4F0A
ENCODING 20234
SWIDTH 990 0
DWIDTH 11 0
BBX 9 9 1 0
BITMAP
3F00
4500
5F80
C500
5F00
4400
4800
4800
4000
ENDCHAR
STARTCHAR 4F0B
ENCODING 20235
SWIDTH 990 0
DWIDTH 11 0
BBX 9 9 1 0
BITMAP
7F00
4A00
4A00
C700
4900
4D00
5600
5700
0080
ENDCHAR
STARTCHAR 4F0D
ENCODING 20237
SWIDTH 990 0
DWIDTH 11 0
BBX 9 9 1 0
BITMAP
5F80
4400
4400
DF00
4500
4900
4900
4900
7F80
ENDCHAR
STARTCHAR 4F0E
ENCODING 20238
SWIDTH 990 0
DWIDTH 11 0
BBX 9 9 1 0
BITMAP
2400
5F80
4400
DF00
4900
4500
4200
4500
4880
ENDCHAR
STARTCHAR 4F0F
ENCODING 20239
SWIDTH 990 0
DWIDTH 11 0
BBX 9 10 1 -1
BITMAP
0400
4500
4400
5F80
C400
4400
4A00
4A00
5100
4080
ENDCHAR
STARTCHAR 4F10
ENCODING 20240
SWIDTH 990 0
DWIDTH 11 0
BBX 9 10 1 -1
BITMAP
2400
2500
4400
7F00
C500
4500
4200
4E00
5180
4080
ENDCHAR
STARTCHAR 4F11
ENCODING 20241
SWIDTH 990 0
DWIDTH 11 0
BBX 9 10 1 -1
BITMAP
0400
2400
4400
7F80
C400
4E00
4D00
5500
4480
4400
ENDCHAR
STARTCHAR 4F2F
ENCODING 20271
SWIDTH 990 0
DWIDTH 11 0
BBX 9 10 1 -1
BITMAP
2000
2200
4400
5F80
D080
5F80
5080
5080
5F80
5080
ENDCHAR
STARTCHAR 4F30
ENCODING 20272
SWIDTH 990 0
DWIDTH 11 0
BBX 11 10 0 -1
BITMAP
1200
2200
3FE0
6200
A200
2FC0
2840
2840
2FC0
2840
ENDCHAR
STARTCHAR 4F34
ENCODING 20276
SWIDTH 990 0
DWIDTH 11 0
BBX 9 9 1 0
BITMAP
2C00
5500
4480
DF80
4400
7F80
4400
4400
4400
ENDCHAR
STARTCHAR 4F36
ENCODING 20278
SWIDTH 990 0
DWIDTH 11 0
BBX 9 9 1 -1
BITMAP
2400
4A00
5100
DE80
5F00
4500
4500
4500
4400
ENDCHAR
STARTCHAR 4F38
ENCODING 20280
SWIDTH 990 0
DWIDTH 11 0
BBX 9 9 1 -1
BITMAP
2400
4400
5F80
D480
5F80
5480
5F80
5480
0400
ENDCHAR
STARTCHAR 4F3A
ENCODING 20282
SWIDTH 990 0
DWIDTH 11 0
BBX 9 9 1 -1
BITMAP
3F80
4080
5E80
C080
5E80
5280
5E80
5280
0100
ENDCHAR
STARTCHAR 4F3C
ENCODING 20284
SWIDTH 990 0
DWIDTH 11 0
BBX 9 8 1 0
BITMAP
5100
5500
5100
D100
5100
5E00
4300
4C80
ENDCHAR
STARTCHAR 4F3D
ENCODING 20285
SWIDTH 990 0
DWIDTH 11 0
BBX 9 9 1 0
BITMAP
7000
5D80
5680
D680
5680
5680
5580
6480
4800
ENDCHAR
STARTCHAR 4F42
ENCODING 20290
SWIDTH 990 0
DWIDTH 11 0
BBX 9 10 1 -1
BITMAP
2000
5F80
4200
4200
CB80
4A00
4A00
4A00
4A00
5F80
ENDCHAR
STARTCHAR 4F43
ENCODING 20291
SWIDTH 990 0
DWIDTH 11 0
BBX 9 10 1 -1
BITMAP
2000
2F80
5480
5480
D480
4F80
5480
5480
4F80
1080
ENDCHAR
STARTCHAR 4F46
ENCODING 20294
SWIDTH 990 0
DWIDTH 11 0
BBX 9 8 1 0
BITMAP
2F00
4900
4900
CF00
4900
4F00
4900
7F80
ENDCHAR
STARTCHAR 4F47
ENCODING 20295
SWIDTH 990 0
DWIDTH 11 0
BBX 9 9 1 -1
BITMAP
2400
5F80
5080
D080
5F80
4200
4200
4200
4600
ENDCHAR
STARTCHAR 4F48
ENCODING 20296
SWIDTH 990 0
DWIDTH 11 0
BBX 9 10 1 -1
BITMAP
4800
7F80
4800
CA00
4F80
5A80
6A80
4A80
4B00
0200
ENDCHAR
STARTCHAR 4F49
ENCODING 20297
SWIDTH 990 0
DWIDTH 11 0
BBX 10 10 0 -1
BITMAP
1000
1200
2200
6FC0
A200
3FC0
2200
2480
2440
3FC0
ENDCHAR
STARTCHAR 4F4B
ENCODING 20299
SWIDTH 990 0
DWIDTH 11 0
BBX 9 10 1 -1
BITMAP
0F80
2480
4480
4480
C980
4F80
4880
4880
4F80
4880
ENDCHAR
STARTCHAR 4F4D
ENCODING 20301
SWIDTH 990 0
DWIDTH 11 0
BBX 9 9 1 -1
BITMAP
2400
4400
5F80
C000
4A00
4A00
4A00
4200
7F80
ENDCHAR
STARTCHAR 4F4E
ENCODING 20302
SWIDTH 990 0
DWIDTH 11 0
BBX 10 8 0 1
BITMAP
2380
2E00
6A00
AFC0
2A00
2900
3F00
3FC0
ENDCHAR
STARTCHAR 4F4F
ENCODING 20303
SWIDTH 990 0
DWIDTH 11 0
BBX 9 9 1 0
BITMAP
2400
4000
5F80
C400
4400
5F00
4400
5F80
4000
ENDCHAR
STARTCHAR 4F50
ENCODING 20304
SWIDTH 990 0
DWIDTH 11 0
BBX 9 10 1 -1
BITMAP
2000
2400
4400
5F80
C800
4F80
5200
6200
5F80
4000
ENDCHAR
STARTCHAR 4F51
ENCODING 20305
SWIDTH 990 0
DWIDTH 11 0
BBX 9 9 1 -1
BITMAP
2400
4400
5F80
C800
4F80
4880
5880
4F80
4880
ENDCHAR
STARTCHAR 4F53
ENCODING 20307
SWIDTH 990 0
DWIDTH 11 0
BBX 10 10 0 -1
BITMAP
1200
2200
2FC0
6300
A700
2680
2A40
3780
2200
2200
ENDCHAR
STARTCHAR 4F54
ENCODING 20308
SWIDTH 990 0
DWIDTH 11 0
BBX 9 10 1 -1
BITMAP
2400
2400
4780
4400
C400
5F80
5080
5080
5F80
5080
ENDCHAR
STARTCHAR 4F55
ENCODING 20309
SWIDTH 990 0
DWIDTH 11 0
BBX 9 9 1 0
BITMAP
3F80
4100
5D00
D500
5500
5D00
5500
4100
4200
ENDCHAR
STARTCHAR 4F56
ENCODING 20310
SWIDTH 990 0
DWIDTH 11 0
BBX 9 10 1 -1
BITMAP
2000
2500
4100
4500
D580
5680
5680
4480
4C80
5780
ENDCHAR
STARTCHAR 4F57
ENCODING 20311
SWIDTH 990 0
DWIDTH 11 0
BBX 9 10 1 -1
BITMAP
2400
5F80
5080
D880
4980
4E00
4800
4800
4880
4F00
ENDCHAR
STARTCHAR 4F59
ENCODING 20313
SWIDTH 990 0
DWIDTH 11 0
BBX 9 9 1 0
BITMAP
1800
2600
4180
BE00
0800
FF80
4900
8880
1800
ENDCHAR
STARTCHAR 4F5A
ENCODING 20314
SWIDTH 990 0
DWIDTH 11 0
BBX 9 9 1 0
BITMAP
4C00
5400
DF80
6400
7F80
4400
4600
4900
5080
ENDCHAR
STARTCHAR 4F5B
ENCODING 20315
SWIDTH 990 0
DWIDTH 11 0
BBX 9 9 1 -1
BITMAP
2A00
5F80
4A80
DF80
5F80
4A80
4A80
5200
4200
ENDCHAR
STARTCHAR 4F5C
ENCODING 20316
SWIDTH 990 0
DWIDTH 11 0
BBX 9 10 1 -1
BITMAP
0400
2800
2F80
5400
C400
4780
4400
4780
4400
4400
ENDCHAR
STARTCHAR 4F5D
ENCODING 20317
SWIDTH 990 0
DWIDTH 11 0
BBX 10 10 0 -1
BITMAP
1000
1400
27C0
6840
A740
2540
2540
2740
2440
20C0
ENDCHAR
STARTCHAR 4F5E
ENCODING 20318
SWIDTH 990 0
DWIDTH 11 0
BBX 9 9 1 -1
BITMAP
3F80
4000
5F80
C400
5F80
4900
4A00
4600
5D80
ENDCHAR
STARTCHAR 4F5F
ENCODING 20319
SWIDTH 990 0
DWIDTH 11 0
BBX 9 10 1 -1
BITMAP
2400
4F00
5A00
C600
5980
4000
4300
4000
4380
0C00
ENDCHAR
STARTCHAR 4F69
ENCODING 20329
SWIDTH 990 0
DWIDTH 11 0
BBX 10 9 1 0
BITMAP
5F00
5F00
D500
5F00
5D00
5D00
5F00
6F40
6480
ENDCHAR
STARTCHAR 4F6A
ENCODING 20330
SWIDTH 990 0
DWIDTH 11 0
BBX 9 10 1 -1
BITMAP
2000
3F80
5780
5580
D580
5580
5780
5580
5F80
5080
ENDCHAR
STARTCHAR 4F6F
ENCODING 20335
SWIDTH 990 0
DWIDTH 11 0
BBX 9 10 1 -1
BITMAP
4A00
5F80
4400
DF00
4400
4400
7F80
4400
4400
0400
ENDCHAR
STARTCHAR 4F70
ENCODING 20336
SWIDTH 990 0
DWIDTH 11 0
BBX 10 9 0 0
BITMAP
2FC0
2200
6FC0
A840
2840
2FC0
2840
2FC0
2840
ENDCHAR
STARTCHAR 4F73
ENCODING 20339
SWIDTH 990 0
DWIDTH 11 0
BBX 9 10 1 -1
BITMAP
0400
2400
5F80
4400
FF80
4400
4400
5F80
7F80
4000
ENDCHAR
STARTCHAR 4F76
ENCODING 20342
SWIDTH 990 0
DWIDTH 11 0
BBX 9 9 1 0
BITMAP
2400
5F80
4400
DF80
4000
4F00
5100
4F00
4000
ENDCHAR
STARTCHAR 4F78
ENCODING 20344
SWIDTH 990 0
DWIDTH 11 0
BBX 10 10 0 -1
BITMAP
11C0
1E00
2200
6FC0
A200
2200
2FC0
2840
2FC0
2840
ENDCHAR
STARTCHAR 4F79
ENCODING 20345
SWIDTH 990 0
DWIDTH 11 0
BBX 10 10 0 -1
BITMAP
1200
1780
2500
6FC0
A800
2B80
2A80
2A80
2A40
33C0
ENDCHAR
STARTCHAR 4F7A
ENCODING 20346
SWIDTH 990 0
DWIDTH 11 0
BBX 9 9 1 0
BITMAP
4C00
4A00
5180
DF00
4400
4400
5F00
4400
5F80
ENDCHAR
STARTCHAR 4F7B
ENCODING 20347
SWIDTH 990 0
DWIDTH 11 0
BBX 9 10 1 -1
BITMAP
2800
4A00
5B00
CA00
CA00
5B00
4A00
4A00
5280
6380
ENDCHAR
STARTCHAR 4F7C
ENCODING 20348
SWIDTH 990 0
DWIDTH 11 0
BBX 10 9 0 0
BITMAP
1200
2FC0
2480
6840
A500
2300
2300
24C0
3800
ENDCHAR
STARTCHAR 4F7D
ENCODING 20349
SWIDTH 990 0
DWIDTH 11 0
BBX 9 10 1 -1
BITMAP
2400
4400
5780
CA80
5300
4A00
5600
4600
4900
5080
ENDCHAR
STARTCHAR 4F7E
ENCODING 20350
SWIDTH 990 0
DWIDTH 11 0
BBX 9 10 1 -1
BITMAP
6600
5900
6F80
D100
4F00
5100
4F00
5100
5100
0100
ENDCHAR
STARTCHAR 4F7F
ENCODING 20351
SWIDTH 990 0
DWIDTH 11 0
BBX 9 9 1 -1
BITMAP
4400
5F80
4380
DC80
5F80
4400
4C00
4B00
5080
ENDCHAR
STARTCHAR 4F81
ENCODING 20353
SWIDTH 990 0
DWIDTH 11 0
BBX 9 10 1 -1
BITMAP
0400
5400
5F00
5400
C400
7F80
4A00
4A00
4A00
5380
ENDCHAR
STARTCHAR 4F83
ENCODING 20355
SWIDTH 990 0
DWIDTH 11 0
BBX 9 9 1 0
BITMAP
7F00
5100
5F00
D100
4E00
5600
5600
5580
6000
ENDCHAR
STARTCHAR 4F84
ENCODING 20356
SWIDTH 990 0
DWIDTH 11 0
BBX 9 9 1 0
BITMAP
5F00
4400
4900
DF80
4400
5F80
4400
4400
7F80
ENDCHAR
STARTCHAR 4F86
ENCODING 20358
SWIDTH 990 0
DWIDTH 11 0
BBX 9 10 1 -1
BITMAP
0800
0800
FF80
2800
6B00
0800
1C00
6B00
0800
0800
ENDCHAR
STARTCHAR 4F88
ENCODING 20360
SWIDTH 990 0
DWIDTH 11 0
BBX 9 10 1 -1
BITMAP
2400
2700
4A00
4600
CA00
4380
4480
4B00
4200
5C00
ENDCHAR
STARTCHAR 4F89
ENCODING 20361
SWIDTH 990 0
DWIDTH 11 0
BBX 10 11 0 -2
BITMAP
1200
1FC0
2300
6480
AB40
2FC0
2400
2780
2880
2080
0100
ENDCHAR
STARTCHAR 4F8A
ENCODING 20362
SWIDTH 990 0
DWIDTH 11 0
BBX 9 9 1 -1
BITMAP
6400
5500
4400
DF80
4A00
4A00
4A80
5280
5380
ENDCHAR
STARTCHAR 4F8B
ENCODING 20363
SWIDTH 990 0
DWIDTH 11 0
BBX 9 9 1 -1
BITMAP
7C80
5280
9A80
9A80
AA80
9A80
9280
A080
0100
ENDCHAR
STARTCHAR 4F8D
ENCODING 20365
SWIDTH 990 0
DWIDTH 11 0
BBX 9 9 1 -1
BITMAP
2400
5F00
4400
DF80
4100
5F80
4900
4100
0300
ENDCHAR
STARTCHAR 4F8F
ENCODING 20367
SWIDTH 990 0
DWIDTH 11 0
BBX 9 9 1 -1
BITMAP
3400
4F80
5400
C400
5F80
4600
4E00
4D00
5480
ENDCHAR
STARTCHAR 4F91
ENCODING 20369
SWIDTH 990 0
DWIDTH 11 0
BBX 9 10 1 -1
BITMAP
2000
2400
5F80
4800
CF00
5F00
4900
4F00
4900
4900
ENDCHAR
STARTCHAR 4F94
ENCODING 20372
SWIDTH 990 0
DWIDTH 11 0
BBX 9 10 1 -1
BITMAP
2400
2800
4980
D600
5200
5F80
5200
5F80
4200
4200
ENDCHAR
STARTCHAR 4F96
ENCODING 20374
SWIDTH 990 0
DWIDTH 11 0
BBX 9 10 1 -1
BITMAP
0800
1400
2200
5F00
8080
7F00
7F00
5500
5500
4300
ENDCHAR
STARTCHAR 4F97
ENCODING 20375
SWIDTH 990 0
DWIDTH 11 0
BBX 10 9 0 0
BITMAP
2FC0
2FC0
6840
ABC0
2CC0
2CC0
2BC0
28C0
2840
ENDCHAR
STARTCHAR 4F98
ENCODING 20376
SWIDTH 990 0
DWIDTH 11 0
BBX 9 9 1 0
BITMAP
4400
5F80
6380
DC00
4400
7F80
4400
4480
4700
ENDCHAR
STARTCHAR 4F9A
ENCODING 20378
SWIDTH 990 0
DWIDTH 11 0
BBX 9 11 1 -2
BITMAP
2000
5000
5F80
FE80
5280
5E80
5280
5E80
5280
4080
0300
ENDCHAR
STARTCHAR 4F9B
ENCODING 20379
SWIDTH 990 0
DWIDTH 11 0
BBX 10 10 0 -1
BITMAP
0500
1500
2500
3FC0
E500
2500
3FC0
2500
2880
2040
ENDCHAR
STARTCHAR 4F9C
ENCODING 20380
SWIDTH 990 0
DWIDTH 11 0
BBX 9 10 1 -1
BITMAP
2400
2F00
5500
5300
DF80
5500
5500
5500
5100
4300
ENDCHAR
STARTCHAR 4F9D
ENCODING 20381
SWIDTH 990 0
DWIDTH 11 0
BBX 10 10 0 -1
BITMAP
0200
2200
3FC0
2200
E600
2580
3D00
2480
2640
2800
ENDCHAR
STARTCHAR 4FAE
ENCODING 20398
SWIDTH 990 0
DWIDTH 11 0
BBX 9 9 1 -1
BITMAP
4800
4F80
5F00
D500
7F80
5500
5100
5F80
4200
ENDCHAR
STARTCHAR 4FAF
ENCODING 20399
SWIDTH 990 0
DWIDTH 11 0
BBX 9 9 1 -1
BITMAP
2F00
4100
5F80
CF00
5400
7F80
4400
4A00
5180
ENDCHAR
STARTCHAR 4FB2
ENCODING 20402
SWIDTH 990 0
DWIDTH 11 0
BBX 9 10 1 -1
BITMAP
2000
4F80
4F00
5000
CF80
5600
5680
5500
6480
6800
ENDCHAR
STARTCHAR 4FB5
ENCODING 20405
SWIDTH 990 0
DWIDTH 11 0
BBX 9 10 1 -1
BITMAP
0F00
6100
7F80
5F00
DF80
6080
4F00
4A00
4600
5980
ENDCHAR
STARTCHAR 4FB6
ENCODING 20406
SWIDTH 990 0
DWIDTH 11 0
BBX 9 9 1 -1
BITMAP
2F00
5100
5100
CF00
5F80
5080
5080
5F80
5080
ENDCHAR
STARTCHAR 4FBB
ENCODING 20411
SWIDTH 990 0
DWIDTH 11 0
BBX 9 11 1 -2
BITMAP
2E00
4900
5100
EF80
5100
5100
4F00
4A00
4A00
1280
0100
ENDCHAR
STARTCHAR 4FBF
ENCODING 20415
SWIDTH 990 0
DWIDTH 11 0
BBX 10 9 0 0
BITMAP
2FC0
2FC0
6A40
AFC0
2FC0
2200
2600
2500
28C0
ENDCHAR
STARTCHAR 4FC1
ENCODING 20417
SWIDTH 990 0
DWIDTH 11 0
BBX 10 9 0 0
BITMAP
2F80
2C80
6F80
AF80
2A80
2FC0
2200
2500
38C0
ENDCHAR
STARTCHAR 4FC2
ENCODING 20418
SWIDTH 990 0
DWIDTH 11 0
BBX 9 10 1 -1
BITMAP
2100
3E00
4500
4A00
C400
5F80
4400
5500
4480
4400
ENDCHAR
STARTCHAR 4FC3
ENCODING 20419
SWIDTH 990 0
DWIDTH 11 0
BBX 9 9 1 0
BITMAP
4F00
5100
4F00
C400
4400
5380
5400
6C00
6380
ENDCHAR
STARTCHAR 4FC4
ENCODING 20420
SWIDTH 990 0
DWIDTH 11 0
BBX 9 10 1 -1
BITMAP
4600
5A80
4A00
FF80
4A00
4E80
7900
4A00
4D00
1080
ENDCHAR
STARTCHAR 4FC5
ENCODING 20421
SWIDTH 990 0
DWIDTH 11 0
BBX 10 10 0 -1
BITMAP
1180
1200
2FC0
6200
A640
2180
2680
2A40
2200
2600
ENDCHAR
STARTCHAR 4FC9
ENCODING 20425
SWIDTH 990 0
DWIDTH 11 0
BBX 9 9 1 0
BITMAP
5F80
4F00
4500
C500
5F80
4F00
5100
4F00
4000
ENDCHAR
STARTCHAR 4FCA
ENCODING 20426
SWIDTH 990 0
DWIDTH 11 0
BBX 10 9 1 0
BITMAP
0400
4900
5E80
4A40
D580
4F00
5A00
4600
5D80
ENDCHAR
STARTCHAR 4FCC
ENCODING 20428
SWIDTH 990 0
DWIDTH 11 0
BBX 11 11 0 -1
BITMAP
1180
1FE0
2100
6FC0
A940
2FC0
2940
2FC0
2940
2940
0100
ENDCHAR
STARTCHAR 4FCE
ENCODING 20430
SWIDTH 990 0
DWIDTH 11 0
BBX 9 8 1 0
BITMAP
6700
4900
6700
9900
4900
4700
6900
9F80
ENDCHAR
STARTCHAR 4FCF
ENCODING 20431
SWIDTH 990 0
DWIDTH 11 0
BBX 10 10 0 -1
BITMAP
1100
1500
2940
67C0
A840
27C0
2840
27C0
2840
2840
ENDCHAR
STARTCHAR 4FD0
ENCODING 20432
SWIDTH 990 0
DWIDTH 11 0
BBX 9 10 1 -1
BITMAP
2400
5980
4A80
DE80
4A80
4E80
5E80
6880
4880
4880
ENDCHAR
STARTCHAR 4FD1
ENCODING 20433
SWIDTH 990 0
DWIDTH 11 0
BBX 8 9 1 -1
BITMAP
3F
44
5F
D5
5F
55
5F
55
55
ENDCHAR
STARTCHAR 4FD3
ENCODING 20435
SWIDTH 990 0
DWIDTH 11 0
BBX 9 9 1 0
BITMAP
5F80
4000
5500
D500
4000
5F80
4400
7F80
4000
ENDCHAR
ENDFONT
